<?xml version="1.0" encoding="UTF-8"?>
<svg width="691px" height="404px" viewBox="0 0 691 404" version="1.1" xmlns="http://www.w3.org/2000/svg" xmlns:xlink="http://www.w3.org/1999/xlink">
    <!-- Generator: Sketch 44.1 (41455) - http://www.bohemiancoding.com/sketch -->
    <title>bg-call</title>
    <desc>Created with Sketch.</desc>
    <defs>
        <polygon id="path-1" points="0 229.022255 187.949084 229.022255 187.949084 0 0 0"></polygon>
        <polygon id="path-3" points="0 339.210466 690.872578 339.210466 690.872578 0 0 0"></polygon>
    </defs>
    <g id="exportables" stroke="none" stroke-width="1" fill="none" fill-rule="evenodd">
        <g id="Artboard" transform="translate(-1371.000000, -740.000000)">
            <g id="bg-call" transform="translate(1371.000000, 740.000000)">
                <g id="Page-1" transform="translate(251.000000, 174.000000)">
                    <path d="M170.339791,228.81112 C164.20307,190.082392 128.413809,160.358263 85.1694201,160.358263 C41.9260875,160.358263 6.13682619,190.082392 0.0001056416,228.81112 L170.339791,228.81112 Z" id="Fill-1" fill="#16D46F"></path>
                    <path d="M108.426947,167.963617 C108.426947,180.040723 98.0328695,189.831358 85.2100921,189.831358 C72.3873147,189.831358 61.9932377,180.040723 61.9932377,167.963617 C61.9932377,155.88651 72.3873147,146.09687 85.2100921,146.09687 C98.0328695,146.09687 108.426947,155.88651 108.426947,167.963617" id="Fill-3" fill="#F69E8C"></path>
                    <mask id="mask-2" fill="white">
                        <use xlink:href="#path-1"></use>
                    </mask>
                    <g id="Clip-6"></g>
                    <polygon id="Fill-5" fill="#F69E8C" mask="url(#mask-2)" points="61.9936602 169.357091 108.375605 169.357091 108.375605 141.025938 61.9936602 141.025938"></polygon>
                    <path d="M107.294257,229.022454 C107.295314,228.950815 107.305878,228.882162 107.305878,228.811518 C107.305878,217.317471 97.4125421,208.000448 85.2098808,208.000448 C73.0072196,208.000448 63.1149402,217.317471 63.1149402,228.811518 C63.1149402,228.882162 63.1244479,228.950815 63.1255043,229.022454 L107.294257,229.022454 Z" id="Fill-7" fill="#F1F1F2" mask="url(#mask-2)"></path>
                    <path d="M160.357505,88.3129206 C160.357505,95.1972096 154.432068,100.778071 147.122725,100.778071 C139.813383,100.778071 133.887946,95.1972096 133.887946,88.3129206 C133.887946,81.4286316 139.813383,75.8477707 147.122725,75.8477707 C154.432068,75.8477707 160.357505,81.4286316 160.357505,88.3129206" id="Fill-8" fill="#F69D8B" mask="url(#mask-2)"></path>
                    <path d="M36.53245,88.3129206 C36.53245,95.1972096 30.6070126,100.778071 23.2976703,100.778071 C15.988328,100.778071 10.0628906,95.1972096 10.0628906,88.3129206 C10.0628906,81.4286316 15.988328,75.8477707 23.2976703,75.8477707 C30.6070126,75.8477707 36.53245,81.4286316 36.53245,88.3129206" id="Fill-9" fill="#F69D8B" mask="url(#mask-2)"></path>
                    <path d="M85.2100921,160.357865 L85.2100921,160.357865 C51.0170754,160.357865 23.2977759,134.2505 23.2977759,102.045878 L23.2977759,58.3113903 C23.2977759,26.106768 51.0170754,-0.000596989938 85.2100921,-0.000596989938 C119.403109,-0.000596989938 147.122408,26.106768 147.122408,58.3113903 L147.122408,102.045878 C147.122408,134.2505 119.403109,160.357865 85.2100921,160.357865" id="Fill-10" fill="#FFC6B9" mask="url(#mask-2)"></path>
                    <path d="M181.659077,45.5296367 L143.309063,45.5296367 L143.309063,58.9449956 L181.659077,58.9449956 C185.132573,58.9449956 187.948978,56.2933653 187.948978,53.0218604 L187.948978,51.4537668 C187.948978,48.182262 185.132573,45.5296367 181.659077,45.5296367" id="Fill-11" fill="#B32D37" mask="url(#mask-2)"></path>
                    <path d="M23.2977759,58.3113903 L23.2977759,58.9451946 L147.122408,58.9451946 L147.122408,58.3113903 C147.122408,26.106768 119.403109,-0.000596989939 85.2100921,-0.000596989939 C51.0170754,-0.000596989939 23.2977759,26.106768 23.2977759,58.3113903 Z" id="Fill-12" fill="#EC204F" mask="url(#mask-2)"></path>
                    <path d="M38.3357521,58.9453936 L91.2664194,58.9453936 L91.2664194,45.5300347 L38.3357521,45.5300347 C34.8622563,45.5300347 32.0458512,48.181665 32.0458512,51.4531698 L32.0458512,53.0212634 C32.0458512,56.2927683 34.8622563,58.9453936 38.3357521,58.9453936" id="Fill-13" fill="#B32D37" mask="url(#mask-2)"></path>
                    <path d="M60.6468355,45.5296367 L91.2670533,45.5296367 C91.2670533,31.7023547 79.3654706,20.4928736 64.6844574,20.4928736 C50.0034442,20.4928736 38.102918,31.7023547 38.102918,45.5296367 C38.102918,58.0604555 47.887443,68.4102711 60.6468355,70.2470101 L60.6468355,45.5296367 Z" id="Fill-14" fill="#FCBE16" mask="url(#mask-2)"></path>
                    <path d="M122.895937,83.1854735 C122.895937,86.600256 119.955931,89.3682993 116.330312,89.3682993 C112.704692,89.3682993 109.764686,86.600256 109.764686,83.1854735 C109.764686,79.7696961 112.704692,77.0016528 116.330312,77.0016528 C119.955931,77.0016528 122.895937,79.7696961 122.895937,83.1854735" id="Fill-15" fill="#F69D8B" mask="url(#mask-2)"></path>
                    <path d="M58.9647043,83.1854735 C58.9647043,86.600256 56.0246985,89.3682993 52.3990788,89.3682993 C48.7734591,89.3682993 45.8334534,86.600256 45.8334534,83.1854735 C45.8334534,79.7696961 48.7734591,77.0016528 52.3990788,77.0016528 C56.0246985,77.0016528 58.9647043,79.7696961 58.9647043,83.1854735" id="Fill-16" fill="#F69D8B" mask="url(#mask-2)"></path>
                    <polygon id="Fill-17" fill="#F69D8B" mask="url(#mask-2)" points="76.2373172 99.4326542 95.079553 99.4326542 95.079553 80.4722538 76.2373172 80.4722538"></polygon>
                    <path d="M101.303956,58.9453936 C101.303956,58.9453936 106.520538,74.3686286 122.896043,77.7485867 L125.138814,66.868445 C125.138814,66.868445 127.606602,83.8756934 147.122831,82.1852169 L147.122831,58.9453936 L101.303956,58.9453936 Z" id="Fill-18" fill="#FCBE16" mask="url(#mask-2)"></path>
                    <path d="M56.0482566,106.736627 C56.0482566,109.997187 56.6483009,113.124419 57.7395786,116.032755 L113.577503,116.032755 C114.668781,113.124419 115.268825,109.997187 115.268825,106.736627 L56.0482566,106.736627 Z" id="Fill-19" fill="#FDFEFE" mask="url(#mask-2)"></path>
                    <path d="M113.577503,116.032556 L57.740635,116.032556 C60.0351706,122.147723 64.5418413,127.264922 70.3394523,130.577221 C74.0126107,126.466946 79.5080867,123.85014 85.6585407,123.85014 C91.8037126,123.85014 97.294963,126.462966 100.968121,130.567271 C101.315682,130.368275 101.669582,130.177238 102.007635,129.965307 C107.306617,126.648033 111.420301,121.780575 113.577503,116.032556" id="Fill-20" fill="#B74541" mask="url(#mask-2)"></path>
                    <path d="M85.6588576,123.85004 C79.5084037,123.85004 74.0129276,126.466846 70.3397692,130.577122 C71.0232703,130.96815 71.7162792,131.347239 72.4346421,131.686528 C76.4152176,133.563067 80.9039292,134.624714 85.6588576,134.624714 C91.2715959,134.624714 96.4987422,133.125274 100.968438,130.567172 C97.2952799,126.462866 91.8040295,123.85004 85.6588576,123.85004" id="Fill-21" fill="#8E3E3A" mask="url(#mask-2)"></path>
                    <path d="M82.8300925,52.2375151 C82.8300925,52.8663445 82.2892075,53.3767709 81.6204962,53.3767709 C80.9528413,53.3767709 80.4119563,52.8663445 80.4119563,52.2375151 C80.4119563,51.6086857 80.9528413,51.0982593 81.6204962,51.0982593 C82.2892075,51.0982593 82.8300925,51.6086857 82.8300925,52.2375151" id="Fill-22" fill="#E63638" mask="url(#mask-2)"></path>
                    <path d="M75.3856346,52.2375151 C75.3856346,52.8663445 74.8436932,53.3767709 74.1760383,53.3767709 C73.5083834,53.3767709 72.9664419,52.8663445 72.9664419,52.2375151 C72.9664419,51.6086857 73.5083834,51.0982593 74.1760383,51.0982593 C74.8436932,51.0982593 75.3856346,51.6086857 75.3856346,52.2375151" id="Fill-23" fill="#E63638" mask="url(#mask-2)"></path>
                    <path d="M67.9406485,52.2375151 C67.9406485,52.8663445 67.3997635,53.3767709 66.7310521,53.3767709 C66.0644536,53.3767709 65.5225122,52.8663445 65.5225122,52.2375151 C65.5225122,51.6086857 66.0644536,51.0982593 66.7310521,51.0982593 C67.3997635,51.0982593 67.9406485,51.6086857 67.9406485,52.2375151" id="Fill-24" fill="#E63638" mask="url(#mask-2)"></path>
                </g>
                <g id="Page-1">
                    <path d="M113.424268,125.265004 C112.832502,125.809058 105.679498,125.124654 104.936448,124.411864 C104.196741,123.695921 103.610827,117.134947 104.365578,116.433197 C105.122001,115.736177 111.214342,110.110345 111.214342,110.110345 C111.214342,110.110345 111.940675,109.35892 110.905922,109.345516 C107.570974,109.300572 100.790748,109.304514 97.4733518,112.371717 L96.7888098,113.000927 C92.4650785,117.020617 92.511049,123.357661 96.671794,127.388391 L101.711829,132.243086 C105.877589,136.270661 112.573396,136.450435 116.913844,132.434687 L117.594207,131.804689 C120.808796,128.836835 120.977633,122.497426 121.026947,119.294604 C121.047007,118.273518 120.248792,118.924017 120.248792,118.924017 C120.248792,118.924017 114.013525,124.717796 113.424268,125.265004 Z" id="Fill-1" fill="#38AAE0"></path>
                    <path d="M95.7910835,126.055774 L73.9091418,144.546508 C72.3678774,145.971298 70.3142513,149.868774 73.8121859,153.240331 C77.3109562,156.61031 81.4850745,154.754219 83.0246672,153.331795 C83.0246672,153.331795 102.405816,133.016509 102.918177,133.252266" id="Fill-3" fill="#38AAE0"></path>
                    <path d="M648.647786,244.011139 C648.647786,245.827806 647.086462,247.300693 645.160717,247.300693 C643.234973,247.300693 641.673648,245.827806 641.673648,244.011139 C641.673648,242.194472 643.234973,240.721584 645.160717,240.721584 C647.086462,240.721584 648.647786,242.194472 648.647786,244.011139" id="Fill-5" fill="#3CB775"></path>
                    <path d="M629.518472,244.011139 C629.518472,245.827806 627.957148,247.300693 626.031403,247.300693 C624.104823,247.300693 622.544335,245.827806 622.544335,244.011139 C622.544335,242.194472 624.104823,240.721584 626.031403,240.721584 C627.957148,240.721584 629.518472,242.194472 629.518472,244.011139" id="Fill-7" fill="#3CB775"></path>
                    <path d="M629.518472,253.591138 C629.518472,255.407805 627.957148,256.880693 626.031403,256.880693 C624.104823,256.880693 622.544335,255.407805 622.544335,253.591138 C622.544335,251.773683 624.104823,250.301584 626.031403,250.301584 C627.957148,250.301584 629.518472,251.773683 629.518472,253.591138" id="Fill-9" fill="#3CB775"></path>
                    <path d="M629.518472,263.170744 C629.518472,264.98741 627.957148,266.460298 626.031403,266.460298 C624.104823,266.460298 622.544335,264.98741 622.544335,263.170744 C622.544335,261.354077 624.104823,259.881189 626.031403,259.881189 C627.957148,259.881189 629.518472,261.354077 629.518472,263.170744" id="Fill-11" fill="#3CB775"></path>
                    <path d="M648.647786,253.591138 C648.647786,255.407805 647.086462,256.880693 645.160717,256.880693 C643.234973,256.880693 641.673648,255.407805 641.673648,253.591138 C641.673648,251.773683 643.234973,250.301584 645.160717,250.301584 C647.086462,250.301584 648.647786,251.773683 648.647786,253.591138" id="Fill-13" fill="#3CB775"></path>
                    <path d="M648.647786,263.170744 C648.647786,264.98741 647.086462,266.460298 645.160717,266.460298 C643.234973,266.460298 641.673648,264.98741 641.673648,263.170744 C641.673648,261.354077 643.234973,259.881189 645.160717,259.881189 C647.086462,259.881189 648.647786,261.354077 648.647786,263.170744" id="Fill-15" fill="#3CB775"></path>
                    <path d="M630.060422,243.305367 C630.060422,244.840545 628.740652,246.085561 627.113297,246.085561 C625.485107,246.085561 624.166173,244.840545 624.166173,243.305367 C624.166173,241.769401 625.485107,240.525173 627.113297,240.525173 C628.740652,240.525173 630.060422,241.769401 630.060422,243.305367 Z" id="Stroke-17" stroke="#222221" stroke-width="3" stroke-linecap="round" stroke-linejoin="round"></path>
                    <path d="M630.060422,253.081384 C630.060422,254.61735 628.740652,255.861577 627.113297,255.861577 C625.485107,255.861577 624.166173,254.61735 624.166173,253.081384 C624.166173,251.546206 625.485107,250.30119 627.113297,250.30119 C628.740652,250.30119 630.060422,251.546206 630.060422,253.081384 Z" id="Stroke-19" stroke="#222221" stroke-width="3" stroke-linecap="round" stroke-linejoin="round"></path>
                    <path d="M630.060422,262.953989 C630.060422,264.489956 628.740652,265.734183 627.113297,265.734183 C625.485107,265.734183 624.166173,264.489956 624.166173,262.953989 C624.166173,261.418811 625.485107,260.173795 627.113297,260.173795 C628.740652,260.173795 630.060422,261.418811 630.060422,262.953989 Z" id="Stroke-21" stroke="#222221" stroke-width="3" stroke-linecap="round" stroke-linejoin="round"></path>
                    <path d="M648.873125,243.305367 C648.873125,244.840545 647.553355,246.085561 645.926,246.085561 C644.29781,246.085561 642.978875,244.840545 642.978875,243.305367 C642.978875,241.769401 644.29781,240.525173 645.926,240.525173 C647.553355,240.525173 648.873125,241.769401 648.873125,243.305367 Z" id="Stroke-23" stroke="#222221" stroke-width="3" stroke-linecap="round" stroke-linejoin="round"></path>
                    <path d="M648.873125,253.081384 C648.873125,254.61735 647.553355,255.861577 645.926,255.861577 C644.29781,255.861577 642.978875,254.61735 642.978875,253.081384 C642.978875,251.546206 644.29781,250.30119 645.926,250.30119 C647.553355,250.30119 648.873125,251.546206 648.873125,253.081384 Z" id="Stroke-25" stroke="#222221" stroke-width="3" stroke-linecap="round" stroke-linejoin="round"></path>
                    <path d="M648.873125,262.953989 C648.873125,264.489956 647.553355,265.734183 645.926,265.734183 C644.29781,265.734183 642.978875,264.489956 642.978875,262.953989 C642.978875,261.418811 644.29781,260.173795 645.926,260.173795 C647.553355,260.173795 648.873125,261.418811 648.873125,262.953989 Z" id="Stroke-27" stroke="#222221" stroke-width="3" stroke-linecap="round" stroke-linejoin="round"></path>
                    <path d="M630.060422,243.305367 L642.978959,243.305367" id="Stroke-29" stroke="#222221" stroke-width="3" stroke-linecap="round" stroke-linejoin="round"></path>
                    <path d="M630.060422,253.081384 L642.978959,253.081384" id="Stroke-31" stroke="#222221" stroke-width="3" stroke-linecap="round" stroke-linejoin="round"></path>
                    <path d="M630.060422,262.953989 L642.978959,262.953989" id="Stroke-33" stroke="#222221" stroke-width="3" stroke-linecap="round" stroke-linejoin="round"></path>
                    <polygon id="Fill-35" fill="#3CB775" points="290.857227 63.4725526 284.96632 69.1346548 278.067407 62.746359"></polygon>
                    <polygon id="Fill-37" fill="#3CB775" points="265.520396 40.0136611 265.577232 51.1825342 259.629489 45.6757633"></polygon>
                    <path d="M286.7361,75.2370464 C286.349112,75.6092108 285.716391,75.6147302 285.321881,75.2496622 L255.464482,47.6062082 C255.070807,47.2411402 255.064956,46.6434695 255.451944,46.2720936 L294.26857,8.96182815 C294.655557,8.59045227 295.288278,8.5841444 295.682788,8.94921241 L325.540188,36.5934548 C325.933862,36.9585228 325.939713,37.5554051 325.552725,37.9275694 L286.7361,75.2370464 Z" id="Stroke-39" stroke="#222221" stroke-width="3" stroke-linecap="round" stroke-linejoin="round"></path>
                    <path d="M299.099564,38.5498409 C297.745525,39.8508391 295.529748,39.8705512 294.149799,38.5932075 C292.770685,37.3166522 292.749789,35.2255931 294.103828,33.9238063 C295.457867,32.622808 297.673644,32.603096 299.053594,33.8804397 C300.432708,35.1577835 300.453603,37.2488426 299.099564,38.5498409 Z" id="Stroke-41" stroke="#222221" stroke-width="3" stroke-linecap="round" stroke-linejoin="round"></path>
                    <path d="M303.619882,42.7347975 C299.816035,46.3917855 293.589962,46.4461908 289.713398,42.857801 C285.83767,39.2686227 285.779162,33.3952068 289.583845,29.7390074 C293.387692,26.0828079 299.613765,26.0276141 303.489493,29.6160039 C307.365221,33.2051822 307.423729,39.0785981 303.619882,42.7347975 Z" id="Stroke-43" stroke="#222221" stroke-width="3" stroke-linecap="round" stroke-linejoin="round"></path>
                    <path d="M307.545174,46.3692348 C301.613313,52.0707613 291.905186,52.156706 285.861324,46.5608364 C279.816625,40.9649668 279.726356,31.8059388 285.658218,26.1044124 C291.59008,20.4028859 301.298206,20.3169412 307.342069,25.9135993 C313.386767,31.5094689 313.477036,40.6677084 307.545174,46.3692348 Z" id="Stroke-45" stroke="#222221" stroke-width="3" stroke-linecap="round" stroke-linejoin="round"></path>
                    <path d="M270.562353,42.971185 C270.562353,42.971185 275.192832,58.2732903 291.832469,60.4621214" id="Stroke-47" stroke="#222221" stroke-width="3" stroke-linecap="round" stroke-linejoin="round"></path>
                    <polygon id="Stroke-49" stroke="#222221" stroke-width="3" stroke-linecap="round" stroke-linejoin="round" points="290.88297 66.0882687 284.9929 71.750371 278.093151 65.3620752"></polygon>
                    <polygon id="Stroke-51" stroke="#222221" stroke-width="3" stroke-linecap="round" stroke-linejoin="round" points="265.546139 42.6296926 265.602975 53.7985658 259.656069 48.2917949"></polygon>
                    <path d="M620.526816,121.524279 C620.526816,128.725502 614.339192,134.562647 606.705587,134.562647 C599.072818,134.562647 592.884357,128.725502 592.884357,121.524279 C592.884357,114.323845 599.072818,108.485911 606.705587,108.485911 C614.339192,108.485911 620.526816,114.323845 620.526816,121.524279" id="Fill-53" fill="#FAD900"></path>
                    <mask id="mask-4" fill="white">
                        <use xlink:href="#path-3"></use>
                    </mask>
                    <g id="Clip-56"></g>
                    <polygon id="Fill-55" fill="#85B23F" mask="url(#mask-4)" points="562.257245 100.425241 574.793809 100.425241 574.793809 88.5987719 562.257245 88.5987719"></polygon>
                    <polygon id="Fill-57" fill="#85B23F" mask="url(#mask-4)" points="589.257789 83.6628633 601.794353 83.6628633 601.794353 71.8363946 589.257789 71.8363946"></polygon>
                    <polygon id="Fill-58" fill="#85B23F" mask="url(#mask-4)" points="562.442798 149.303352 574.979362 149.303352 574.979362 137.476883 562.442798 137.476883"></polygon>
                    <polygon id="Fill-59" fill="#85B23F" mask="url(#mask-4)" points="638.563203 109.982453 651.099767 109.982453 651.099767 98.1559842 638.563203 98.1559842"></polygon>
                    <path d="M633.470261,130.555651 C633.470261,135.955977 628.556436,140.333639 622.494185,140.333639 L598.819395,140.333639 C592.75798,140.333639 587.844155,135.955977 587.844155,130.555651 L587.844155,109.464498 C587.844155,104.064172 592.75798,99.6865101 598.819395,99.6865101 L622.494185,99.6865101 C628.556436,99.6865101 633.470261,104.064172 633.470261,109.464498 L633.470261,130.555651 Z" id="Stroke-60" stroke="#222221" stroke-width="3" stroke-linecap="round" stroke-linejoin="round" mask="url(#mask-4)"></path>
                    <path d="M623.168948,120.010075 C623.168948,127.211297 616.981323,133.048443 609.347718,133.048443 C601.714949,133.048443 595.526489,127.211297 595.526489,120.010075 C595.526489,112.80964 601.714949,106.971706 609.347718,106.971706 C616.981323,106.971706 623.168948,112.80964 623.168948,120.010075 Z" id="Stroke-61" stroke="#222221" stroke-width="3" stroke-linecap="round" stroke-linejoin="round" mask="url(#mask-4)"></path>
                    <polygon id="Stroke-62" stroke="#222221" stroke-width="3" stroke-linecap="round" stroke-linejoin="round" mask="url(#mask-4)" points="609.348053 118.812762 606.705169 127.153344 612.193207 127.153344"></polygon>
                    <path d="M612.193457,114.882249 C612.193457,116.31177 610.964792,117.470841 609.449438,117.470841 C607.934085,117.470841 606.70542,116.31177 606.70542,114.882249 C606.70542,113.452728 607.934085,112.293657 609.449438,112.293657 C610.964792,112.293657 612.193457,113.452728 612.193457,114.882249 Z" id="Stroke-63" stroke="#222221" stroke-width="3" stroke-linecap="round" stroke-linejoin="round" mask="url(#mask-4)"></path>
                    <path d="M647.356099,107.979546 L647.356099,118.812525 C647.356099,118.812525 647.453055,127.92109 633.470511,127.92109" id="Stroke-64" stroke="#222221" stroke-width="3" stroke-linecap="round" stroke-linejoin="round" mask="url(#mask-4)"></path>
                    <path d="M598.778607,81.5191335 L598.778607,86.8879197 C598.778607,86.8879197 598.372395,88.2299192 604.46975,89.5719186 C610.567106,90.9147066 612.193625,96.1872978 612.193625,99.686589" id="Stroke-65" stroke="#222221" stroke-width="3" stroke-linecap="round" stroke-linejoin="round" mask="url(#mask-4)"></path>
                    <path d="M571.181199,98.156615 L571.181199,104.528353 C571.181199,104.528353 569.510381,111.047537 578.046679,111.047537 L587.844239,111.047537" id="Stroke-66" stroke="#222221" stroke-width="3" stroke-linecap="round" stroke-linejoin="round" mask="url(#mask-4)"></path>
                    <path d="M587.844239,122.983053 L579.446689,122.983053 C579.446689,122.983053 571.049138,123.70215 571.049138,130.412936 C571.049138,137.12451 570.119699,135.206129 570.119699,135.206129" id="Stroke-67" stroke="#222221" stroke-width="3" stroke-linecap="round" stroke-linejoin="round" mask="url(#mask-4)"></path>
                    <polygon id="Stroke-68" stroke="#222221" stroke-width="3" stroke-linecap="round" stroke-linejoin="round" mask="url(#mask-4)" points="564.834934 147.28641 577.371498 147.28641 577.371498 135.459942 564.834934 135.459942"></polygon>
                    <polygon id="Stroke-69" stroke="#222221" stroke-width="3" stroke-linecap="round" stroke-linejoin="round" mask="url(#mask-4)" points="562.75289 98.1693884 575.289454 98.1693884 575.289454 86.3429197 562.75289 86.3429197"></polygon>
                    <polygon id="Stroke-70" stroke="#222221" stroke-width="3" stroke-linecap="round" stroke-linejoin="round" mask="url(#mask-4)" points="592.504976 81.457474 605.041539 81.457474 605.041539 69.6310054 592.504976 69.6310054"></polygon>
                    <polygon id="Stroke-71" stroke="#222221" stroke-width="3" stroke-linecap="round" stroke-linejoin="round" mask="url(#mask-4)" points="641.088235 107.629617 653.624799 107.629617 653.624799 95.8031485 641.088235 95.8031485"></polygon>
                    <path d="M169.008328,8.60906049 C169.008328,8.60906049 177.544626,-3.47051149 194.31298,5.15786685 C194.31298,5.15786685 190.959643,18.0472117 179.37425,15.5571798 C167.788857,13.067148 168.246054,8.96387821 168.246054,8.96387821 L169.008328,8.60906049 Z" id="Stroke-72" stroke="#222221" stroke-width="3" stroke-linecap="round" stroke-linejoin="round" mask="url(#mask-4)"></path>
                    <path d="M186.386501,8.96364166 C186.386501,11.3464397 184.338726,13.2782251 181.813694,13.2782251 C179.287826,13.2782251 177.24005,11.3464397 177.24005,8.96364166 C177.24005,6.58084358 179.287826,4.64984673 181.813694,4.64984673 C184.338726,4.64984673 186.386501,6.58084358 186.386501,8.96364166 Z" id="Stroke-73" stroke="#222221" stroke-width="3" stroke-linecap="round" stroke-linejoin="round" mask="url(#mask-4)"></path>
                    <path d="M183.579461,8.46429486 C183.579461,9.66357874 182.549723,10.6349908 181.27843,10.6349908 C180.007974,10.6349908 178.9774,9.66357874 178.9774,8.46429486 C178.9774,7.26501099 180.007974,6.29359893 181.27843,6.29359893 C182.549723,6.29359893 183.579461,7.26501099 183.579461,8.46429486" id="Fill-74" fill="#38AAE0" mask="url(#mask-4)"></path>
                    <path d="M393.43865,142.999345 C393.43865,142.999345 407.052594,101.703294 440.244942,102.989311" id="Stroke-75" stroke="#222221" stroke-width="3" stroke-linecap="round" stroke-linejoin="round" stroke-dasharray="5" mask="url(#mask-4)"></path>
                    <polygon id="Fill-76" fill="#3CB775" mask="url(#mask-4)" points="567.644064 197.211076 580.987201 210.396103 575.795046 228.105449 561.828382 216.044012"></polygon>
                    <polygon id="Stroke-77" stroke="#222221" stroke-width="3" stroke-linecap="round" stroke-linejoin="round" mask="url(#mask-4)" points="594.16359 223.615665 577.676073 226.274432 582.793004 209.706022 599.848047 205.206933"></polygon>
                    <polygon id="Stroke-78" stroke="#222221" stroke-width="3" stroke-linecap="round" stroke-linejoin="round" mask="url(#mask-4)" points="565.282687 215.678787 577.676324 226.274432 582.793255 209.706022 570.967144 197.270055"></polygon>
                    <polygon id="Stroke-79" stroke="#222221" stroke-width="3" stroke-linecap="round" stroke-linejoin="round" mask="url(#mask-4)" points="582.793004 209.706258 599.848047 205.206381 588.340386 192.258689 571.346358 197.073959"></polygon>
                    <path d="M484.041005,206.930401 C484.041005,206.930401 519.419039,189.500966 552.079802,207.778021" id="Stroke-80" stroke="#222221" stroke-width="3" stroke-linecap="round" stroke-linejoin="round" stroke-dasharray="5" mask="url(#mask-4)"></path>
                    <polygon id="Stroke-81" stroke="#222221" stroke-width="3" stroke-linecap="round" stroke-linejoin="round" mask="url(#mask-4)" points="390.518104 145.973112 399.933691 150.729246 390.474641 157.039482"></polygon>
                    <path d="M186.386501,8.96364166 C186.386501,11.3464397 184.338726,13.2782251 181.813694,13.2782251 C179.287826,13.2782251 177.24005,11.3464397 177.24005,8.96364166 C177.24005,6.58084358 179.287826,4.64984673 181.813694,4.64984673 C184.338726,4.64984673 186.386501,6.58084358 186.386501,8.96364166 Z" id="Stroke-82" stroke="#222221" stroke-width="3" stroke-linecap="round" stroke-linejoin="round" mask="url(#mask-4)"></path>
                    <path d="M186.386501,8.96364166 C186.386501,11.3464397 184.338726,13.2782251 181.813694,13.2782251 C179.287826,13.2782251 177.24005,11.3464397 177.24005,8.96364166 C177.24005,6.58084358 179.287826,4.64984673 181.813694,4.64984673 C184.338726,4.64984673 186.386501,6.58084358 186.386501,8.96364166 Z" id="Stroke-83" stroke="#222221" stroke-width="3" stroke-linecap="round" stroke-linejoin="round" mask="url(#mask-4)"></path>
                    <path d="M186.386501,8.96364166 C186.386501,11.3464397 184.338726,13.2782251 181.813694,13.2782251 C179.287826,13.2782251 177.24005,11.3464397 177.24005,8.96364166 C177.24005,6.58084358 179.287826,4.64984673 181.813694,4.64984673 C184.338726,4.64984673 186.386501,6.58084358 186.386501,8.96364166 Z" id="Stroke-84" stroke="#222221" stroke-width="3" stroke-linecap="round" stroke-linejoin="round" mask="url(#mask-4)"></path>
                    <path d="M38.8573303,199.425928 C38.8573303,199.425928 18.7648934,209.608407 3.2126669,187.294316 C3.2126669,187.294316 17.1258373,172.644286 30.4363767,183.521421 C43.7469162,194.398555 40.1160852,199.463775 40.1160852,199.463775 L38.8573303,199.425928 Z" id="Fill-85" fill="#F37322" mask="url(#mask-4)"></path>
                    <path d="M38.4228676,195.954785 C38.4228676,195.954785 18.3304307,206.137265 2.77820421,183.823173 C2.77820421,183.823173 16.6913746,169.173144 30.0019141,180.050278 C43.3124535,190.927412 39.6816225,195.992632 39.6816225,195.992632 L38.4228676,195.954785 Z" id="Stroke-86" stroke="#222221" stroke-width="3" stroke-linecap="round" stroke-linejoin="round" mask="url(#mask-4)"></path>
                    <path d="M15.9580203,184.060507 C17.7191071,180.944419 21.8246876,179.765636 25.1278745,181.426971 C28.4302256,183.088306 29.6806223,186.96055 27.9195355,190.076638 C26.1584488,193.192726 22.0528683,194.372298 18.7496813,192.710963 C15.4473303,191.049627 14.1969336,187.176595 15.9580203,184.060507" id="Fill-87" fill="#FEFEFE" mask="url(#mask-4)"></path>
                    <path d="M15.9580203,184.060507 C17.7191071,180.944419 21.8246876,179.765636 25.1278745,181.426971 C28.4302256,183.088306 29.6806223,186.96055 27.9195355,190.076638 C26.1584488,193.192726 22.0528683,194.372298 18.7496813,192.710963 C15.4473303,191.049627 14.1969336,187.176595 15.9580203,184.060507 Z" id="Stroke-88" stroke="#222221" stroke-width="3" stroke-linecap="round" stroke-linejoin="round" mask="url(#mask-4)"></path>
                    <path d="M18.9295512,185.555078 C19.8155275,183.987572 21.8808551,183.393844 23.5433144,184.229637 C25.2049377,185.06543 25.8343152,187.014562 24.948339,188.582067 C24.0615269,190.150362 21.9961992,190.743301 20.3345758,189.907509 C18.6721166,189.070927 18.043575,187.122584 18.9295512,185.555078 Z" id="Stroke-89" stroke="#222221" stroke-width="3" stroke-linecap="round" stroke-linejoin="round" mask="url(#mask-4)"></path>
                    <path d="M45.0919284,187.133228 L51.1633732,183.415527" id="Stroke-90" stroke="#222221" stroke-width="3" stroke-linecap="round" stroke-linejoin="round" mask="url(#mask-4)"></path>
                    <path d="M37.7839617,177.6976 L41.9313335,174.522376" id="Stroke-91" stroke="#222221" stroke-width="3" stroke-linecap="round" stroke-linejoin="round" mask="url(#mask-4)"></path>
                    <path d="M29.6132547,173.608523 L31.1018619,167.007337" id="Stroke-92" stroke="#222221" stroke-width="3" stroke-linecap="round" stroke-linejoin="round" mask="url(#mask-4)"></path>
                    <path d="M16.482418,170.97278 L17.7612328,165.301215" id="Stroke-93" stroke="#222221" stroke-width="3" stroke-linecap="round" stroke-linejoin="round" mask="url(#mask-4)"></path>
                    <path d="M4.96205208,174.14209 L1.25348923,169.270837" id="Stroke-94" stroke="#222221" stroke-width="3" stroke-linecap="round" stroke-linejoin="round" mask="url(#mask-4)"></path>
                    <polygon id="Fill-95" fill="#7E51A0" mask="url(#mask-4)" points="475.239917 163.556853 492.714545 172.875154 495.914089 167.535542 493.576282 166.288161 478.440298 158.216452"></polygon>
                    <polygon id="Stroke-96" stroke="#222221" stroke-width="3" stroke-linecap="round" stroke-linejoin="round" mask="url(#mask-4)" points="474.573847 161.448605 492.048475 170.766906 495.248019 165.427294 492.910212 164.180701 477.774227 156.108992"></polygon>
                    <polygon id="Stroke-97" stroke="#222221" stroke-width="3" stroke-linecap="round" stroke-linejoin="round" mask="url(#mask-4)" points="497.459115 147.917749 494.259571 146.21147 481.096137 157.880242 492.910546 164.180228"></polygon>
                    <polygon id="Fill-98" fill="#7E51A0" mask="url(#mask-4)" points="23.6157805 60.4341302 41.0904083 69.7524319 44.2899527 64.4128195 41.9521456 63.1654381 26.8161608 55.0937293"></polygon>
                    <polygon id="Stroke-99" stroke="#222221" stroke-width="3" stroke-linecap="round" stroke-linejoin="round" mask="url(#mask-4)" points="22.9498774 58.3258822 40.4236694 67.6441839 43.6240496 62.3045715 41.2862425 61.0579786 26.1502577 52.9862698"></polygon>
                    <polygon id="Stroke-100" stroke="#222221" stroke-width="3" stroke-linecap="round" stroke-linejoin="round" mask="url(#mask-4)" points="45.8351455 44.794948 42.6356011 43.0886691 29.4721671 54.757441 41.2865768 61.0574266"></polygon>
                    <polygon id="Fill-101" fill="#7E51A0" mask="url(#mask-4)" points="652.723695 315.535215 670.197487 324.853517 673.397867 319.513904 671.06006 318.267311 655.924075 310.195603"></polygon>
                    <polygon id="Stroke-102" stroke="#222221" stroke-width="3" stroke-linecap="round" stroke-linejoin="round" mask="url(#mask-4)" points="652.057624 313.426967 669.532252 322.746057 672.731797 317.405656 670.393989 316.159063 655.258005 308.087355"></polygon>
                    <polygon id="Stroke-103" stroke="#222221" stroke-width="3" stroke-linecap="round" stroke-linejoin="round" mask="url(#mask-4)" points="674.942892 299.896033 671.743348 298.189754 658.579914 309.858526 670.394324 316.158511"></polygon>
                    <path d="M574.747337,324.943088 L589.496334,328.331203 C589.496334,328.331203 584.687823,341.232375 578.94653,338.937099 C573.206072,336.641034 575.662567,331.071185 575.204534,328.007137 L574.747337,324.943088 Z" id="Fill-104" fill="#FCBE16" mask="url(#mask-4)"></path>
                    <polygon id="Stroke-105" stroke="#222221" stroke-width="3" stroke-linecap="round" stroke-linejoin="round" mask="url(#mask-4)" points="503.373508 273.192294 499.830439 282.697466 491.773906 274.844167"></polygon>
                    <path d="M600.734274,321.809969 C602.315658,320.218809 603.558532,318.138789 604.249761,315.461098 C604.345045,315.091299 604.419434,314.717557 604.483792,314.343816 C604.497166,314.288622 604.503852,314.25866 604.503852,314.25866 L604.498001,314.257871 C605.86207,306.05764 599.977015,296.939613 591.401434,294.969192 C582.404596,292.902576 572.377183,297.888159 570.186482,306.375399 C568.894294,311.379905 571.441893,316.673786 575.106993,320.48847 C575.107829,320.48847 578.350836,325.744503 577.670473,331.792174 C576.989275,337.839845 584.66885,340.152468 588.143381,334.197838 C591.292776,328.79909 593.754286,326.471485 597.438609,324.231403 C597.818075,324.03034 598.189182,323.812718 598.550259,323.57775 C598.573662,323.564346 598.595394,323.550941 598.617961,323.538326 C599.416175,323.084159 600.11827,322.484123 600.734274,321.809969 Z" id="Stroke-106" stroke="#222221" stroke-width="3" stroke-linecap="round" stroke-linejoin="round" mask="url(#mask-4)"></path>
                    <path d="M576.079059,323.289165 L593.369805,327.260758" id="Stroke-107" stroke="#222221" stroke-width="3" stroke-linecap="round" stroke-linejoin="round" mask="url(#mask-4)"></path>
                    <path d="M578.387362,328.054682 L589.515558,330.610947" id="Stroke-108" stroke="#222221" stroke-width="3" stroke-linecap="round" stroke-linejoin="round" mask="url(#mask-4)"></path>
                    <path d="M578.217605,332.278905 L587.618984,334.438562" id="Stroke-109" stroke="#222221" stroke-width="3" stroke-linecap="round" stroke-linejoin="round" mask="url(#mask-4)"></path>
                    <path d="M504.121239,277.945195 C504.121239,277.945195 537.153944,303.110445 570.186649,306.375556" id="Stroke-110" stroke="#222221" stroke-width="3" stroke-linecap="round" stroke-linejoin="round" stroke-dasharray="5" mask="url(#mask-4)"></path>
                    <path d="M580.539783,324.313642 L577.682927,309.357681 C577.682927,309.357681 584.647035,313.61234 588.124074,310.496251 C591.601113,307.379375 597.963425,313.663591 597.963425,313.663591 L587.374337,325.670622" id="Stroke-111" stroke="#222221" stroke-width="3" stroke-linecap="round" stroke-linejoin="round" mask="url(#mask-4)"></path>
                    <path d="M683.399118,178.324051 C683.717568,179.345137 678.30559,181.746859 671.310557,183.688895 C664.315524,185.630142 658.387841,186.376047 658.068555,185.354961 C657.750105,184.333874 663.162919,181.932153 670.157116,179.990117 C677.152149,178.04887 683.080668,177.302964 683.399118,178.324051" id="Fill-112" fill="#3CB775" mask="url(#mask-4)"></path>
                    <path d="M689.562504,208.979749 C690.125015,210.783012 686.42481,213.397624 681.29785,214.820837 C676.170889,216.243262 671.558797,215.935753 670.996286,214.133279 C670.433775,212.330805 674.134815,209.715405 679.261776,208.292191 C684.388737,206.868978 689.000828,207.177275 689.562504,208.979749 Z" id="Stroke-113" stroke="#222221" stroke-width="3" stroke-linecap="round" stroke-linejoin="round" mask="url(#mask-4)"></path>
                    <path d="M658.068806,187.173678 L670.996537,214.133516" id="Stroke-114" stroke="#222221" stroke-width="3" stroke-linecap="round" stroke-linejoin="round" mask="url(#mask-4)"></path>
                    <path d="M689.562504,208.979749 L683.399118,180.142531" id="Stroke-115" stroke="#222221" stroke-width="3" stroke-linecap="round" stroke-linejoin="round" mask="url(#mask-4)"></path>
                    <path d="M683.399118,180.142767 C683.717568,181.163854 678.30559,183.565576 671.310557,185.507611 C664.315524,187.448858 658.387841,188.194764 658.068555,187.173678 C657.750105,186.152591 663.162919,183.750869 670.157116,181.808834 C677.152149,179.867587 683.080668,179.121681 683.399118,180.142767 Z" id="Stroke-116" stroke="#222221" stroke-width="3" stroke-linecap="round" stroke-linejoin="round" mask="url(#mask-4)"></path>
                    <path d="M91.2924137,242.621278 C86.9385927,237.161817 80.9507306,234.480972 77.9200231,236.632744 L40.3705108,263.283497 C37.3398034,265.435269 38.4113332,271.605155 42.76599,277.063828 C47.119811,282.52329 53.1068373,285.204135 56.1383806,283.053151 L93.6870571,256.402398 C96.7186003,254.250626 95.6462347,248.08074 91.2924137,242.621278 Z" id="Stroke-117" stroke="#222221" stroke-width="3" stroke-linecap="round" stroke-linejoin="round" mask="url(#mask-4)"></path>
                    <path d="M93.6870571,256.402004 C90.6555138,258.553777 84.6684875,255.872143 80.3146665,250.412681 C75.9608455,244.954008 74.8884799,238.784122 77.9200231,236.63235 C80.9507306,234.480577 86.9385927,237.162211 91.2924137,242.620884 C95.6462347,248.080346 96.7186003,254.250232 93.6870571,256.402004 Z" id="Stroke-118" stroke="#222221" stroke-width="3" stroke-linecap="round" stroke-linejoin="round" mask="url(#mask-4)"></path>
                    <path d="M79.3884034,247.546937 C79.3884034,247.546937 75.7458708,244.460023 75.6673031,244.657932 C74.81476,246.813647 70.8521058,264.58686 56.4800665,265.680487 C38.5900329,267.042199 38.811527,268.657802 38.811527,268.657802 L42.225043,274.68103 C42.225043,274.68103 62.2088224,273.7656 70.6874479,262.72525 C79.1660735,251.684111 82.8863379,253.308388 82.8863379,253.308388" id="Fill-119" fill="#BD2D2D" mask="url(#mask-4)"></path>
                    <path d="M91.507054,255.167712 C90.6352868,255.786671 88.7630351,254.82551 87.3245774,253.022247 C85.8861198,251.218985 85.4264151,249.25566 86.2981823,248.6367 C87.1699495,248.018529 89.0664402,248.209342 90.5048978,250.013393 C91.9433555,251.816655 92.3788212,254.54954 91.507054,255.167712 Z" id="Stroke-120" stroke="#222221" stroke-width="3" stroke-linecap="round" stroke-linejoin="round" mask="url(#mask-4)"></path>
                    <path d="M85.3583788,255.079165 C85.3583788,255.079165 79.7073548,254.066752 71.2287293,265.107891 C62.7492679,276.149029 42.7654885,277.063671 42.7654885,277.063671 L39.3528083,271.041231 C39.3528083,271.041231 39.074478,267.891238 57.020512,268.063916 C74.5829016,268.232652 75.661118,246.820586 76.5136612,244.665659 C76.5922289,244.46775 79.9296847,249.930366 79.9296847,249.930366 C79.9296847,249.930366 82.3711344,253.553449 85.3583788,255.079165 Z" id="Stroke-121" stroke="#222221" stroke-width="3" stroke-linecap="round" stroke-linejoin="round" mask="url(#mask-4)"></path>
                    <path d="M668.086105,53.4320786 C668.086105,53.4320786 651.29184,53.1387626 657.201134,63.7005032 C663.109593,74.2630324 675.23493,66.3379816 680.136218,69.2001778 C680.136218,69.2001778 686.124916,50.2048143 681.303868,46.8308921 C676.483655,43.4569699 668.397032,43.4569699 668.086105,53.4320786" id="Fill-122" fill="#E63638" mask="url(#mask-4)"></path>
                    <path d="M670.844584,57.0661216 C670.844584,57.0661216 654.050319,56.7728056 659.959613,67.3345463 C665.868072,77.8970754 677.993409,69.9720246 682.894696,72.8342208 C682.894696,72.8342208 688.883394,53.8388573 684.062346,50.4649351 C679.242134,47.0910129 671.155511,47.0910129 670.844584,57.0661216 Z" id="Stroke-123" stroke="#222221" stroke-width="3" stroke-linecap="round" stroke-linejoin="round" mask="url(#mask-4)"></path>
                    <path d="M481.722422,25.0328629 C483.648166,25.0328629 485.20949,26.5057506 485.20949,28.3224173 C485.20949,30.1398725 483.648166,31.6119718 481.722422,31.6119718 C479.796677,31.6119718 478.235353,30.1398725 478.235353,28.3224173 C478.235353,26.5057506 479.796677,25.0328629 481.722422,25.0328629" id="Fill-124" fill="#3CB775" mask="url(#mask-4)"></path>
                    <path d="M481.722422,43.0790496 C483.648166,43.0790496 485.20949,44.5519373 485.20949,46.368604 C485.20949,48.1860592 483.648166,49.6581585 481.722422,49.6581585 C479.796677,49.6581585 478.235353,48.1860592 478.235353,46.368604 C478.235353,44.5519373 479.796677,43.0790496 481.722422,43.0790496" id="Fill-125" fill="#3CB775" mask="url(#mask-4)"></path>
                    <path d="M491.877632,43.0790496 C493.803376,43.0790496 495.364701,44.5519373 495.364701,46.368604 C495.364701,48.1860592 493.803376,49.6581585 491.877632,49.6581585 C489.951887,49.6581585 488.390563,48.1860592 488.390563,46.368604 C488.390563,44.5519373 489.951887,43.0790496 491.877632,43.0790496" id="Fill-126" fill="#3CB775" mask="url(#mask-4)"></path>
                    <path d="M502.032842,43.0790496 C503.958587,43.0790496 505.519911,44.5519373 505.519911,46.368604 C505.519911,48.1860592 503.958587,49.6581585 502.032842,49.6581585 C500.107097,49.6581585 498.545773,48.1860592 498.545773,46.368604 C498.545773,44.5519373 500.107097,43.0790496 502.032842,43.0790496" id="Fill-127" fill="#3CB775" mask="url(#mask-4)"></path>
                    <path d="M491.877632,25.0328629 C493.803376,25.0328629 495.364701,26.5057506 495.364701,28.3224173 C495.364701,30.1398725 493.803376,31.6119718 491.877632,31.6119718 C489.951887,31.6119718 488.390563,30.1398725 488.390563,28.3224173 C488.390563,26.5057506 489.951887,25.0328629 491.877632,25.0328629" id="Fill-128" fill="#3CB775" mask="url(#mask-4)"></path>
                    <path d="M502.032842,25.0328629 C503.958587,25.0328629 505.519911,26.5057506 505.519911,28.3224173 C505.519911,30.1398725 503.958587,31.6119718 502.032842,31.6119718 C500.107097,31.6119718 498.545773,30.1398725 498.545773,28.3224173 C498.545773,26.5057506 500.107097,25.0328629 502.032842,25.0328629" id="Fill-129" fill="#3CB775" mask="url(#mask-4)"></path>
                    <path d="M480.974357,42.5677178 C482.601711,42.5677178 483.921482,43.8127338 483.921482,45.3479117 C483.921482,46.8838782 482.601711,48.1281057 480.974357,48.1281057 C479.347002,48.1281057 478.027232,46.8838782 478.027232,45.3479117 C478.027232,43.8127338 479.347002,42.5677178 480.974357,42.5677178 Z" id="Stroke-130" stroke="#222221" stroke-width="3" stroke-linecap="round" stroke-linejoin="round" mask="url(#mask-4)"></path>
                    <path d="M491.337688,42.5677178 C492.965042,42.5677178 494.284813,43.8127338 494.284813,45.3479117 C494.284813,46.8838782 492.965042,48.1281057 491.337688,48.1281057 C489.710333,48.1281057 488.390563,46.8838782 488.390563,45.3479117 C488.390563,43.8127338 489.710333,42.5677178 491.337688,42.5677178 Z" id="Stroke-131" stroke="#222221" stroke-width="3" stroke-linecap="round" stroke-linejoin="round" mask="url(#mask-4)"></path>
                    <path d="M501.803073,42.5677178 C503.430428,42.5677178 504.750198,43.8127338 504.750198,45.3479117 C504.750198,46.8838782 503.430428,48.1281057 501.803073,48.1281057 C500.175719,48.1281057 498.855949,46.8838782 498.855949,45.3479117 C498.855949,43.8127338 500.175719,42.5677178 501.803073,42.5677178 Z" id="Stroke-132" stroke="#222221" stroke-width="3" stroke-linecap="round" stroke-linejoin="round" mask="url(#mask-4)"></path>
                    <path d="M480.974357,24.8206819 C482.601711,24.8206819 483.921482,26.0656978 483.921482,27.6008758 C483.921482,29.1360538 482.601711,30.3810697 480.974357,30.3810697 C479.347002,30.3810697 478.027232,29.1360538 478.027232,27.6008758 C478.027232,26.0656978 479.347002,24.8206819 480.974357,24.8206819 Z" id="Stroke-133" stroke="#222221" stroke-width="3" stroke-linecap="round" stroke-linejoin="round" mask="url(#mask-4)"></path>
                    <path d="M491.337688,24.8206819 C492.965042,24.8206819 494.284813,26.0656978 494.284813,27.6008758 C494.284813,29.1360538 492.965042,30.3810697 491.337688,30.3810697 C489.710333,30.3810697 488.390563,29.1360538 488.390563,27.6008758 C488.390563,26.0656978 489.710333,24.8206819 491.337688,24.8206819 Z" id="Stroke-134" stroke="#222221" stroke-width="3" stroke-linecap="round" stroke-linejoin="round" mask="url(#mask-4)"></path>
                    <path d="M501.803073,24.8206819 C503.430428,24.8206819 504.750198,26.0656978 504.750198,27.6008758 C504.750198,29.1360538 503.430428,30.3810697 501.803073,30.3810697 C500.175719,30.3810697 498.855949,29.1360538 498.855949,27.6008758 C498.855949,26.0656978 500.175719,24.8206819 501.803073,24.8206819 Z" id="Stroke-135" stroke="#222221" stroke-width="3" stroke-linecap="round" stroke-linejoin="round" mask="url(#mask-4)"></path>
                    <path d="M480.974357,42.5677178 L480.974357,30.380912" id="Stroke-136" stroke="#222221" stroke-width="3" stroke-linecap="round" stroke-linejoin="round" mask="url(#mask-4)"></path>
                    <path d="M491.337688,42.5677178 L491.337688,30.380912" id="Stroke-137" stroke="#222221" stroke-width="3" stroke-linecap="round" stroke-linejoin="round" mask="url(#mask-4)"></path>
                    <path d="M501.803073,42.5677178 L501.803073,30.380912" id="Stroke-138" stroke="#222221" stroke-width="3" stroke-linecap="round" stroke-linejoin="round" mask="url(#mask-4)"></path>
                    <path d="M168.716123,244.674096 C170.641868,244.674096 172.203192,246.146984 172.203192,247.96365 C172.203192,249.780317 170.641868,251.253205 168.716123,251.253205 C166.790378,251.253205 165.229054,249.780317 165.229054,247.96365 C165.229054,246.146984 166.790378,244.674096 168.716123,244.674096" id="Fill-139" fill="#3CB775" mask="url(#mask-4)"></path>
                    <path d="M168.716123,262.720283 C170.641868,262.720283 172.203192,264.19317 172.203192,266.009837 C172.203192,267.826504 170.641868,269.299392 168.716123,269.299392 C166.790378,269.299392 165.229054,267.826504 165.229054,266.009837 C165.229054,264.19317 166.790378,262.720283 168.716123,262.720283" id="Fill-140" fill="#3CB775" mask="url(#mask-4)"></path>
                    <path d="M178.871333,262.720283 C180.797078,262.720283 182.358402,264.19317 182.358402,266.009837 C182.358402,267.826504 180.797078,269.299392 178.871333,269.299392 C176.945589,269.299392 175.384264,267.826504 175.384264,266.009837 C175.384264,264.19317 176.945589,262.720283 178.871333,262.720283" id="Fill-141" fill="#3CB775" mask="url(#mask-4)"></path>
                    <path d="M189.026543,262.720283 C190.952288,262.720283 192.513612,264.19317 192.513612,266.009837 C192.513612,267.826504 190.952288,269.299392 189.026543,269.299392 C187.100799,269.299392 185.539475,267.826504 185.539475,266.009837 C185.539475,264.19317 187.100799,262.720283 189.026543,262.720283" id="Fill-142" fill="#3CB775" mask="url(#mask-4)"></path>
                    <path d="M178.871333,244.674096 C180.797078,244.674096 182.358402,246.146984 182.358402,247.96365 C182.358402,249.780317 180.797078,251.253205 178.871333,251.253205 C176.945589,251.253205 175.384264,249.780317 175.384264,247.96365 C175.384264,246.146984 176.945589,244.674096 178.871333,244.674096" id="Fill-143" fill="#3CB775" mask="url(#mask-4)"></path>
                    <path d="M189.026543,244.674096 C190.952288,244.674096 192.513612,246.146984 192.513612,247.96365 C192.513612,249.780317 190.952288,251.253205 189.026543,251.253205 C187.100799,251.253205 185.539475,249.780317 185.539475,247.96365 C185.539475,246.146984 187.100799,244.674096 189.026543,244.674096" id="Fill-144" fill="#3CB775" mask="url(#mask-4)"></path>
                    <path d="M167.968058,262.208951 C169.596248,262.208951 170.915183,263.453967 170.915183,264.989145 C170.915183,266.524323 169.596248,267.769339 167.968058,267.769339 C166.340704,267.769339 165.020933,266.524323 165.020933,264.989145 C165.020933,263.453967 166.340704,262.208951 167.968058,262.208951 Z" id="Stroke-145" stroke="#222221" stroke-width="3" stroke-linecap="round" stroke-linejoin="round" mask="url(#mask-4)"></path>
                    <path d="M178.331222,262.208951 C179.959412,262.208951 181.278347,263.453967 181.278347,264.989145 C181.278347,266.524323 179.959412,267.769339 178.331222,267.769339 C176.703868,267.769339 175.384097,266.524323 175.384097,264.989145 C175.384097,263.453967 176.703868,262.208951 178.331222,262.208951 Z" id="Stroke-146" stroke="#222221" stroke-width="3" stroke-linecap="round" stroke-linejoin="round" mask="url(#mask-4)"></path>
                    <path d="M188.796775,262.208951 C190.424129,262.208951 191.743899,263.453967 191.743899,264.989145 C191.743899,266.524323 190.424129,267.769339 188.796775,267.769339 C187.168584,267.769339 185.84965,266.524323 185.84965,264.989145 C185.84965,263.453967 187.168584,262.208951 188.796775,262.208951 Z" id="Stroke-147" stroke="#222221" stroke-width="3" stroke-linecap="round" stroke-linejoin="round" mask="url(#mask-4)"></path>
                    <path d="M167.968058,244.461521 C169.596248,244.461521 170.915183,245.706537 170.915183,247.241715 C170.915183,248.777681 169.596248,250.021909 167.968058,250.021909 C166.340704,250.021909 165.020933,248.777681 165.020933,247.241715 C165.020933,245.706537 166.340704,244.461521 167.968058,244.461521 Z" id="Stroke-148" stroke="#222221" stroke-width="3" stroke-linecap="round" stroke-linejoin="round" mask="url(#mask-4)"></path>
                    <path d="M178.331222,244.461521 C179.959412,244.461521 181.278347,245.706537 181.278347,247.241715 C181.278347,248.777681 179.959412,250.021909 178.331222,250.021909 C176.703868,250.021909 175.384097,248.777681 175.384097,247.241715 C175.384097,245.706537 176.703868,244.461521 178.331222,244.461521 Z" id="Stroke-149" stroke="#222221" stroke-width="3" stroke-linecap="round" stroke-linejoin="round" mask="url(#mask-4)"></path>
                    <path d="M188.796775,244.461521 C190.424129,244.461521 191.743899,245.706537 191.743899,247.241715 C191.743899,248.777681 190.424129,250.021909 188.796775,250.021909 C187.168584,250.021909 185.84965,248.777681 185.84965,247.241715 C185.84965,245.706537 187.168584,244.461521 188.796775,244.461521 Z" id="Stroke-150" stroke="#222221" stroke-width="3" stroke-linecap="round" stroke-linejoin="round" mask="url(#mask-4)"></path>
                    <path d="M167.968058,262.208951 L167.968058,250.022145" id="Stroke-151" stroke="#222221" stroke-width="3" stroke-linecap="round" stroke-linejoin="round" mask="url(#mask-4)"></path>
                    <path d="M178.331222,262.208951 L178.331222,250.022145" id="Stroke-152" stroke="#222221" stroke-width="3" stroke-linecap="round" stroke-linejoin="round" mask="url(#mask-4)"></path>
                    <path d="M188.796775,262.208951 L188.796775,250.022145" id="Stroke-153" stroke="#222221" stroke-width="3" stroke-linecap="round" stroke-linejoin="round" mask="url(#mask-4)"></path>
                    <path d="M389.628032,38.9718374 C390.780637,39.6341638 391.730136,40.1734867 392.066974,40.3374914 C391.896466,40.2625854 391.746853,40.1553516 391.605598,40.0355021 L392.05193,40.2759896 L392.066974,40.3374914 C392.233304,40.4187052 392.419693,40.499919 392.614441,40.5787674 L392.623635,40.5834983 L392.624471,40.5819213 C393.605731,40.9761632 394.900427,41.2568635 396.097331,40.6544618 L404.574284,36.1798162 L400.252225,28.8910719 L390.538247,34.0185821 L390.548277,34.0580063 C390.544934,34.0595833 390.541591,34.0611602 390.537412,34.0635257 L390.63186,27.5285718 L392.250856,27.5490724 L386.267173,23.1761412 L380.159788,27.3937411 L381.778784,27.4158187 L381.65341,32.6639669 C381.642544,33.4272192 382.229295,34.8669907 383.434557,35.4544111 C384.236115,35.8462876 387.337867,37.6550694 389.626361,38.9702604 L389.628032,38.9718374 Z" id="Fill-154" fill="#FEC315" mask="url(#mask-4)"></path>
                    <path d="M386.645886,72.8369805 C387.473355,74.4778153 386.733648,76.4403516 384.995129,77.2209505 C383.255773,78.0015495 381.175401,77.3045298 380.347933,75.663695 C379.520464,74.0228602 380.259335,72.060324 381.99869,71.279725 C383.738045,70.499126 385.818418,71.1961457 386.645886,72.8369805" id="Fill-155" fill="#3CB775" mask="url(#mask-4)"></path>
                    <path d="M369.371523,80.5897476 C370.198991,82.2305824 369.46012,84.1931186 367.720765,84.9737176 C365.98141,85.7543166 363.901037,85.0572969 363.073569,83.4164621 C362.2461,81.7756273 362.984971,79.8130911 364.724326,79.0324921 C366.463682,78.2518931 368.544054,78.9489128 369.371523,80.5897476" id="Fill-156" fill="#3CB775" mask="url(#mask-4)"></path>
                    <path d="M373.734287,89.2407554 C374.561755,90.8815903 373.822049,92.8441265 372.083529,93.6247254 C370.344174,94.4053244 368.263802,93.7083047 367.436333,92.0666814 C366.608865,90.4266351 367.347736,88.4640989 369.087091,87.6834999 C370.826446,86.9029009 372.906819,87.5999206 373.734287,89.2407554" id="Fill-157" fill="#3CB775" mask="url(#mask-4)"></path>
                    <path d="M378.097051,97.891369 C378.92452,99.5322038 378.184813,101.49474 376.446294,102.275339 C374.706938,103.055938 372.626566,102.358918 371.799098,100.718083 C370.971629,99.0772487 371.7105,97.1147125 373.449855,96.3341135 C375.18921,95.5535145 377.269583,96.2505342 378.097051,97.891369" id="Fill-158" fill="#3CB775" mask="url(#mask-4)"></path>
                    <path d="M391.008734,81.4879884 C391.836203,83.1288232 391.096496,85.0913594 389.357977,85.8719584 C387.618621,86.6525573 385.538249,85.9547492 384.71078,84.3139143 C383.883312,82.673868 384.622183,80.7113318 386.361538,79.9307328 C388.100893,79.1501339 390.181266,79.8471536 391.008734,81.4879884" id="Fill-159" fill="#3CB775" mask="url(#mask-4)"></path>
                    <path d="M395.371499,90.138602 C396.198967,91.7794368 395.45926,93.741973 393.720741,94.5225719 C391.981386,95.3031709 389.901013,94.6061512 389.073545,92.9653164 C388.246076,91.3244816 388.984947,89.3619454 390.724302,88.5813464 C392.463658,87.8007475 394.54403,88.4977671 395.371499,90.138602" id="Fill-160" fill="#3CB775" mask="url(#mask-4)"></path>
                    <path d="M369.539607,79.7327446 C370.238358,81.1196876 369.613996,82.777869 368.144613,83.43783 C366.674394,84.0977909 364.915814,83.508005 364.217063,82.1218505 C363.517476,80.7349075 364.141839,79.0759375 365.612058,78.4167651 C367.082277,77.7568041 368.840856,78.34659 369.539607,79.7327446 Z" id="Stroke-161" stroke="#222221" stroke-width="3" stroke-linecap="round" stroke-linejoin="round" mask="url(#mask-4)"></path>
                    <path d="M373.991805,88.5608458 C374.690556,89.9477889 374.066194,91.6059703 372.59681,92.2659313 C371.126591,92.9258922 369.368012,92.3361063 368.669261,90.9499518 C367.969674,89.5630088 368.594037,87.9040388 370.064256,87.2448664 C371.534475,86.5849054 373.293054,87.1746913 373.991805,88.5608458 Z" id="Stroke-162" stroke="#222221" stroke-width="3" stroke-linecap="round" stroke-linejoin="round" mask="url(#mask-4)"></path>
                    <path d="M378.487633,97.4759169 C379.18722,98.8628599 378.562022,100.521041 377.092638,101.181002 C375.622419,101.840963 373.864676,101.251177 373.165089,99.8650229 C372.465502,98.4780798 373.0907,96.8191099 374.560084,96.1599374 C376.030303,95.4999765 377.788882,96.0897624 378.487633,97.4759169 Z" id="Stroke-163" stroke="#222221" stroke-width="3" stroke-linecap="round" stroke-linejoin="round" mask="url(#mask-4)"></path>
                    <path d="M386.527951,72.1085792 C387.226702,73.4947337 386.60234,75.1537037 385.132957,75.8136646 C383.662737,76.4736256 381.904158,75.8838397 381.205407,74.4976851 C380.50582,73.1107421 381.130183,71.4517722 382.600402,70.7925997 C384.070621,70.1326388 385.828364,70.7216362 386.527951,72.1085792 Z" id="Stroke-164" stroke="#222221" stroke-width="3" stroke-linecap="round" stroke-linejoin="round" mask="url(#mask-4)"></path>
                    <path d="M390.980149,80.9366016 C391.6789,82.3227562 391.054538,83.9817261 389.585154,84.6416871 C388.114935,85.3008595 386.356356,84.7118621 385.657605,83.3249191 C384.958018,81.9387646 385.58238,80.2797946 387.0526,79.6206222 C388.522819,78.9606612 390.280562,79.5496586 390.980149,80.9366016 Z" id="Stroke-165" stroke="#222221" stroke-width="3" stroke-linecap="round" stroke-linejoin="round" mask="url(#mask-4)"></path>
                    <path d="M395.475977,89.8517515 C396.175564,91.2379061 395.550366,92.896876 394.080982,93.556837 C392.610763,94.2167979 390.85302,93.627012 390.153433,92.2408575 C389.453846,90.8539145 390.078208,89.1949445 391.548428,88.5357721 C393.018647,87.8758111 394.777226,88.4648085 395.475977,89.8517515 Z" id="Stroke-166" stroke="#222221" stroke-width="3" stroke-linecap="round" stroke-linejoin="round" mask="url(#mask-4)"></path>
                    <path d="M369.539607,79.7327446 L381.20524,74.497212" id="Stroke-167" stroke="#222221" stroke-width="3" stroke-linecap="round" stroke-linejoin="round" mask="url(#mask-4)"></path>
                    <path d="M373.991805,88.5608458 L385.657438,83.3253133" id="Stroke-168" stroke="#222221" stroke-width="3" stroke-linecap="round" stroke-linejoin="round" mask="url(#mask-4)"></path>
                    <path d="M378.487633,97.4759169 L390.153266,92.2403844" id="Stroke-169" stroke="#222221" stroke-width="3" stroke-linecap="round" stroke-linejoin="round" mask="url(#mask-4)"></path>
                    <path d="M387.642108,34.4057276 L397.585938,29.6913829 L401.561965,37.1535937 L392.883577,41.2679023 C391.411686,41.9310171 389.85287,41.3144228 388.871609,40.7829847" id="Stroke-170" stroke="#222221" stroke-width="3" stroke-linecap="round" stroke-linejoin="round" mask="url(#mask-4)"></path>
                    <path d="M388.871776,40.7829059 C387.891352,40.2514678 381.653577,36.1828913 380.476733,35.5434309 C379.299889,34.904759 378.780841,33.4429101 378.829319,32.6796577 L379.202098,27.4425483 L377.585609,27.3534496 L383.883563,23.3960493 L389.655782,28.0134105 L388.040129,27.9251004 L387.449199,37.5501222 C387.37899,38.6934238 387.790217,40.2451599 388.871776,40.7829059 Z" id="Stroke-171" stroke="#222221" stroke-width="3" stroke-linecap="round" stroke-linejoin="round" mask="url(#mask-4)"></path>
                    <path d="M420.525033,22.3763032 C420.616974,21.1060558 420.686348,20.0621032 420.685512,19.7049201 C420.693034,19.8823289 420.662109,20.0573723 420.613631,20.2308388 L420.634526,19.7459212 L420.685512,19.7049201 C420.685512,19.5282997 420.675482,19.3351212 420.659601,19.1364232 L420.660437,19.1253845 L420.658765,19.1253845 C420.576854,18.1224331 420.244195,16.909745 419.125023,16.1843399 L411.007475,11.1522362 L406.144636,18.1303179 L415.445714,23.898077 L415.478312,23.872057 C415.481655,23.873634 415.485834,23.8759994 415.489177,23.8783649 L409.298209,26.8123131 L408.571876,25.4482362 L407.217001,32.4736269 L414.00057,35.6401779 L413.274237,34.2753124 L418.269137,31.960324 C418.992127,31.6173335 420.075358,30.4629932 420.072015,29.1824955 C420.071179,28.330933 420.342823,24.9010284 420.525033,22.3786687 L420.525033,22.3763032 Z" id="Fill-172" fill="#FEC315" mask="url(#mask-4)"></path>
                    <path d="M388.584921,2.93489444 C387.337867,3.4237544 386.317323,3.83061205 385.977977,3.98988578 C386.143471,3.90472953 386.323174,3.85347808 386.509563,3.81641934 L386.039828,4.01511726 L385.977977,3.98988578 C385.810812,4.06873416 385.631945,4.1641407 385.450571,4.26585511 L385.439705,4.26979753 L385.440541,4.2713745 C384.526146,4.7878314 383.522319,5.60943153 383.333422,6.8773135 L382.176638,15.9756282 L390.966191,16.9714832 L392.293483,6.54536181 L392.253364,6.52959214 C392.2542,6.52564972 392.2542,6.52249578 392.255035,6.51855336 L397.799074,10.4381064 L396.827843,11.6594678 L404.097863,9.67170012 L404.079475,2.53197921 L403.107409,3.75412912 L398.684214,0.568654525 C398.037284,0.109756947 396.458408,-0.290004346 395.244787,0.283223385 C394.437379,0.664061066 391.061475,1.96427087 388.587428,2.93410596 L388.584921,2.93489444 Z" id="Fill-173" fill="#FEC315" mask="url(#mask-4)"></path>
                    <path d="M412.774914,24.3875677 L403.473835,18.6198087 L408.336674,11.6409384 L416.453387,16.6738306 C417.799068,17.5451052 418.01304,19.1268037 418.014711,20.1936223" id="Stroke-174" stroke="#222221" stroke-width="3" stroke-linecap="round" stroke-linejoin="round" mask="url(#mask-4)"></path>
                    <path d="M418.014711,20.1937012 C418.015547,21.2613083 417.399543,28.3907789 417.401215,29.6720651 C417.404558,30.9517743 416.321326,32.1061146 415.597501,32.4491051 L410.602601,34.7640935 L411.328934,36.128959 L404.545365,32.962408 L405.90024,25.9370173 L406.627409,27.3018827 L415.757979,22.9731066 C416.842882,22.4590152 418.061518,21.3464645 418.014711,20.1937012 Z" id="Stroke-175" stroke="#222221" stroke-width="3" stroke-linecap="round" stroke-linejoin="round" mask="url(#mask-4)"></path>
                    <path d="M393.769219,3.03763388 C394.94272,2.39580806 396.544999,2.70410523 397.222019,3.12279013 L401.84414,6.04569962 L402.732624,4.7707213 L403.217403,11.8946725 L396.091981,14.3019136 L396.981301,13.0253583 L391.244187,9.46693088" id="Stroke-176" stroke="#222221" stroke-width="3" stroke-linecap="round" stroke-linejoin="round" mask="url(#mask-4)"></path>
                    <path d="M384.762017,7.27541897 C383.782428,7.81079948 382.437583,8.77669215 382.309701,10.3110816 L381.748026,19.4590708 L390.586893,19.9424114 L391.410182,6.50822423 C391.48457,5.26951616 392.30786,3.7232994 393.768885,3.03731849 C392.286128,3.78401266 388.739716,5.40513537 384.762017,7.27541897 Z" id="Stroke-177" stroke="#222221" stroke-width="3" stroke-linecap="round" stroke-linejoin="round" mask="url(#mask-4)"></path>
                    <polygon id="Stroke-178" stroke="#222221" stroke-width="3" stroke-linecap="round" stroke-linejoin="round" mask="url(#mask-4)" points="196.151882 307.25306 206.736791 308.597425 200.219015 317.633449"></polygon>
                    <path d="M196.801821,311.546197 C196.801821,311.546197 171.060032,330.418557 135.950297,324.08782" id="Stroke-179" stroke="#222221" stroke-width="3" stroke-linecap="round" stroke-linejoin="round" stroke-dasharray="5" mask="url(#mask-4)"></path>
                    <polyline id="Fill-180" fill="#B0B1B0" mask="url(#mask-4)" points="140.926976 303.436562 132.796055 333.809747 115.151754 330.990917 115.710086 300.355167"></polyline>
                    <path d="M129.553549,302.873269 L129.8837,300.60007 C130.004895,299.763489 129.384712,298.992352 128.497064,298.877233 L122.072064,298.046959 C121.185252,297.932629 120.367814,298.518473 120.245783,299.355054 L119.915632,301.627464" id="Stroke-181" stroke="#222221" stroke-width="3" stroke-linecap="round" stroke-linejoin="round" mask="url(#mask-4)"></path>
                    <path d="M112.68757,300.693742 L111.096992,332.463332 C111.063559,333.132754 111.596816,333.743041 112.287209,333.83214 L127.721584,335.826215 C128.412813,335.915314 129.099862,335.463513 129.258669,334.809859 L136.781945,303.807464" id="Stroke-182" stroke="#222221" stroke-width="3" stroke-linecap="round" stroke-linejoin="round" mask="url(#mask-4)"></path>
                    <path d="M138.388069,304.014836 L111.081613,300.486371" id="Stroke-183" stroke="#222221" stroke-width="3" stroke-linecap="round" stroke-linejoin="round" mask="url(#mask-4)"></path>
                    <path d="M124.1847,306.038716 L120.554705,331.040749" id="Stroke-184" stroke="#222221" stroke-width="3" stroke-linecap="round" stroke-linejoin="round" mask="url(#mask-4)"></path>
                    <path d="M119.365825,305.416208 L115.73583,330.418241" id="Stroke-185" stroke="#222221" stroke-width="3" stroke-linecap="round" stroke-linejoin="round" mask="url(#mask-4)"></path>
                    <path d="M129.003575,306.661303 L125.372744,331.663336" id="Stroke-186" stroke="#222221" stroke-width="3" stroke-linecap="round" stroke-linejoin="round" mask="url(#mask-4)"></path>
                    <path d="M115.827436,128.658796 C115.241522,129.209158 108.081831,128.594929 107.331258,127.890024 C106.583194,127.181966 105.923726,120.626511 106.670955,119.918453 C107.419856,119.21276 113.448674,113.527003 113.448674,113.527003 C113.448674,113.527003 114.166649,112.768482 113.13106,112.765328 C109.796111,112.7535 103.017557,112.824464 99.7335942,115.924782 L99.0565746,116.5603 C94.7771422,120.623357 94.8933221,126.958825 99.0992018,130.948553 L104.193565,135.752785 C108.403624,139.73857 115.101103,139.851324 119.396416,135.793786 L120.069257,135.157479 C123.252085,132.157298 123.34904,125.816312 123.363249,122.61349 C123.372444,121.592404 122.580916,122.250788 122.580916,122.250788 C122.580916,122.250788 116.410008,128.106069 115.827436,128.658796 Z" id="Stroke-187" stroke="#222221" stroke-width="3" stroke-linecap="round" stroke-linejoin="round" mask="url(#mask-4)"></path>
                    <path d="M96.4193744,129.199301 L74.7447177,147.90608 C73.219334,149.345851 71.2100068,153.263827 74.7447177,156.599902 C78.2811002,159.935977 82.433487,158.038885 83.957199,156.599902 C83.957199,156.599902 103.111003,136.093804 103.625872,136.325618" id="Stroke-188" stroke="#222221" stroke-width="3" stroke-linecap="round" stroke-linejoin="round" mask="url(#mask-4)"></path>
                    <polygon id="Stroke-189" stroke="#222221" stroke-width="3" stroke-linecap="round" stroke-linejoin="round" mask="url(#mask-4)" points="234.457316 191.926895 241.789187 199.253486 230.696932 202.409787"></polygon>
                    <path d="M160.763316,179.252648 C160.763316,179.252648 205.725775,175.243996 233.181844,197.171731" id="Stroke-190" stroke="#222221" stroke-width="3" stroke-linecap="round" stroke-linejoin="round" stroke-dasharray="5" mask="url(#mask-4)"></path>
                    <polygon id="Fill-191" fill="#E63638" mask="url(#mask-4)" points="123.142591 185.801164 132.906718 200.62939 148.786589 192.057783 139.269031 176.878681"></polygon>
                    <polygon id="Fill-192" fill="#E63638" mask="url(#mask-4)" points="147.201778 196.816046 156.965069 211.644273 158.909202 210.245502 148.216471 195.940829"></polygon>
                    <polygon id="Fill-193" fill="#E63638" mask="url(#mask-4)" points="136.09406 203.43111 145.857351 218.259336 147.801483 216.859778 137.108753 202.555893"></polygon>
                    <polygon id="Fill-194" fill="#E63638" mask="url(#mask-4)" points="115.363469 169.14058 122.262382 179.618741 134.076792 173.241484 126.591964 163.032984"></polygon>
                    <path d="M156.017576,211.608554 C156.724685,211.208793 157.431795,210.809032 158.138904,210.40927 C158.433951,210.242112 158.658788,210.061549 158.448996,209.686231 C158.242546,209.315643 157.970903,209.175293 157.567198,209.401588 C156.189756,210.173514 154.816493,210.954113 153.438215,211.726827 C153.050391,211.94366 152.965137,212.195975 153.215885,212.577601 C153.496723,213.004959 153.79762,212.86934 154.133623,212.67695 C154.760493,212.318978 155.38987,211.965737 156.017576,211.608554 M144.533318,218.105661 C145.201143,217.727977 145.868969,217.350293 146.53763,216.97261 C146.864438,216.788104 147.166172,216.611484 146.898707,216.169145 C146.670526,215.793038 146.405569,215.702362 146.006044,215.930234 C144.634453,216.713199 143.257846,217.488278 141.884583,218.268089 C141.490909,218.492018 141.457476,218.774295 141.712403,219.132267 C141.956464,219.476834 142.2256,219.409025 142.529005,219.237135 C143.195995,218.857874 143.86382,218.480979 144.533318,218.105661 M152.309013,202.346235 C151.555097,201.160355 150.801182,199.974476 150.047266,198.787808 C148.826959,196.867849 148.848691,196.903331 146.754945,198.054518 C145.945865,198.499222 145.781207,198.847732 146.306106,199.640947 C148.052984,202.279214 149.717115,204.967155 151.413007,207.635384 C152.646687,209.576632 152.624955,209.541938 154.705328,208.389175 C155.519423,207.938951 155.684081,207.557325 155.150824,206.78461 C154.152847,205.336166 153.25099,203.829373 152.309013,202.346235 M140.861531,208.770801 C140.131855,207.62198 139.401342,206.472371 138.67083,205.322761 C137.398701,203.320801 137.424612,203.362591 135.298269,204.530335 C134.438203,205.001848 134.417308,205.397667 134.902087,206.138054 C136.613024,208.747935 138.241215,211.405914 139.942122,214.022103 C141.422371,216.298456 140.740336,216.173087 143.32722,214.822414 C144.210689,214.361151 144.201494,213.939312 143.704178,213.210753 C142.711216,211.758366 141.804344,210.253939 140.861531,208.770801 M122.378896,199.855415 C121.106768,197.852666 119.838819,195.846763 118.55499,193.850322 C118.377794,193.572776 118.243226,193.05553 117.842029,193.180111 C116.975277,193.449772 116.129421,193.860572 115.560223,194.559169 C115.081294,195.146589 115.52679,195.696163 115.860284,196.219716 C118.055165,199.666967 120.245867,203.117372 122.43824,206.566989 C123.662726,208.494832 123.639323,208.456985 125.710501,207.323145 C126.528776,206.875286 126.675045,206.521257 126.146803,205.740658 C124.83957,203.809661 123.629293,201.820316 122.378896,199.855415 M149.478068,184.422421 C150.539568,186.09243 151.601068,187.763227 152.662568,189.433236 C153.90377,191.387099 153.872009,191.33427 155.928142,190.239855 C156.865104,189.742321 156.852567,189.346502 156.334354,188.551711 C154.025801,185.012995 151.785785,181.434856 149.521531,177.870909 C148.320448,175.979336 148.101462,175.955682 146.118045,177.050097 C145.359114,177.468782 145.20783,177.792849 145.706818,178.531658 C147.013215,180.465021 148.226836,182.455154 149.478068,184.422421 M120.333629,167.560695 C119.270457,168.161519 118.202271,168.752882 117.147457,169.366323 C116.176227,169.930877 114.68762,170.344831 114.396752,171.140411 C114.054899,172.076341 115.283564,173.103736 115.934673,174.014435 C116.583274,174.922768 116.334198,175.360377 115.404759,175.774331 C115.081294,175.917835 114.588992,176.014818 114.68344,176.571488 C114.875681,177.69902 115.850254,178.197341 116.870799,177.561035 C117.681551,177.055617 118.04012,177.301624 118.440481,177.996278 C119.053978,179.060731 119.793685,180.05974 120.39548,181.128924 C120.804199,181.855118 121.200381,181.866945 121.89746,181.462453 C124.593001,179.895735 127.330334,178.393674 130.031725,176.83563 C131.119972,176.207997 132.823386,175.85239 133.118433,174.852593 C133.441062,173.759754 132.056097,172.686628 131.383257,171.63006 C130.72379,170.596357 130.045934,169.736122 131.833768,169.089565 C132.664579,168.789941 132.12965,168.219867 131.838782,167.824837 C131.571318,167.462134 131.415854,166.582186 130.702058,167.144375 C129.109808,168.398853 128.567357,167.321784 127.956368,166.202137 C127.70562,165.740874 127.345378,165.329286 127.123884,164.857772 C126.756956,164.07875 126.317312,164.137886 125.637785,164.543167 C123.892578,165.583177 122.104745,166.55932 120.333629,167.560695 M130.43543,183.305139 C128.072548,184.64162 125.71886,185.992292 123.34344,187.306695 C122.388091,187.834979 122.226776,188.480747 122.782601,189.354387 C125.57259,193.735203 128.3584,198.118385 131.140031,202.503932 C131.69502,203.379149 132.374547,203.539999 133.319867,203.001465 C137.957034,200.359256 142.601722,197.728874 147.261456,195.122146 C148.267791,194.55838 148.439971,193.906304 147.84737,192.978259 C145.075769,188.637655 142.314198,184.291533 139.561821,179.939891 C138.972563,179.00948 138.276319,178.839956 137.28085,179.42028 C135.014924,180.740202 132.718908,182.012814 130.43543,183.305139 M155.425811,182.652275 C156.748924,184.732295 158.111322,186.791026 159.364226,188.907317 C159.675153,189.433236 160.726623,189.912634 159.850677,190.768139 C159.838975,190.779177 160.025365,191.040166 160.161604,191.10561 C161.209731,191.607874 161.664421,192.572978 162.294634,193.419021 C162.886399,194.213024 162.599711,194.554438 161.826571,195.003085 C161.013312,195.475387 160.585368,195.42729 160.129843,194.604901 C159.617481,193.679221 159.177836,192.484668 157.582243,193.329923 C156.090293,194.120772 155.918112,194.57415 156.832507,195.981594 C157.32648,196.741692 157.905708,197.379575 156.555848,197.993804 C155.759305,198.356507 155.382348,198.362026 154.964434,197.599562 C154.459595,196.681767 153.764187,195.851494 153.790934,194.739732 C153.795113,194.5844 153.661381,194.285565 153.647171,194.288719 C152.340774,194.559169 152.36167,193.387482 151.983876,192.813466 C149.564994,189.132823 147.239724,185.396987 144.860962,181.693479 C144.641139,181.350488 144.544183,180.639276 143.803641,181.04771 C143.078143,181.447472 143.638147,181.880349 143.862985,182.237532 C145.806282,185.329966 147.766295,188.412938 149.734667,191.491178 C150.340641,192.438147 150.817062,193.408771 150.569658,194.550496 C150.465179,195.030682 150.707569,195.384711 150.944108,195.756876 C153.117257,199.173376 155.285392,202.592242 157.465228,206.005588 C157.647438,206.29102 157.736035,206.711281 158.14559,206.772783 C160.230142,207.088177 160.636354,208.89617 161.615107,210.195591 C162.000423,210.708106 161.829914,211.029807 161.283284,211.334162 C158.634549,212.810204 155.993337,214.297284 153.370513,215.813538 C152.76621,216.162048 152.461969,215.986216 152.196176,215.468971 C151.460649,214.038661 149.926071,212.874071 150.568822,210.976979 C150.639031,210.768819 150.343149,210.431348 150.180998,210.175091 C148.202597,207.051118 146.190762,203.947646 144.254987,200.800807 C143.758506,199.995765 143.366504,199.964225 142.559095,200.425488 C139.507492,202.168826 139.48994,202.142018 141.328758,205.035753 C142.674439,207.152832 144.019284,209.2707 145.365801,211.387779 C145.968432,212.334748 146.543481,213.173695 147.762116,213.70119 C149.164633,214.308323 149.533233,215.936542 150.312223,217.142922 C150.547926,217.507202 150.083207,217.651494 149.830787,217.794998 C147.197097,219.294695 144.55087,220.774679 141.923867,222.283048 C141.378072,222.596865 140.999443,222.575576 140.704396,222.016541 C139.952988,220.590173 138.445156,219.403505 139.143072,217.51824 C139.279311,217.150019 138.927428,216.876415 138.746054,216.589407 C136.582935,213.167387 134.409785,209.750886 132.2358,206.335175 C132.049411,206.042647 131.924873,205.664963 131.536213,205.565614 C129.903844,205.148506 129.173331,203.884567 128.393505,202.652167 C126.582269,199.788394 124.766853,196.926197 122.931378,194.076617 C122.704033,193.723376 122.570301,193.047645 121.850654,193.455292 C121.112619,193.873188 121.729459,194.29345 121.945938,194.637229 C124.430015,198.584379 126.948361,202.513394 129.424079,206.466063 C129.65226,206.830342 130.350175,207.19068 129.679006,207.781254 C129.400676,208.025684 129.784321,208.143956 129.933098,208.216497 C130.933582,208.701415 131.383257,209.614479 131.989231,210.425829 C132.577653,211.214312 132.461473,211.599093 131.574661,212.125011 C130.589222,212.709278 130.241518,212.334748 129.81441,211.57938 C129.32378,210.712048 128.889986,209.680711 127.44317,210.380885 C125.855935,211.148868 125.697128,211.636151 126.582269,213.109828 C126.936659,213.698825 127.813441,214.263379 126.538806,214.974592 C125.530799,215.536781 125.056885,215.431124 124.566255,214.466808 C124.150849,213.652304 123.554905,212.922957 123.560755,211.956276 C123.563263,211.641671 123.624278,211.255314 122.97902,211.462685 C122.530181,211.606977 122.449106,211.072385 122.278597,210.805878 C119.363234,206.24371 116.451214,201.679178 113.562597,197.101241 C112.338111,195.160782 112.850473,193.300749 114.894905,192.102253 C115.908762,191.507737 116.966083,190.976298 117.955702,190.350242 C118.645259,189.913422 119.041441,189.955212 119.455175,190.682194 C119.660788,191.044108 119.714281,191.889363 120.544257,191.505371 C121.397636,191.111129 120.698885,190.632519 120.500794,190.22645 C119.518698,188.216605 120.057806,186.507961 122.081342,185.347313 C123.454605,184.560406 124.838734,183.789269 126.213669,183.005516 C126.598985,182.785529 127.097138,182.6026 126.700956,182.029373 C126.318983,181.478222 125.911936,181.794404 125.524112,182.009661 C124.455926,182.601812 123.409471,183.232599 122.326239,183.79873 C120.845155,184.573021 119.616489,184.252897 118.683707,182.896705 C118.458869,182.570273 118.231525,182.241475 118.048479,181.892965 C117.460057,180.775683 116.868291,179.756962 115.383863,181.014594 C115.041174,181.304756 114.715202,181.119462 114.490365,180.763856 C113.504089,179.201081 112.525336,177.633575 111.508971,176.088147 C111.097744,175.462879 111.499777,175.205834 111.985392,175.011867 C113.006772,174.605798 113.190654,174.13665 112.541217,173.177853 C111.021684,170.936194 111.339298,169.956897 113.7983,168.566012 C117.420773,166.516742 121.040738,164.464319 124.66739,162.421357 C126.681732,161.285941 127.936308,161.547717 129.078883,163.513407 C129.686529,164.559725 130.239846,164.970525 131.309704,164.081116 C131.812872,163.663219 132.176456,163.83432 132.499086,164.361027 C133.395092,165.822876 134.303635,167.279206 135.265672,168.703208 C135.701973,169.349764 135.561554,169.747949 134.868654,170.012879 C133.75784,170.438661 133.822199,170.990599 134.400591,171.880009 C136.689085,175.401378 136.58795,175.692328 132.896939,177.8236 C132.466488,178.071972 132.015978,178.295902 131.609766,178.575814 C131.215256,178.849417 130.412862,178.944824 130.832447,179.683633 C131.281286,180.472117 131.778603,179.835022 132.186486,179.615824 C133.503749,178.910919 134.788415,178.151609 136.092304,177.423839 C138.193572,176.251363 140.033227,176.624316 141.474192,178.500119 C141.744164,178.850994 141.870374,179.507801 142.573304,179.059154 C143.281249,178.606564 142.659394,178.183149 142.421184,177.871698 C141.859508,177.136042 141.952285,176.699222 142.830739,176.27896 C143.852119,175.790889 144.800782,175.169563 145.79458,174.627875 C147.934296,173.460131 149.873414,173.941106 151.17396,175.967509 C152.600716,178.191033 154.009084,180.42402 155.425811,182.652275" id="Fill-195" fill="#222221" mask="url(#mask-4)"></path>
                    <path d="M128.117766,168.516495 C128.795621,169.592775 128.38523,171.015988 127.210894,171.656237 C126.090886,172.267312 124.629025,171.944822 123.943648,170.933986 C123.242389,169.900284 123.623526,168.429762 124.761086,167.772955 C125.901989,167.115359 127.451612,167.45835 128.117766,168.516495" id="Fill-196" fill="#222221" mask="url(#mask-4)"></path>
                    <path d="M120.998362,175.173506 C119.808144,175.850813 118.406463,175.510188 117.697682,174.370829 C116.991409,173.236201 117.36168,171.928107 118.576136,171.2713 C119.735427,170.643666 121.067735,170.963002 121.777352,172.039283 C122.515387,173.159718 122.182728,174.499352 120.998362,175.173506" id="Fill-197" fill="#222221" mask="url(#mask-4)"></path>
                    <polygon id="Stroke-198" stroke="#222221" stroke-width="3.08" stroke-linecap="round" stroke-linejoin="round" mask="url(#mask-4)" points="491.093626 108.120448 458.446237 125.912586 447.733447 108.419284 480.380836 90.6271465"></polygon>
                    <polygon id="Fill-199" fill="#38AAE0" mask="url(#mask-4)" points="491.093626 108.120448 458.446237 125.912586 447.733447 108.419284 480.380836 90.6271465"></polygon>
                    <polygon id="Fill-200" fill="#85B23F" mask="url(#mask-4)" points="479.786731 104.692436 460.439851 115.236042 458.45142 111.989065 477.798299 101.44546"></polygon>
                    <polygon id="Stroke-201" stroke="#222221" stroke-width="3" stroke-linecap="round" stroke-linejoin="round" mask="url(#mask-4)" points="479.786731 104.692436 460.439851 115.236042 458.45142 111.989065 477.798299 101.44546"></polygon>
                    <path d="M485.497934,99.0483113 C486.139849,100.096995 485.759548,101.437417 484.647898,102.042973 C483.537085,102.648528 482.11618,102.289768 481.474265,101.241085 C480.831514,100.19319 481.212651,98.8519789 482.323465,98.2464233 C483.434278,97.6408677 484.856019,97.9996279 485.497934,99.0483113 Z" id="Stroke-202" stroke="#222221" stroke-width="3" stroke-linecap="round" stroke-linejoin="round" mask="url(#mask-4)"></path>
                    <path d="M456.904388,114.63088 C457.546303,115.679564 457.166002,117.019986 456.054352,117.625542 C454.943539,118.231097 453.522633,117.872337 452.880719,116.823654 C452.237968,115.775759 452.619105,114.434548 453.729918,113.828992 C454.841568,113.223437 456.262473,113.582197 456.904388,114.63088 Z" id="Stroke-203" stroke="#222221" stroke-width="3" stroke-linecap="round" stroke-linejoin="round" mask="url(#mask-4)"></path>
                    <path d="M452.295055,108.948593 L453.989275,108.025278" id="Stroke-204" stroke="#222221" stroke-width="2.126" stroke-linecap="round" stroke-linejoin="round" mask="url(#mask-4)"></path>
                    <path d="M456.361937,106.731771 L458.056157,105.808456" id="Stroke-205" stroke="#222221" stroke-width="2.126" stroke-linecap="round" stroke-linejoin="round" mask="url(#mask-4)"></path>
                    <path d="M460.429236,104.515343 L462.123457,103.592028" id="Stroke-206" stroke="#222221" stroke-width="2.126" stroke-linecap="round" stroke-linejoin="round" mask="url(#mask-4)"></path>
                    <path d="M464.496619,102.298836 L466.19084,101.375521" id="Stroke-207" stroke="#222221" stroke-width="2.126" stroke-linecap="round" stroke-linejoin="round" mask="url(#mask-4)"></path>
                    <path d="M468.563919,100.082014 L470.25814,99.1586991" id="Stroke-208" stroke="#222221" stroke-width="2.126" stroke-linecap="round" stroke-linejoin="round" mask="url(#mask-4)"></path>
                    <path d="M472.631219,97.8655856 L474.325439,96.9422711" id="Stroke-209" stroke="#222221" stroke-width="2.126" stroke-linecap="round" stroke-linejoin="round" mask="url(#mask-4)"></path>
                    <path d="M476.698518,95.6490788 L478.392739,94.7257642" id="Stroke-210" stroke="#222221" stroke-width="2.126" stroke-linecap="round" stroke-linejoin="round" mask="url(#mask-4)"></path>
                    <path d="M453.549213,110.996443 L455.243433,110.073129" id="Stroke-211" stroke="#222221" stroke-width="2.126" stroke-linecap="round" stroke-linejoin="round" mask="url(#mask-4)"></path>
                    <path d="M457.616512,108.779936 L459.310733,107.856622" id="Stroke-212" stroke="#222221" stroke-width="2.126" stroke-linecap="round" stroke-linejoin="round" mask="url(#mask-4)"></path>
                    <path d="M461.683394,106.563508 L463.377615,105.640194" id="Stroke-213" stroke="#222221" stroke-width="2.126" stroke-linecap="round" stroke-linejoin="round" mask="url(#mask-4)"></path>
                    <path d="M465.750694,104.346686 L467.444914,103.423371" id="Stroke-214" stroke="#222221" stroke-width="2.126" stroke-linecap="round" stroke-linejoin="round" mask="url(#mask-4)"></path>
                    <path d="M469.818077,102.130258 L471.512298,101.206943" id="Stroke-215" stroke="#222221" stroke-width="2.126" stroke-linecap="round" stroke-linejoin="round" mask="url(#mask-4)"></path>
                    <path d="M473.885377,99.9137512 L475.579597,98.9904366" id="Stroke-216" stroke="#222221" stroke-width="2.126" stroke-linecap="round" stroke-linejoin="round" mask="url(#mask-4)"></path>
                    <path d="M477.952676,97.6969289 L479.646897,96.7736144" id="Stroke-217" stroke="#222221" stroke-width="2.126" stroke-linecap="round" stroke-linejoin="round" mask="url(#mask-4)"></path>
                    <path d="M458.871506,119.688216 L460.565727,118.764901" id="Stroke-218" stroke="#222221" stroke-width="2.126" stroke-linecap="round" stroke-linejoin="round" mask="url(#mask-4)"></path>
                    <path d="M462.938806,117.471393 L464.633026,116.548079" id="Stroke-219" stroke="#222221" stroke-width="2.126" stroke-linecap="round" stroke-linejoin="round" mask="url(#mask-4)"></path>
                    <path d="M467.006105,115.254965 L468.700326,114.331651" id="Stroke-220" stroke="#222221" stroke-width="2.126" stroke-linecap="round" stroke-linejoin="round" mask="url(#mask-4)"></path>
                    <path d="M471.073405,113.038458 L472.767626,112.115144" id="Stroke-221" stroke="#222221" stroke-width="2.126" stroke-linecap="round" stroke-linejoin="round" mask="url(#mask-4)"></path>
                    <path d="M475.140705,110.821636 L476.834925,109.898322" id="Stroke-222" stroke="#222221" stroke-width="2.126" stroke-linecap="round" stroke-linejoin="round" mask="url(#mask-4)"></path>
                    <path d="M479.208004,108.605208 L480.902225,107.681894" id="Stroke-223" stroke="#222221" stroke-width="2.126" stroke-linecap="round" stroke-linejoin="round" mask="url(#mask-4)"></path>
                    <path d="M483.275304,106.388701 L484.969525,105.465387" id="Stroke-224" stroke="#222221" stroke-width="2.126" stroke-linecap="round" stroke-linejoin="round" mask="url(#mask-4)"></path>
                    <path d="M460.125664,121.736066 L461.819885,120.812751" id="Stroke-225" stroke="#222221" stroke-width="2.126" stroke-linecap="round" stroke-linejoin="round" mask="url(#mask-4)"></path>
                    <path d="M464.192964,119.519559 L465.887184,118.596244" id="Stroke-226" stroke="#222221" stroke-width="2.126" stroke-linecap="round" stroke-linejoin="round" mask="url(#mask-4)"></path>
                    <path d="M468.260263,117.302737 L469.954484,116.379422" id="Stroke-227" stroke="#222221" stroke-width="2.126" stroke-linecap="round" stroke-linejoin="round" mask="url(#mask-4)"></path>
                    <path d="M472.327563,115.086309 L474.021784,114.162994" id="Stroke-228" stroke="#222221" stroke-width="2.126" stroke-linecap="round" stroke-linejoin="round" mask="url(#mask-4)"></path>
                    <path d="M476.394863,112.869881 L478.089083,111.946566" id="Stroke-229" stroke="#222221" stroke-width="2.126" stroke-linecap="round" stroke-linejoin="round" mask="url(#mask-4)"></path>
                    <path d="M480.462162,110.653374 L482.156383,109.730059" id="Stroke-230" stroke="#222221" stroke-width="2.126" stroke-linecap="round" stroke-linejoin="round" mask="url(#mask-4)"></path>
                    <path d="M484.529462,108.436552 L486.223682,107.513237" id="Stroke-231" stroke="#222221" stroke-width="2.126" stroke-linecap="round" stroke-linejoin="round" mask="url(#mask-4)"></path>
                    <polygon id="Stroke-232" stroke="#222221" stroke-width="3" stroke-linecap="round" stroke-linejoin="round" mask="url(#mask-4)" points="488.321691 99.5079974 486.416006 100.546431 484.427575 97.3002427 486.333259 96.2610211"></polygon>
                    <polygon id="Stroke-233" stroke="#222221" stroke-width="3" stroke-linecap="round" stroke-linejoin="round" mask="url(#mask-4)" points="453.797788 118.32264 451.892103 119.361074 449.903671 116.114886 451.810192 115.075664"></polygon>
                    <polygon id="Stroke-234" stroke="#222221" stroke-width="3" stroke-linecap="round" stroke-linejoin="round" mask="url(#mask-4)" points="168.006005 62.2170498 163.481675 62.2170498 163.481675 58.2943428 146.648962 58.2943428 146.648962 55.0639246 132.557761 55.0639246 132.557761 58.2943428 129.817921 58.2943428 129.817921 62.2170498 125.292755 62.2170498 125.292755 65.447468 129.817921 65.447468 129.817921 84.6975117 163.481675 84.6975117 163.481675 65.447468 168.006005 65.447468"></polygon>
                    <polygon id="Fill-235" fill="#38AAE0" mask="url(#mask-4)" points="131.414517 79.754349 152.056928 79.754349 152.056928 67.6377183 131.414517 67.6377183"></polygon>
                    <polygon id="Stroke-236" stroke="#222221" stroke-width="2.126" stroke-linecap="round" stroke-linejoin="round" mask="url(#mask-4)" points="132.557928 80.9662486 153.200339 80.9662486 153.200339 68.8504064 132.557928 68.8504064"></polygon>
                    <polygon id="Fill-237" fill="#FCBE16" mask="url(#mask-4)" points="133.115424 77.2895486 150.35602 77.2895486 150.35602 72.5263179 133.115424 72.5263179"></polygon>
                    <polygon id="Stroke-238" stroke="#222221" stroke-width="2.126" stroke-linecap="round" stroke-linejoin="round" mask="url(#mask-4)" points="134.258835 78.4588701 151.499431 78.4588701 151.499431 73.6956394 134.258835 73.6956394"></polygon>
                    <polygon id="Fill-239" fill="#38AAE0" mask="url(#mask-4)" points="124.001905 44.8503784 124.001905 49.5316068 135.436849 49.5316068 135.436849 53.2240765 139.778968 53.2240765 139.778968 49.5316068 152.192666 49.5316068 152.192666 44.8503784"></polygon>
                    <polygon id="Stroke-240" stroke="#222221" stroke-width="3" stroke-linecap="round" stroke-linejoin="round" mask="url(#mask-4)" points="125.743099 46.68999 125.743099 51.3720069 137.178879 51.3720069 137.178879 55.0636881 141.520163 55.0636881 141.520163 51.3720069 153.93386 51.3720069 153.93386 46.68999"></polygon>
                    <path d="M212.27548,145.560735 C217.501904,147.062008 223.029225,144.281814 224.620639,139.351425 C226.212053,134.421036 223.264928,129.206792 218.038504,127.705519 C215.134843,126.871303 212.140912,127.362528 209.77803,128.805454 L201.79087,132.823567 L206.334424,140.862948 L206.339439,140.847179 C207.514611,143.03601 209.590804,144.789598 212.27548,145.560735" id="Fill-241" fill="#38AAE0" mask="url(#mask-4)"></path>
                    <path d="M191.323479,120.032073 C186.097055,118.5308 180.569733,121.310994 178.978319,126.241383 C177.386905,131.171773 180.33403,136.386016 185.560454,137.887289 C188.464116,138.721505 191.458047,138.23028 193.820929,136.787354 L201.808088,132.769241 L197.264534,124.72986 L197.25952,124.74563 C196.084347,122.556798 194.008154,120.80321 191.323479,120.032073" id="Fill-242" fill="#38AAE0" mask="url(#mask-4)"></path>
                    <path d="M211.565361,147.760999 C216.791785,149.262272 222.319107,146.482078 223.910521,141.551689 C225.501935,136.6213 222.55481,131.407056 217.328386,129.905783 C214.424724,129.071567 211.430793,129.562793 209.067911,131.005718 L201.080752,135.023043 L205.624305,143.062424 L205.62932,143.047443 C206.804493,145.236274 208.880686,146.989862 211.565361,147.760999 Z" id="Stroke-243" stroke="#222221" stroke-width="3" stroke-linecap="round" stroke-linejoin="round" mask="url(#mask-4)"></path>
                    <path d="M190.61336,122.231943 C185.386936,120.73067 179.859615,123.510864 178.268201,128.441253 C176.676787,133.371642 179.623912,138.585886 184.850336,140.087159 C187.753997,140.921375 190.747928,140.430149 193.11081,138.987224 L201.09797,134.969899 L196.554416,126.930518 L196.549401,126.945499 C195.374229,124.756668 193.298036,123.00308 190.61336,122.231943 Z" id="Stroke-244" stroke="#222221" stroke-width="3" stroke-linecap="round" stroke-linejoin="round" mask="url(#mask-4)"></path>
                    <path d="M183.673659,129.993935 L192.253419,132.457947" id="Stroke-245" stroke="#222221" stroke-width="3" stroke-linecap="round" stroke-linejoin="round" mask="url(#mask-4)"></path>
                    <path d="M210.349568,137.656263 L218.929328,140.121064" id="Stroke-246" stroke="#222221" stroke-width="3" stroke-linecap="round" stroke-linejoin="round" mask="url(#mask-4)"></path>
                    <path d="M215.945678,134.841534 L213.332884,142.936109" id="Stroke-247" stroke="#222221" stroke-width="3" stroke-linecap="round" stroke-linejoin="round" mask="url(#mask-4)"></path>
                    <polygon id="Stroke-248" stroke="#222221" stroke-width="2.179" stroke-linecap="round" stroke-linejoin="round" mask="url(#mask-4)" points="335.659708 128.637586 337.743424 122.40541 298.272346 110.660943 287.959917 141.503276 330.8186 154.256213 337.65817 133.800578"></polygon>
                    <polygon id="Fill-249" fill="#BD2D2D" mask="url(#mask-4)" points="297.862206 122.842939 287.584882 119.785199 289.829076 113.072836 300.106401 116.130577"></polygon>
                    <polygon id="Fill-250" fill="#BD2D2D" mask="url(#mask-4)" points="294.106252 139.647106 285.296639 137.026186 287.006741 131.91208 295.815518 134.533789"></polygon>
                    <polygon id="Fill-251" fill="#BD2D2D" mask="url(#mask-4)" points="328.656735 145.125334 304.262298 137.866552 305.687383 133.605586 330.081819 140.863579"></polygon>
                    <polygon id="Stroke-252" stroke="#222221" stroke-width="2.179" stroke-linecap="round" stroke-linejoin="round" mask="url(#mask-4)" points="298.960817 124.570428 288.683492 121.512688 290.927687 114.800326 301.205011 117.858854"></polygon>
                    <polygon id="Stroke-253" stroke="#222221" stroke-width="2.179" stroke-linecap="round" stroke-linejoin="round" mask="url(#mask-4)" points="295.204946 141.37499 286.395333 138.754069 288.105435 133.639963 296.914212 136.261672"></polygon>
                    <polygon id="Stroke-254" stroke="#222221" stroke-width="2.179" stroke-linecap="round" stroke-linejoin="round" mask="url(#mask-4)" points="329.755429 146.852823 305.360992 139.594041 306.786077 135.333075 331.180513 142.591068"></polygon>
                    <path d="M308.898545,134.028765 L308.63108,134.827499" id="Stroke-255" stroke="#222221" stroke-width="1.029" stroke-linecap="round" stroke-linejoin="round" mask="url(#mask-4)"></path>
                    <path d="M310.677101,134.558153 L310.410472,135.356887" id="Stroke-256" stroke="#222221" stroke-width="1.029" stroke-linecap="round" stroke-linejoin="round" mask="url(#mask-4)"></path>
                    <path d="M312.456074,135.087147 L312.188609,135.886669" id="Stroke-257" stroke="#222221" stroke-width="1.029" stroke-linecap="round" stroke-linejoin="round" mask="url(#mask-4)"></path>
                    <path d="M314.234713,135.616535 L313.968084,136.415269" id="Stroke-258" stroke="#222221" stroke-width="1.029" stroke-linecap="round" stroke-linejoin="round" mask="url(#mask-4)"></path>
                    <path d="M316.013687,136.145923 L315.746222,136.944657" id="Stroke-259" stroke="#222221" stroke-width="1.029" stroke-linecap="round" stroke-linejoin="round" mask="url(#mask-4)"></path>
                    <path d="M317.792242,136.674916 L317.524778,137.474439" id="Stroke-260" stroke="#222221" stroke-width="1.029" stroke-linecap="round" stroke-linejoin="round" mask="url(#mask-4)"></path>
                    <path d="M319.570798,137.204305 L319.304169,138.003039" id="Stroke-261" stroke="#222221" stroke-width="1.029" stroke-linecap="round" stroke-linejoin="round" mask="url(#mask-4)"></path>
                    <path d="M321.349855,137.733614 L321.08239,138.532348" id="Stroke-262" stroke="#222221" stroke-width="1.029" stroke-linecap="round" stroke-linejoin="round" mask="url(#mask-4)"></path>
                    <path d="M323.12841,138.262607 L322.861781,139.06213" id="Stroke-263" stroke="#222221" stroke-width="1.029" stroke-linecap="round" stroke-linejoin="round" mask="url(#mask-4)"></path>
                    <path d="M324.907384,138.791996 L324.639919,139.591518" id="Stroke-264" stroke="#222221" stroke-width="1.029" stroke-linecap="round" stroke-linejoin="round" mask="url(#mask-4)"></path>
                    <path d="M326.685939,139.321384 L326.418475,140.120118" id="Stroke-265" stroke="#222221" stroke-width="1.029" stroke-linecap="round" stroke-linejoin="round" mask="url(#mask-4)"></path>
                    <path d="M328.464578,139.850377 L328.19795,140.6499" id="Stroke-266" stroke="#222221" stroke-width="1.029" stroke-linecap="round" stroke-linejoin="round" mask="url(#mask-4)"></path>
                    <path d="M330.243552,140.379765 L329.976087,141.179288" id="Stroke-267" stroke="#222221" stroke-width="1.029" stroke-linecap="round" stroke-linejoin="round" mask="url(#mask-4)"></path>
                    <path d="M306.547365,141.060463 L306.280736,141.859198" id="Stroke-268" stroke="#222221" stroke-width="1.029" stroke-linecap="round" stroke-linejoin="round" mask="url(#mask-4)"></path>
                    <path d="M308.326338,141.589457 L308.058874,142.38898" id="Stroke-269" stroke="#222221" stroke-width="1.029" stroke-linecap="round" stroke-linejoin="round" mask="url(#mask-4)"></path>
                    <path d="M310.104894,142.118845 L309.838265,142.917579" id="Stroke-270" stroke="#222221" stroke-width="1.029" stroke-linecap="round" stroke-linejoin="round" mask="url(#mask-4)"></path>
                    <path d="M311.883951,142.648233 L311.616486,143.446967" id="Stroke-271" stroke="#222221" stroke-width="1.029" stroke-linecap="round" stroke-linejoin="round" mask="url(#mask-4)"></path>
                    <path d="M313.662506,143.177227 L313.395042,143.97675" id="Stroke-272" stroke="#222221" stroke-width="1.029" stroke-linecap="round" stroke-linejoin="round" mask="url(#mask-4)"></path>
                    <path d="M315.441062,143.706536 L315.174433,144.50527" id="Stroke-273" stroke="#222221" stroke-width="1.029" stroke-linecap="round" stroke-linejoin="round" mask="url(#mask-4)"></path>
                    <path d="M317.220035,144.235924 L316.952571,145.034658" id="Stroke-274" stroke="#222221" stroke-width="1.029" stroke-linecap="round" stroke-linejoin="round" mask="url(#mask-4)"></path>
                    <path d="M318.998674,144.764918 L318.73121,145.564441" id="Stroke-275" stroke="#222221" stroke-width="1.029" stroke-linecap="round" stroke-linejoin="round" mask="url(#mask-4)"></path>
                    <path d="M320.77723,145.294306 L320.510601,146.093829" id="Stroke-276" stroke="#222221" stroke-width="1.029" stroke-linecap="round" stroke-linejoin="round" mask="url(#mask-4)"></path>
                    <path d="M322.556203,145.823694 L322.288739,146.622428" id="Stroke-277" stroke="#222221" stroke-width="1.029" stroke-linecap="round" stroke-linejoin="round" mask="url(#mask-4)"></path>
                    <path d="M324.334759,146.353082 L324.06813,147.151816" id="Stroke-278" stroke="#222221" stroke-width="1.029" stroke-linecap="round" stroke-linejoin="round" mask="url(#mask-4)"></path>
                    <path d="M326.113816,146.882076 L325.846351,147.681599" id="Stroke-279" stroke="#222221" stroke-width="1.029" stroke-linecap="round" stroke-linejoin="round" mask="url(#mask-4)"></path>
                    <path d="M327.892371,147.411464 L327.624907,148.210198" id="Stroke-280" stroke="#222221" stroke-width="1.029" stroke-linecap="round" stroke-linejoin="round" mask="url(#mask-4)"></path>
                </g>
            </g>
        </g>
    </g>
</svg>