<?xml version="1.0" encoding="UTF-8"?>
<svg width="741px" height="461px" viewBox="0 0 741 461" version="1.1" xmlns="http://www.w3.org/2000/svg" xmlns:xlink="http://www.w3.org/1999/xlink">
    <!-- Generator: Sketch 44.1 (41455) - http://www.bohemiancoding.com/sketch -->
    <title>bg-intro</title>
    <desc>Created with Sketch.</desc>
    <defs>
        <polygon id="path-1" points="0 460.81466 740.81404 460.81466 740.81404 0.0705703483 0 0.0705703483"></polygon>
    </defs>
    <g id="exportables" stroke="none" stroke-width="1" fill="none" fill-rule="evenodd" opacity="0.327445652">
        <g id="Artboard" transform="translate(-109.000000, -752.000000)">
            <g id="bg-intro" transform="translate(109.000000, 752.000000)">
                <g id="Page-1">
                    <path d="M180.213036,273.631048 L206.196021,273.631048 L206.196021,247.632982 L180.213036,247.632982 L180.213036,273.631048 Z M171.548544,282.300569 L214.860513,282.300569 L214.860513,238.963461 L171.548544,238.963461 L171.548544,282.300569 Z" id="Fill-1" fill="#2E9F5F"></path>
                    <g id="Group-54" transform="translate(0.000000, 0.113720)">
                        <path d="M150.00375,337.688574 C143.132997,337.688574 137.552477,343.272333 137.552477,350.147074 C137.552477,357.011319 143.132997,362.605574 150.00375,362.605574 C156.874503,362.605574 162.455023,357.011319 162.455023,350.147074 C162.455023,343.272333 156.874503,337.688574 150.00375,337.688574 Z M150.00375,371.275095 C138.360184,371.275095 128.887985,361.797399 128.887985,350.147074 C128.887985,338.49675 138.360184,329.019054 150.00375,329.019054 C161.647317,329.019054 171.119515,338.49675 171.119515,350.147074 C171.119515,361.797399 161.647317,371.275095 150.00375,371.275095 Z" id="Fill-2" fill="#2E9F5F"></path>
                        <path d="M306.142926,298.67783 C302.523979,298.67783 299.104337,297.302882 296.481913,294.783893 C294.425931,292.800189 291.132166,292.863164 289.149613,294.930834 L282.845303,288.853773 C288.18456,283.322493 297.016887,283.15456 302.544959,288.475925 C303.54148,289.452033 304.93661,289.892856 306.247823,289.934839 C307.632463,289.903352 308.922696,289.336579 309.887748,288.339479 C310.852801,287.34238 311.366796,286.030406 311.335327,284.644962 C311.314347,283.249022 310.747904,281.958041 309.751382,281.002924 C304.212821,275.671064 304.044986,266.823115 309.373753,261.281339 C311.954219,258.604913 315.42631,257.093519 319.150153,257.020049 C322.884486,257.062032 326.388046,258.332022 329.073409,260.913986 C330.06993,261.869103 331.444081,262.383396 332.765783,262.362405 C334.150423,262.341413 335.451146,261.764145 336.405708,260.767045 L342.710018,266.83361 C337.38125,272.375386 328.548924,272.553815 323.010362,267.211459 C322.013841,266.245846 320.681649,265.836511 319.307498,265.76304 C317.922858,265.794527 316.632625,266.350804 315.667573,267.3584 C313.68502,269.415574 313.747958,272.711252 315.814429,274.694955 C318.489302,277.276919 320.010308,280.751025 320.073246,284.466534 C320.146674,288.192538 318.762034,291.719123 316.192058,294.406045 C313.601102,297.092966 310.139501,298.60436 306.415658,298.67783 L306.142926,298.67783 Z" id="Fill-4" fill="#2E9F5F"></path>
                        <path d="M97.7346272,296.782291 C97.0737761,294.64115 97.2730804,292.384556 98.3115606,290.400852 C99.3395512,288.427644 101.091331,286.96873 103.22074,286.296999 C104.857133,285.793201 105.780227,284.040405 105.266231,282.392566 C105.014479,281.605382 104.479504,280.954643 103.734735,280.566299 C103.000456,280.177955 102.16128,280.104484 101.364063,280.356383 C99.2346542,281.028114 96.9688791,280.807702 94.9968156,279.779115 C93.0142624,278.740032 91.5561942,276.997731 90.8953432,274.856591 C89.5211925,270.469351 91.9757822,265.756743 96.3814559,264.381794 C97.1786731,264.140391 97.8290345,263.59461 98.2066636,262.859905 C98.5947825,262.1252 98.6682104,261.275041 98.4269473,260.487857 L103.430534,258.913489 C104.091385,261.05463 103.892081,263.32172 102.8536,265.294928 C101.81512,267.268136 100.07383,268.727051 97.9444211,269.398781 C96.308028,269.902579 95.3849345,271.655375 95.8989298,273.292718 C96.1506826,274.090398 96.6856572,274.741137 97.4304259,275.129481 C98.1647048,275.517825 99.0038808,275.601791 99.8010979,275.349893 C101.920017,274.688658 104.185792,274.888078 106.168345,275.916665 C108.150899,276.955748 109.608967,278.698049 110.269818,280.828694 C111.643969,285.236925 109.178889,289.939038 104.783705,291.313986 C103.986488,291.555389 103.336127,292.10117 102.958497,292.835875 C102.570379,293.57058 102.496951,294.420739 102.738214,295.218419 L97.7346272,296.782291 Z" id="Fill-6" fill="#2E9F5F"></path>
                        <path d="M15.9936447,452.14304 L43.445188,452.14304 L29.7246612,429.598088 L15.9936447,452.14304 Z M58.8650461,460.812561 L0.573786557,460.812561 L29.7246612,412.941273 L58.8650461,460.812561 Z" id="Fill-8" fill="#2E9F5F"></path>
                        <mask id="mask-2" fill="white">
                            <use xlink:href="#path-1"></use>
                        </mask>
                        <g id="Clip-11"></g>
                        <polygon id="Fill-10" fill="#2E9F5F" mask="url(#mask-2)" points="0 295.999305 28.7417763 295.999305 28.7417763 267.240847 0 267.240847"></polygon>
                        <polygon id="Fill-12" fill="#2E9F5F" mask="url(#mask-2)" points="313.35879 445.805684 332.429063 445.805684 332.429063 426.734837 313.35879 426.734837"></polygon>
                        <path d="M251.284945,350.148124 C251.284945,357.169806 245.599528,362.858523 238.571429,362.858523 C231.55382,362.858523 225.868403,357.169806 225.868403,350.148124 C225.868403,343.126442 231.55382,337.427229 238.571429,337.427229 C245.599528,337.427229 251.284945,343.126442 251.284945,350.148124" id="Fill-13" fill="#2E9F5F" mask="url(#mask-2)"></path>
                        <path d="M137.393034,422.521828 C139.396566,425.995934 138.21123,430.425156 134.73914,432.429852 C131.277539,434.434547 126.840396,433.238027 124.836863,429.774417 C122.833331,426.300312 124.029157,421.871089 127.490757,419.866394 C130.952358,417.861698 135.389501,419.047722 137.393034,422.521828" id="Fill-14" fill="#2E9F5F" mask="url(#mask-2)"></path>
                        <polygon id="Fill-15" fill="#2E9F5F" mask="url(#mask-2)" points="240.656781 451.021041 211.075829 451.021041 225.866305 426.733788"></polygon>
                        <polygon id="Fill-16" fill="#2E9F5F" mask="url(#mask-2)" points="297.477385 366.331579 347.303457 366.331579 347.303457 355.835791 297.477385 355.835791"></polygon>
                        <polygon id="Fill-17" fill="#2E9F5F" mask="url(#mask-2)" points="56.2059073 377.76569 39.8209968 347.852695 46.1148165 344.399581 62.4997269 374.312576"></polygon>
                        <path d="M573.723618,273.517328 L599.706604,273.517328 L599.706604,247.519262 L573.723618,247.519262 L573.723618,273.517328 Z M565.059127,282.186849 L608.371096,282.186849 L608.371096,238.849741 L565.059127,238.849741 L565.059127,282.186849 Z" id="Fill-18" fill="#2E9F5F" mask="url(#mask-2)"></path>
                        <path d="M543.508039,337.688574 C536.637286,337.688574 531.056766,343.272333 531.056766,350.147074 C531.056766,357.011319 536.637286,362.605574 543.508039,362.605574 C550.378792,362.605574 555.959313,357.011319 555.959313,350.147074 C555.959313,343.272333 550.378792,337.688574 543.508039,337.688574 M543.508039,371.275095 C531.864473,371.275095 522.392274,361.797399 522.392274,350.147074 C522.392274,338.49675 531.864473,329.019054 543.508039,329.019054 C555.151606,329.019054 564.623804,338.49675 564.623804,350.147074 C564.623804,361.797399 555.151606,371.275095 543.508039,371.275095" id="Fill-19" fill="#2E9F5F" mask="url(#mask-2)"></path>
                        <path d="M699.647215,298.67783 C696.028268,298.67783 692.608626,297.302882 689.986202,294.783893 C687.930221,292.800189 684.636455,292.863164 682.653902,294.930834 L676.349592,288.853773 C681.688849,283.322493 690.521176,283.15456 696.049248,288.475925 C697.045769,289.452033 698.440899,289.892856 699.752112,289.934839 C701.136752,289.903352 702.426985,289.336579 703.392037,288.339479 C704.35709,287.34238 704.871085,286.030406 704.839616,284.644962 C704.818637,283.249022 704.252193,281.958041 703.255671,281.002924 C697.71711,275.671064 697.549275,266.823115 702.878042,261.281339 C705.458508,258.604913 708.930599,257.093519 712.654442,257.020049 C716.388775,257.062032 719.892335,258.332022 722.577698,260.913986 C723.574219,261.869103 724.94837,262.383396 726.270072,262.362405 C727.654712,262.341413 728.955435,261.764145 729.909998,260.767045 L736.214307,266.83361 C730.88554,272.375386 722.053213,272.553815 716.514651,267.211459 C715.51813,266.245846 714.185938,265.836511 712.811788,265.76304 C711.427147,265.794527 710.136914,266.350804 709.171862,267.3584 C707.189309,269.415574 707.252247,272.711252 709.318718,274.694955 C711.993591,277.276919 713.514597,280.751025 713.577536,284.466534 C713.650963,288.192538 712.266323,291.719123 709.696347,294.406045 C707.105391,297.092966 703.64379,298.60436 699.919947,298.67783 L699.647215,298.67783 Z" id="Fill-20" fill="#2E9F5F" mask="url(#mask-2)"></path>
                        <path d="M491.238916,296.782291 C490.578065,294.64115 490.777369,292.384556 491.81585,290.400852 C492.84384,288.427644 494.59562,286.96873 496.725029,286.296999 C498.361422,285.793201 499.284516,284.040405 498.77052,282.392566 C498.518768,281.605382 497.983793,280.954643 497.239024,280.566299 C496.504745,280.177955 495.665569,280.104484 494.868352,280.356383 C492.738943,281.028114 490.473168,280.807702 488.501105,279.779115 C486.518552,278.740032 485.060483,276.997731 484.399632,274.856591 C483.025482,270.469351 485.480071,265.756743 489.885745,264.381794 C490.682962,264.140391 491.333324,263.59461 491.710953,262.859905 C492.099072,262.1252 492.1725,261.275041 491.931236,260.487857 L496.934823,258.913489 C497.595674,261.05463 497.39637,263.32172 496.35789,265.294928 C495.319409,267.268136 493.578119,268.727051 491.44871,269.398781 C489.812317,269.902579 488.889224,271.655375 489.403219,273.292718 C489.654972,274.090398 490.189946,274.741137 490.934715,275.129481 C491.668994,275.517825 492.50817,275.601791 493.305387,275.349893 C495.424306,274.688658 497.690081,274.888078 499.672635,275.916665 C501.655188,276.955748 503.113256,278.698049 503.774107,280.828694 C505.148258,285.236925 502.683178,289.939038 498.287994,291.313986 C497.490777,291.555389 496.840416,292.10117 496.462787,292.835875 C496.074668,293.57058 496.00124,294.420739 496.242503,295.218419 L491.238916,296.782291 Z" id="Fill-21" fill="#2E9F5F" mask="url(#mask-2)"></path>
                        <path d="M409.497934,452.14304 L436.949477,452.14304 L423.22895,429.598088 L409.497934,452.14304 Z M452.369335,460.812561 L394.078076,460.812561 L423.22895,412.941273 L452.369335,460.812561 Z" id="Fill-22" fill="#2E9F5F" mask="url(#mask-2)"></path>
                        <polygon id="Fill-23" fill="#2E9F5F" mask="url(#mask-2)" points="393.500093 295.999305 422.24187 295.999305 422.24187 267.240847 393.500093 267.240847"></polygon>
                        <polygon id="Fill-24" fill="#2E9F5F" mask="url(#mask-2)" points="706.869373 445.805684 725.939646 445.805684 725.939646 426.734837 706.869373 426.734837"></polygon>
                        <path d="M644.789234,350.148124 C644.789234,357.169806 639.103817,362.858523 632.075718,362.858523 C625.058109,362.858523 619.372692,357.169806 619.372692,350.148124 C619.372692,343.126442 625.058109,337.427229 632.075718,337.427229 C639.103817,337.427229 644.789234,343.126442 644.789234,350.148124" id="Fill-25" fill="#2E9F5F" mask="url(#mask-2)"></path>
                        <path d="M530.898372,422.521828 C532.901904,425.995934 531.716568,430.425156 528.244478,432.429852 C524.782877,434.434547 520.345734,433.238027 518.342202,429.774417 C516.338669,426.300312 517.534495,421.871089 520.996096,419.866394 C524.468186,417.861698 528.894839,419.047722 530.898372,422.521828" id="Fill-26" fill="#2E9F5F" mask="url(#mask-2)"></path>
                        <polygon id="Fill-27" fill="#2E9F5F" mask="url(#mask-2)" points="634.16107 451.021041 604.580118 451.021041 619.370594 426.733788"></polygon>
                        <polygon id="Fill-28" fill="#2E9F5F" mask="url(#mask-2)" points="690.987968 366.331579 740.81404 366.331579 740.81404 355.835791 690.987968 355.835791"></polygon>
                        <polygon id="Fill-29" fill="#2E9F5F" mask="url(#mask-2)" points="449.710196 377.76569 433.325286 347.852695 439.619106 344.399581 456.004016 374.312576"></polygon>
                        <path d="M180.213036,34.7381572 L206.196021,34.7381572 L206.196021,8.74009101 L180.213036,8.74009101 L180.213036,34.7381572 Z M171.548544,43.4076779 L214.860513,43.4076779 L214.860513,0.0705703483 L171.548544,0.0705703483 L171.548544,43.4076779 Z" id="Fill-30" fill="#2E9F5F" mask="url(#mask-2)"></path>
                        <path d="M150.00375,98.9146513 C143.132997,98.9146513 137.552477,104.49841 137.552477,111.373151 C137.552477,118.237396 143.132997,123.831651 150.00375,123.831651 C156.874503,123.831651 162.455023,118.237396 162.455023,111.373151 C162.455023,104.49841 156.874503,98.9146513 150.00375,98.9146513 M150.00375,132.501172 C138.360184,132.501172 128.887985,123.023476 128.887985,111.373151 C128.887985,99.7228269 138.360184,90.2451306 150.00375,90.2451306 C161.647317,90.2451306 171.119515,99.7228269 171.119515,111.373151 C171.119515,123.023476 161.647317,132.501172 150.00375,132.501172" id="Fill-31" fill="#2E9F5F" mask="url(#mask-2)"></path>
                        <path d="M306.142926,59.9039074 C302.523979,59.9039074 299.104337,58.5289593 296.481913,56.0099702 C294.425931,54.0262663 291.132166,54.089241 289.149613,56.1569112 L282.845303,50.0798501 C288.18456,44.54857 297.016887,44.3806374 302.544959,49.7020018 C303.54148,50.67811 304.93661,51.1189331 306.247823,51.1609163 C307.632463,51.1294289 308.922696,50.5626564 309.887748,49.5655565 C310.852801,48.5684567 311.366796,47.2564832 311.335327,45.8710393 C311.314347,44.4750995 310.747904,43.1841176 309.751382,42.2290009 C304.212821,36.8971407 304.044986,28.0491917 309.373753,22.5074158 C311.954219,19.8309899 315.42631,18.3195965 319.150153,18.246126 C322.884486,18.2881091 326.388046,19.5580994 329.073409,22.1400632 C330.06993,23.0951799 331.444081,23.6094735 332.765783,23.5884819 C334.150423,23.5674903 335.451146,22.990222 336.405708,21.9931222 L342.710018,28.0596875 C337.38125,33.6014634 328.548924,33.7798918 323.010362,28.4375358 C322.013841,27.4719234 320.681649,27.0625876 319.307498,26.9891171 C317.922858,27.0206045 316.632625,27.5768812 315.667573,28.5844769 C313.68502,30.6416513 313.747958,33.9373286 315.814429,35.9210325 C318.489302,38.5029963 320.010308,41.977102 320.073246,45.6926109 C320.146674,49.4186155 318.762034,52.9452002 316.192058,55.6321218 C313.601102,58.3190435 310.139501,59.8304369 306.415658,59.9039074 L306.142926,59.9039074 Z" id="Fill-32" fill="#2E9F5F" mask="url(#mask-2)"></path>
                        <path d="M97.7346272,58.0083682 C97.0737761,55.8672275 97.2730804,53.6106331 98.3115606,51.6269292 C99.3395512,49.6537212 101.091331,48.1948067 103.22074,47.5230762 C104.857133,47.0192784 105.780227,45.2664819 105.266231,43.6186432 C105.014479,42.8314591 104.479504,42.1807203 103.734735,41.7923761 C103.000456,41.404032 102.16128,41.3305615 101.364063,41.5824604 C99.2346542,42.2541908 96.9688791,42.0337793 94.9968156,41.0051921 C93.0142624,39.9661091 91.5561942,38.2238083 90.8953432,36.0826676 C89.5211925,31.6954284 91.9757822,26.9828197 96.3814559,25.6078715 C97.1786731,25.3664684 97.8290345,24.8206874 98.2066636,24.0859822 C98.5947825,23.3512771 98.6682104,22.5011183 98.4269473,21.7139342 L103.430534,20.1395661 C104.091385,22.2807068 103.892081,24.5477969 102.8536,26.521005 C101.81512,28.4942131 100.07383,29.9531276 97.9444211,30.624858 C96.308028,31.1286558 95.3849345,32.8814524 95.8989298,34.5187953 C96.1506826,35.3164751 96.6856572,35.967214 97.4304259,36.3555581 C98.1647048,36.7439022 99.0038808,36.8278686 99.8010979,36.5759696 C101.920017,35.914735 104.185792,36.114155 106.168345,37.1427422 C108.150899,38.1818252 109.608967,39.9241259 110.269818,42.0547708 C111.643969,46.4630017 109.178889,51.1651146 104.783705,52.5400628 C103.986488,52.7814659 103.336127,53.3272469 102.958497,54.061952 C102.570379,54.7966571 102.496951,55.6468159 102.738214,56.4444958 L97.7346272,58.0083682 Z" id="Fill-33" fill="#2E9F5F" mask="url(#mask-2)"></path>
                        <path d="M15.9936447,213.369117 L43.445188,213.369117 L29.7246612,190.824165 L15.9936447,213.369117 Z M58.8650461,222.038638 L0.573786557,222.038638 L29.7246612,174.16735 L58.8650461,222.038638 Z" id="Fill-34" fill="#2E9F5F" mask="url(#mask-2)"></path>
                        <polygon id="Fill-35" fill="#2E9F5F" mask="url(#mask-2)" points="0 57.2201345 28.7417763 57.2201345 28.7417763 28.4616762 0 28.4616762"></polygon>
                        <polygon id="Fill-36" fill="#2E9F5F" mask="url(#mask-2)" points="313.35879 207.026513 332.429063 207.026513 332.429063 187.955666 313.35879 187.955666"></polygon>
                        <path d="M251.284945,111.373151 C251.284945,118.394833 245.599528,124.08355 238.571429,124.08355 C231.55382,124.08355 225.868403,118.394833 225.868403,111.373151 C225.868403,104.351469 231.55382,98.6522566 238.571429,98.6522566 C245.599528,98.6522566 251.284945,104.351469 251.284945,111.373151" id="Fill-37" fill="#2E9F5F" mask="url(#mask-2)"></path>
                        <path d="M137.393034,183.747905 C139.396566,187.222011 138.21123,191.651233 134.73914,193.655929 C131.277539,195.660624 126.840396,194.464104 124.836863,191.000494 C122.833331,187.526389 124.029157,183.097166 127.490757,181.092471 C130.952358,179.087775 135.389501,180.273799 137.393034,183.747905" id="Fill-38" fill="#2E9F5F" mask="url(#mask-2)"></path>
                        <polygon id="Fill-39" fill="#2E9F5F" mask="url(#mask-2)" points="240.656781 212.247118 211.075829 212.247118 225.866305 187.959865"></polygon>
                        <polygon id="Fill-40" fill="#2E9F5F" mask="url(#mask-2)" points="297.477385 127.552408 347.303457 127.552408 347.303457 117.05662 297.477385 117.05662"></polygon>
                        <polygon id="Fill-41" fill="#2E9F5F" mask="url(#mask-2)" points="56.2059073 138.991767 39.8209968 109.078772 46.1148165 105.625658 62.4997269 135.538653"></polygon>
                        <path d="M573.723618,34.7381572 L599.706604,34.7381572 L599.706604,8.74009101 L573.723618,8.74009101 L573.723618,34.7381572 Z M565.059127,43.4076779 L608.371096,43.4076779 L608.371096,0.0705703483 L565.059127,0.0705703483 L565.059127,43.4076779 Z" id="Fill-42" fill="#2E9F5F" mask="url(#mask-2)"></path>
                        <path d="M543.508039,98.9146513 C536.637286,98.9146513 531.056766,104.49841 531.056766,111.373151 C531.056766,118.237396 536.637286,123.831651 543.508039,123.831651 C550.378792,123.831651 555.959313,118.237396 555.959313,111.373151 C555.959313,104.49841 550.378792,98.9146513 543.508039,98.9146513 M543.508039,132.501172 C531.864473,132.501172 522.392274,123.023476 522.392274,111.373151 C522.392274,99.7228269 531.864473,90.2451306 543.508039,90.2451306 C555.151606,90.2451306 564.623804,99.7228269 564.623804,111.373151 C564.623804,123.023476 555.151606,132.501172 543.508039,132.501172" id="Fill-43" fill="#2E9F5F" mask="url(#mask-2)"></path>
                        <path d="M699.647215,59.9039074 C696.028268,59.9039074 692.608626,58.5289593 689.986202,56.0099702 C687.930221,54.0262663 684.636455,54.089241 682.653902,56.1569112 L676.349592,50.0798501 C681.688849,44.54857 690.521176,44.3806374 696.049248,49.7020018 C697.045769,50.67811 698.440899,51.1189331 699.752112,51.1609163 C701.136752,51.1294289 702.426985,50.5626564 703.392037,49.5655565 C704.35709,48.5684567 704.871085,47.2564832 704.839616,45.8710393 C704.818637,44.4750995 704.252193,43.1841176 703.255671,42.2290009 C697.71711,36.8971407 697.549275,28.0491917 702.878042,22.5074158 C705.458508,19.8309899 708.930599,18.3195965 712.654442,18.246126 C716.388775,18.2881091 719.892335,19.5580994 722.577698,22.1400632 C723.574219,23.0951799 724.94837,23.6094735 726.270072,23.5884819 C727.654712,23.5674903 728.955435,22.990222 729.909998,21.9931222 L736.214307,28.0596875 C730.88554,33.6014634 722.053213,33.7798918 716.514651,28.4375358 C715.51813,27.4719234 714.185938,27.0625876 712.811788,26.9891171 C711.427147,27.0206045 710.136914,27.5768812 709.171862,28.5844769 C707.189309,30.6416513 707.252247,33.9373286 709.318718,35.9210325 C711.993591,38.5029963 713.514597,41.977102 713.577536,45.6926109 C713.650963,49.4186155 712.266323,52.9452002 709.696347,55.6321218 C707.105391,58.3190435 703.64379,59.8304369 699.919947,59.9039074 L699.647215,59.9039074 Z" id="Fill-44" fill="#2E9F5F" mask="url(#mask-2)"></path>
                        <path d="M491.238916,58.0083682 C490.578065,55.8672275 490.777369,53.6106331 491.81585,51.6269292 C492.84384,49.6537212 494.59562,48.1948067 496.725029,47.5230762 C498.361422,47.0192784 499.284516,45.2664819 498.77052,43.6186432 C498.518768,42.8314591 497.983793,42.1807203 497.239024,41.7923761 C496.504745,41.404032 495.665569,41.3305615 494.868352,41.5824604 C492.738943,42.2541908 490.473168,42.0337793 488.501105,41.0051921 C486.518552,39.9661091 485.060483,38.2238083 484.399632,36.0826676 C483.025482,31.6954284 485.480071,26.9828197 489.885745,25.6078715 C490.682962,25.3664684 491.333324,24.8206874 491.710953,24.0859822 C492.099072,23.3512771 492.1725,22.5011183 491.931236,21.7139342 L496.934823,20.1395661 C497.595674,22.2807068 497.39637,24.5477969 496.35789,26.521005 C495.319409,28.4942131 493.578119,29.9531276 491.44871,30.624858 C489.812317,31.1286558 488.889224,32.8814524 489.403219,34.5187953 C489.654972,35.3164751 490.189946,35.967214 490.934715,36.3555581 C491.668994,36.7439022 492.50817,36.8278686 493.305387,36.5759696 C495.424306,35.914735 497.690081,36.114155 499.672635,37.1427422 C501.655188,38.1818252 503.113256,39.9241259 503.774107,42.0547708 C505.148258,46.4630017 502.683178,51.1651146 498.287994,52.5400628 C497.490777,52.7814659 496.840416,53.3272469 496.462787,54.061952 C496.074668,54.7966571 496.00124,55.6468159 496.242503,56.4444958 L491.238916,58.0083682 Z" id="Fill-45" fill="#2E9F5F" mask="url(#mask-2)"></path>
                        <path d="M409.497934,213.369117 L436.949477,213.369117 L423.22895,190.824165 L409.497934,213.369117 Z M452.369335,222.038638 L394.078076,222.038638 L423.22895,174.16735 L452.369335,222.038638 Z" id="Fill-46" fill="#2E9F5F" mask="url(#mask-2)"></path>
                        <polygon id="Fill-47" fill="#2E9F5F" mask="url(#mask-2)" points="393.500093 57.2201345 422.24187 57.2201345 422.24187 28.4616762 393.500093 28.4616762"></polygon>
                        <polygon id="Fill-48" fill="#2E9F5F" mask="url(#mask-2)" points="706.869373 207.026513 725.939646 207.026513 725.939646 187.955666 706.869373 187.955666"></polygon>
                        <path d="M644.789234,111.373151 C644.789234,118.394833 639.103817,124.08355 632.075718,124.08355 C625.058109,124.08355 619.372692,118.394833 619.372692,111.373151 C619.372692,104.351469 625.058109,98.6522566 632.075718,98.6522566 C639.103817,98.6522566 644.789234,104.351469 644.789234,111.373151" id="Fill-49" fill="#2E9F5F" mask="url(#mask-2)"></path>
                        <path d="M530.898372,183.747905 C532.901904,187.222011 531.716568,191.651233 528.244478,193.655929 C524.782877,195.660624 520.345734,194.464104 518.342202,191.000494 C516.338669,187.526389 517.534495,183.097166 520.996096,181.092471 C524.468186,179.087775 528.894839,180.273799 530.898372,183.747905" id="Fill-50" fill="#2E9F5F" mask="url(#mask-2)"></path>
                        <polygon id="Fill-51" fill="#2E9F5F" mask="url(#mask-2)" points="634.16107 212.247118 604.580118 212.247118 619.370594 187.959865"></polygon>
                        <polygon id="Fill-52" fill="#2E9F5F" mask="url(#mask-2)" points="690.987968 127.552408 740.81404 127.552408 740.81404 117.05662 690.987968 117.05662"></polygon>
                        <polygon id="Fill-53" fill="#2E9F5F" mask="url(#mask-2)" points="449.710196 138.991767 433.325286 109.078772 439.619106 105.625658 456.004016 135.538653"></polygon>
                    </g>
                </g>
            </g>
        </g>
    </g>
</svg>