<?xml version="1.0" encoding="UTF-8"?>
<svg width="1227px" height="344px" viewBox="0 0 1227 344" version="1.1" xmlns="http://www.w3.org/2000/svg" xmlns:xlink="http://www.w3.org/1999/xlink">
    <!-- Generator: Sketch 44.1 (41455) - http://www.bohemiancoding.com/sketch -->
    <title>bg-inventions</title>
    <desc>Created with Sketch.</desc>
    <defs>
        <polygon id="path-1" points="0 0.357476615 0 26.0402329 28.8802049 26.0402329 28.8802049 0.357476615 8.32428936e-20 0.357476615"></polygon>
        <polygon id="path-3" points="35.4557815 0.0778252126 0.478787719 0.0778252126 0.478787719 34.8431128 35.4557815 34.8431128 35.4557815 0.0778252126"></polygon>
        <polygon id="path-5" points="35.5144066 0.0778252126 0.537412841 0.0778252126 0.537412841 34.8431128 35.5144066 34.8431128"></polygon>
    </defs>
    <g id="exportables" stroke="none" stroke-width="1" fill="none" fill-rule="evenodd">
        <g id="Artboard" transform="translate(-195.000000, -74.000000)">
            <g id="bg-inventions" transform="translate(195.000000, 74.000000)">
                <g id="Page-1" transform="translate(0.755556, 0.000000)">
                    <path d="M178.973859,295.813943 L201.77693,287.049508 L192.959743,264.385918 L170.156671,273.150353 L178.973859,295.813943 Z M212.317016,291.68663 L174.314969,306.297074 L159.613514,268.513231 L197.618633,253.902786 L212.317016,291.68663 Z" id="Fill-1" fill="#D60F3D"></path>
                    <g id="Group-119" transform="translate(0.000000, 0.468371)">
                        <path d="M298.011112,274.802114 C294.832502,276.023213 291.365207,275.977422 288.217308,274.664741 C285.738914,273.62986 282.867416,274.796009 281.823235,277.265681 L274.237566,274.103035 C277.0415,267.478575 284.734657,264.343405 291.395918,267.124457 C292.602868,267.631213 293.972588,267.545736 295.136543,267.145826 C296.343493,266.651281 297.286327,265.723246 297.789991,264.529622 C298.296726,263.332946 298.302868,262.017212 297.811489,260.81443 C297.313967,259.611648 296.380347,258.677507 295.179539,258.17991 C288.512136,255.395805 285.367308,247.745622 288.158957,241.118109 C289.516392,237.912726 292.046995,235.418632 295.290099,234.099845 C298.585411,232.875694 302.095702,232.802428 305.320379,234.148689 C306.521187,234.646287 307.900121,234.634076 309.057933,234.163953 C310.264884,233.672461 311.207718,232.741373 311.711381,231.547749 L319.29705,234.710394 C316.50233,241.337907 308.809172,244.466972 302.141769,241.68592 C300.934819,241.179164 299.626521,241.267694 298.398073,241.664551 C297.194194,242.162149 296.25136,243.087131 295.747696,244.283807 C294.703515,246.750427 295.876683,249.604745 298.36122,250.636573 C301.585896,251.979781 304.095002,254.498297 305.418655,257.718945 C306.745379,260.942645 306.726952,264.480778 305.375659,267.69532 C304.021295,270.900704 301.490692,273.394798 298.247588,274.713585 C298.167739,274.741059 298.08789,274.771587 298.011112,274.802114" id="Fill-2" fill="#D60F3D"></path>
                        <path d="M114.487695,343.453193 C113.179397,341.816921 112.586671,339.771581 112.826218,337.698766 C113.062695,335.625951 114.103805,333.766829 115.746854,332.466359 C117.009085,331.46811 117.220992,329.630357 116.213665,328.375678 C115.731499,327.762076 115.034354,327.37743 114.25429,327.291953 C113.477296,327.206476 112.715658,327.417116 112.104505,327.908608 C110.458384,329.209078 108.394591,329.786047 106.312371,329.554038 C104.224009,329.318977 102.356768,328.287149 101.04847,326.647824 C98.3520265,323.28675 98.9140416,318.353511 102.30763,315.667095 C102.921854,315.184761 103.308815,314.491787 103.397878,313.722495 C103.48694,312.95015 103.268891,312.186964 102.780583,311.579467 L106.63791,308.523668 C107.949279,310.15994 108.538934,312.20528 108.299386,314.278095 C108.06291,316.35091 107.024871,318.20698 105.381822,319.50745 C104.119591,320.505698 103.907684,322.346504 104.908869,323.59813 C105.400249,324.211732 106.097393,324.593325 106.874386,324.681855 C107.645238,324.770385 108.41916,324.562798 109.030313,324.068253 C110.670292,322.783047 112.724871,322.184708 114.810162,322.41977 C116.901596,322.657884 118.771908,323.68666 120.077134,325.322932 C122.77665,328.696217 122.211563,333.623349 118.821046,336.306714 C118.203751,336.789048 117.81679,337.485074 117.730798,338.254366 C117.638665,339.026711 117.862856,339.789897 118.345022,340.397394 L114.487695,343.453193 Z" id="Fill-4" fill="#D60F3D"></path>
                        <polygon id="Fill-6" fill="#D60F3D" points="357.077669 319.889959 313.354124 336.698381 309.794695 327.5493 353.51824 310.740878"></polygon>
                        <path d="M524.276852,162.604828 L547.079923,153.83734 L538.262735,131.17375 L515.459664,139.938185 L524.276852,162.604828 Z M557.620009,158.474462 L519.617961,173.084906 L504.916507,135.304116 L542.921625,120.693671 L557.620009,158.474462 Z" id="Fill-8" fill="#D60F3D"></path>
                        <path d="M519.532277,228.739528 C513.506738,231.056562 510.503182,237.809237 512.831092,243.801779 C515.162072,249.788215 521.955391,252.770748 527.98093,250.453713 C534.006469,248.139732 537.013096,241.387056 534.685187,235.40062 C532.354206,229.408079 525.557816,226.422493 519.532277,228.739528 M530.923064,258.015366 C520.708516,261.941198 509.1826,256.876692 505.233139,246.723257 C501.280607,236.56677 506.375596,225.106759 516.590144,221.177875 C526.807762,217.252043 538.333678,222.322654 542.283139,232.479142 C546.235672,242.632577 541.137611,254.089534 530.923064,258.015366" id="Fill-10" fill="#D60F3D"></path>
                        <path d="M459.79253,210.709396 C458.481161,209.073124 457.891506,207.030837 458.131054,204.954969 C458.36753,202.882154 459.405569,201.023032 461.051689,199.722562 C462.310849,198.724313 462.525827,196.88656 461.5185,195.631881 C461.033263,195.018279 460.339189,194.633633 459.559125,194.551209 C458.782131,194.465732 458.023564,194.673319 457.40934,195.164811 C455.76322,196.468334 453.699427,197.04225 451.617207,196.810241 C449.528845,196.578233 447.658532,195.543352 446.350235,193.90708 C443.656862,190.542953 444.218877,185.609715 447.612465,182.923298 C448.226689,182.440964 448.613651,181.74799 448.702713,180.981751 C448.791776,180.206353 448.570655,179.443167 448.082347,178.83567 L451.942745,175.779871 C453.251043,177.419196 453.843769,179.461483 453.604222,181.534298 C453.367745,183.607113 452.326636,185.463183 450.683586,186.763653 C449.424426,187.761901 449.209448,189.602707 450.213704,190.854333 C450.702013,191.467935 451.402228,191.852581 452.179222,191.941111 C452.950073,192.026588 453.720924,191.819001 454.335148,191.324456 C455.975127,190.03925 458.029707,189.440911 460.114998,189.675973 C462.20336,189.914087 464.076743,190.942863 465.38197,192.579135 C468.078414,195.95242 467.516399,200.879553 464.12281,203.565969 C463.508586,204.048303 463.121625,204.741277 463.035633,205.510569 C462.9435,206.282914 463.167692,207.0461 463.652929,207.65665 L459.79253,210.709396 Z" id="Fill-12" fill="#D60F3D"></path>
                        <polygon id="Fill-14" fill="#D60F3D" points="398.983419 233.297889 373.763375 242.996464 364.009496 217.924257 389.229539 208.228734"></polygon>
                        <path d="M612.631766,205.432724 C615.011884,211.556533 611.949977,218.437424 605.79238,220.806355 C599.634783,223.175287 592.709406,220.128646 590.326216,214.007889 C587.946098,207.884079 591.008005,201.003189 597.165602,198.631205 C603.32627,196.265326 610.251647,199.308914 612.631766,205.432724" id="Fill-16" fill="#D60F3D"></path>
                        <path d="M537.239131,306.945398 C540.172051,309.296013 540.632719,313.563752 538.271027,316.479125 C535.906264,319.391445 531.615909,319.855463 528.682988,317.504848 C525.750068,315.154233 525.286329,310.886494 527.651092,307.974173 C530.012784,305.058801 534.30621,304.597836 537.239131,306.945398" id="Fill-18" fill="#D60F3D"></path>
                        <polygon id="Fill-20" fill="#D60F3D" points="637.521664 296.958338 611.56148 306.937766 616.30022 280.76657"></polygon>
                        <polygon id="Fill-22" fill="#D60F3D" points="450.815951 295.315655 426.289981 274.770671 430.641759 269.632899 455.1708 290.180935"></polygon>
                        <path d="M97.9896343,87.195273 L120.792706,78.4308379 L111.975518,55.7641951 L89.1693756,64.5316831 L97.9896343,87.195273 Z M131.332792,83.064907 L93.3307442,97.6784045 L78.6292893,59.8945611 L116.634408,45.2841164 L131.332792,83.064907 Z" id="Fill-24" fill="#D60F3D"></path>
                        <path d="M93.2432172,153.330278 C87.2207495,155.647313 84.2141223,162.403041 86.5420318,168.39253 C88.8730124,174.378965 95.6694026,177.364552 101.69187,175.047517 C107.717409,172.730482 110.724036,165.977807 108.396127,159.991371 C106.065146,154.001883 99.268756,151.013244 93.2432172,153.330278 M104.634004,182.606117 C94.4194564,186.535002 82.8935404,181.470496 78.9440792,171.314008 C74.9915468,161.15752 80.0865361,149.700563 90.3010836,145.768625 C100.518702,141.842793 112.044618,146.913405 115.997151,157.069893 C119.946612,167.22638 114.851623,178.680285 104.634004,182.606117" id="Fill-26" fill="#D60F3D"></path>
                        <path d="M217.025352,66.6518155 C213.846742,67.8729141 210.379446,67.8240702 207.231548,66.5144419 C204.753153,65.4765081 201.881655,66.6426573 200.840546,69.1153819 L193.254877,65.9496838 C196.055739,59.3282767 203.748897,56.193106 210.413229,58.9741581 C211.617108,59.480914 212.989899,59.3954371 214.150783,58.9924745 C215.357733,58.5009824 216.300567,57.5698947 216.804231,56.3793235 C217.310966,55.1795942 217.317108,53.8638604 216.825729,52.6610783 C216.328207,51.4582962 215.397658,50.5241558 214.196849,50.0265581 C207.526375,47.245506 204.381548,39.5922706 207.176268,32.9678107 C208.530632,29.7593741 211.061235,27.268333 214.304339,25.9495465 C217.599651,24.7223424 221.109942,24.6521292 224.33769,25.9953377 C225.538498,26.4929354 226.917431,26.4837771 228.072173,26.0106014 C229.282194,25.522162 230.221957,24.5910743 230.725621,23.3943977 L238.31436,26.5600958 C235.516569,33.1876084 227.823412,36.3166736 221.156009,33.5356215 C219.95213,33.0258129 218.643832,33.1143425 217.415384,33.5142523 C216.208434,34.0087972 215.265599,34.9368322 214.761936,36.130456 C213.717755,38.5970752 214.893994,41.4544459 217.375459,42.4862742 C220.603207,43.8294827 223.112313,46.3479986 224.435966,49.5655934 C225.76269,52.7892937 225.744263,56.3304796 224.389899,59.5419689 C223.035535,62.7504055 220.504931,65.2414466 217.261828,66.5602331 C217.181979,66.5907606 217.105201,66.621288 217.025352,66.6518155" id="Fill-28" fill="#D60F3D"></path>
                        <path d="M33.50347,135.302895 C32.1951726,133.66357 31.6024463,131.621282 31.8419937,129.545415 C32.07847,127.475652 33.11958,125.613477 34.7626295,124.313007 C36.0248602,123.314759 36.2367675,121.480058 35.2294399,120.222327 C34.7442028,119.611778 34.0470584,119.227131 33.2700649,119.141655 C32.4930713,119.056178 31.7314334,119.263764 31.1202804,119.758309 C29.4741597,121.058779 27.4103666,121.635748 25.3281467,121.40374 C23.2397846,121.168678 21.3725432,120.13685 20.0642458,118.497525 C17.3678018,115.133398 17.9298169,110.20016 21.3234053,107.513743 C21.9376295,107.031409 22.3245907,106.341489 22.4136532,105.572196 C22.5027157,104.796799 22.2846661,104.033612 21.7963579,103.426116 L25.6536855,100.370316 C26.9650541,102.009641 27.5547092,104.051929 27.3151618,106.124744 C27.0786855,108.200611 26.0406467,110.056681 24.3975971,111.357151 C23.1353665,112.355399 22.9203881,114.193152 23.9246446,115.444779 C24.4160239,116.058381 25.1131683,116.443027 25.8901618,116.531556 C26.6610131,116.617033 27.4318644,116.409446 28.0460885,115.914902 C29.686067,114.629695 31.7406468,114.03441 33.8259377,114.269471 C35.9142998,114.504533 37.7876834,115.536361 39.0929097,117.172633 C41.7924248,120.545918 41.2273386,125.469998 37.8337503,128.156415 C37.2195261,128.638749 36.8325649,129.331722 36.7435024,130.101014 C36.6544399,130.876412 36.8786317,131.636546 37.3607977,132.247095 L33.50347,135.302895 Z" id="Fill-30" fill="#D60F3D"></path>
                        <path d="M14.4680497,298.311925 L38.5579205,289.052945 L18.8689656,274.03038 L14.4680497,298.311925 Z M55.031412,291.406613 L3.88189658,311.072406 L13.2181035,259.508465 L55.031412,291.406613 Z" id="Fill-32" fill="#D60F3D"></path>
                        <polygon id="Fill-34" fill="#D60F3D" points="289.996101 186.042899 273.264635 192.471983 266.793784 175.843673 283.52525 169.411536"></polygon>
                        <path d="M186.342706,130.023169 C188.725896,136.146979 185.663988,143.030922 179.50332,145.396801 C173.345723,147.765732 166.420346,144.719091 164.037156,138.601387 C161.653967,132.477578 164.715874,125.593634 170.876542,123.224703 C177.03721,120.858824 183.962587,123.902413 186.342706,130.023169" id="Fill-36" fill="#D60F3D"></path>
                        <path d="M110.950378,231.538896 C113.883298,233.889511 114.343966,238.154198 111.982274,241.069571 C109.620583,243.984944 105.327156,244.445908 102.394236,242.095293 C99.4613153,239.744679 98.9975761,235.479992 101.362339,232.564619 C103.724031,229.649246 108.017458,229.188281 110.950378,231.538896" id="Fill-38" fill="#D60F3D"></path>
                        <polygon id="Fill-40" fill="#D60F3D" points="211.231068 221.549088 185.270885 231.528517 190.012695 205.360374"></polygon>
                        <polygon id="Fill-42" fill="#D60F3D" points="276.093445 111.736607 232.369899 128.548082 228.81047 119.395948 272.534016 102.587526"></polygon>
                        <g id="Group-46" transform="translate(0.000000, 193.869225)">
                            <mask id="mask-2" fill="white">
                                <use xlink:href="#path-1"></use>
                            </mask>
                            <g id="Clip-45"></g>
                        </g>
                        <path d="M438.548052,20.5880078 C432.522514,22.9019897 429.515886,29.6577177 431.846867,35.650259 C434.177848,41.6366949 440.974238,44.622281 446.996706,42.3052464 C453.022244,39.9882118 456.028872,33.2355365 453.697891,27.2491007 C451.36691,21.2565593 444.573591,18.2709732 438.548052,20.5880078 M449.935768,49.8638467 C439.721221,53.7896787 428.198376,48.7251723 424.245843,38.5717374 C420.296382,28.4152498 425.391371,16.9552395 435.605919,13.0263547 C445.823537,9.10052275 457.349453,14.1711347 461.301986,24.3276223 C465.251447,34.4810571 460.156458,45.9380147 449.935768,49.8638467" id="Fill-47" fill="#D60F3D"></path>
                        <path d="M359.772578,165.568129 L383.862449,156.309148 L364.170423,141.286583 L359.772578,165.568129 Z M400.33594,158.662816 L349.186425,178.331662 L358.522632,126.764668 L400.33594,158.662816 Z" id="Fill-49" fill="#D60F3D"></path>
                        <g id="Group-53" transform="translate(282.543105, 0.000000)">
                            <mask id="mask-4" fill="white">
                                <use xlink:href="#path-3"></use>
                            </mask>
                            <g id="Clip-52"></g>
                            <polygon id="Fill-51" fill="#EBC800" mask="url(#mask-4)" points="35.4557815 25.14759 10.2357382 34.8431128 0.478787719 9.77090588 25.7019021 0.0753830154"></polygon>
                        </g>
                        <polygon id="Fill-54" fill="#D60F3D" points="635.299094 53.2991023 618.570699 59.7281865 612.096777 43.0998763 628.831313 36.6677394"></polygon>
                        <path d="M456.25337,98.7950992 C459.186291,101.145714 459.646959,105.410401 457.288338,108.325774 C454.923575,111.241147 450.630148,111.702111 447.697228,109.351497 C444.764308,107.000882 444.30364,102.736195 446.665332,99.820822 C449.027023,96.9054491 453.323521,96.4444844 456.25337,98.7950992" id="Fill-56" fill="#D60F3D"></path>
                        <polygon id="Fill-58" fill="#D60F3D" points="556.535596 88.8052915 530.575413 98.7877726 535.317223 72.6165769"></polygon>
                        <polygon id="Fill-60" fill="#D60F3D" points="369.831727 87.1656614 345.305757 66.6176247 349.657535 61.4829051 374.183505 82.0309418"></polygon>
                        <path d="M767.129407,295.345572 L789.932478,286.581137 L781.115291,263.917547 L758.312219,272.681982 L767.129407,295.345572 Z M800.472565,291.218258 L762.467446,305.828703 L747.769062,268.04486 L785.77111,253.434415 L800.472565,291.218258 Z" id="Fill-62" fill="#D60F3D"></path>
                        <path d="M886.165432,274.802114 C882.989893,276.023213 879.519526,275.977422 876.371628,274.664741 C873.893233,273.62986 871.021735,274.796009 869.980625,277.265681 L862.394957,274.103035 C865.195819,267.478575 872.892048,264.343405 879.553309,267.124457 C880.757188,267.631213 882.129979,267.545736 883.290863,267.145826 C884.497813,266.651281 885.443718,265.723246 885.947382,264.529622 C886.451046,263.332946 886.460259,262.017212 885.965809,260.81443 C885.468287,259.611648 884.537738,258.677507 883.333858,258.17991 C876.666455,255.395805 873.524699,247.745622 876.316347,241.118109 C877.670712,237.912726 880.204386,235.418632 883.444419,234.099845 C886.739731,232.875694 890.250022,232.802428 893.47777,234.148689 C894.675507,234.646287 896.057511,234.634076 897.212253,234.163953 C898.419203,233.672461 899.362037,232.741373 899.865701,231.547749 L907.45444,234.710394 C904.656649,241.337907 896.963492,244.466972 890.296089,241.68592 C889.089138,241.179164 887.783912,241.267694 886.555464,241.664551 C885.348513,242.162149 884.405679,243.087131 883.902016,244.283807 C882.860906,246.750427 884.034074,249.604745 886.515539,250.636573 C889.740216,251.979781 892.252393,254.498297 893.576046,257.718945 C894.90277,260.942645 894.884343,264.480778 893.529979,267.69532 C892.175615,270.900704 889.645011,273.394798 886.401908,274.713585 C886.32513,274.741059 886.24221,274.771587 886.165432,274.802114" id="Fill-64" fill="#D60F3D"></path>
                        <path d="M702.642014,343.453193 C701.333717,341.816921 700.744062,339.771581 700.983609,337.698766 C701.220085,335.625951 702.258124,333.766829 703.901174,332.466359 C705.163404,331.46811 705.378383,329.630357 704.367984,328.375678 C703.885818,327.762076 703.188674,327.37743 702.41168,327.291953 C701.634687,327.206476 700.873049,327.417116 700.258825,327.908608 C698.612704,329.209078 696.551982,329.786047 694.469762,329.554038 C692.3814,329.318977 690.511088,328.287149 689.20279,326.647824 C686.506346,323.28675 687.071432,318.353511 690.46195,315.667095 C691.076174,315.184761 691.463135,314.491787 691.555269,313.722495 C691.64126,312.95015 691.42321,312.186964 690.934902,311.579467 L694.795301,308.523668 C696.103598,310.15994 696.693254,312.20528 696.453706,314.278095 C696.21723,316.35091 695.179191,318.20698 693.536141,319.50745 C692.273911,320.505698 692.062004,322.346504 693.06626,323.59813 C693.554568,324.211732 694.251713,324.593325 695.028706,324.681855 C695.799557,324.770385 696.57348,324.562798 697.187704,324.068253 C698.827682,322.783047 700.882262,322.184708 702.964482,322.41977 C705.055915,322.657884 706.929299,323.68666 708.234525,325.322932 C710.930969,328.696217 710.365883,333.623349 706.975366,336.306714 C706.361142,336.789048 705.97418,337.485074 705.885118,338.254366 C705.792984,339.026711 706.017176,339.789897 706.502413,340.397394 L702.642014,343.453193 Z" id="Fill-66" fill="#D60F3D"></path>
                        <path d="M1112.4324,162.604828 L1135.23547,153.83734 L1126.41828,131.17375 L1103.61521,139.938185 L1112.4324,162.604828 Z M1145.77556,158.474462 L1107.77351,173.084906 L1093.07205,135.304116 L1131.07717,120.693671 L1145.77556,158.474462 Z" id="Fill-70" fill="#D60F3D"></path>
                        <path d="M1107.68783,228.739528 C1101.66229,231.056562 1098.65873,237.809237 1100.98664,243.801779 C1103.31455,249.788215 1110.11094,252.770748 1116.13648,250.453713 C1122.16202,248.139732 1125.16864,241.387056 1122.84073,235.40062 C1120.50975,229.408079 1113.71336,226.422493 1107.68783,228.739528 M1119.07861,258.015366 C1108.86406,261.941198 1097.33815,256.876692 1093.38869,246.723257 C1089.43615,236.56677 1094.53114,225.106759 1104.74569,221.177875 C1114.96331,217.252043 1126.48923,222.322654 1130.43869,232.479142 C1134.38815,242.632577 1129.29316,254.089534 1119.07861,258.015366" id="Fill-72" fill="#D60F3D"></path>
                        <path d="M1047.94808,210.709396 C1046.63671,209.073124 1046.04705,207.030837 1046.2866,204.954969 C1046.52308,202.882154 1047.56112,201.023032 1049.20417,199.722562 C1050.4664,198.724313 1050.68138,196.88656 1049.67405,195.631881 C1049.18881,195.018279 1048.49167,194.633633 1047.71467,194.551209 C1046.93768,194.465732 1046.17604,194.673319 1045.56489,195.164811 C1043.91877,196.468334 1041.85497,197.04225 1039.77275,196.810241 C1037.68439,196.578233 1035.81715,195.543352 1034.50578,193.90708 C1031.81241,190.542953 1032.37442,185.609715 1035.76494,182.923298 C1036.38224,182.440964 1036.7692,181.74799 1036.85826,180.981751 C1036.94732,180.206353 1036.72927,179.443167 1036.23789,178.83567 L1040.09829,175.779871 C1041.40659,177.419196 1041.99932,179.461483 1041.75977,181.534298 C1041.52329,183.607113 1040.48218,185.463183 1038.83913,186.763653 C1037.5769,187.761901 1037.365,189.602707 1038.36925,190.854333 C1038.85756,191.467935 1039.55778,191.852581 1040.33477,191.941111 C1041.10562,192.026588 1041.87647,191.819001 1042.4907,191.324456 C1044.13068,190.03925 1046.18525,189.440911 1048.27055,189.675973 C1050.35891,189.914087 1052.23229,190.942863 1053.53752,192.579135 C1056.23396,195.95242 1055.67195,200.879553 1052.27836,203.565969 C1051.66413,204.048303 1051.27717,204.741277 1051.18811,205.510569 C1051.09905,206.282914 1051.32324,207.0461 1051.80541,207.65665 L1047.94808,210.709396 Z" id="Fill-74" fill="#D60F3D"></path>
                        <polygon id="Fill-76" fill="#D60F3D" points="987.140502 233.297889 961.917388 242.996464 952.163508 217.924257 977.383552 208.228734"></polygon>
                        <path d="M1200.78731,205.432724 C1203.16743,211.556533 1200.10553,218.437424 1193.94486,220.806355 C1187.79033,223.175287 1180.86495,220.128646 1178.48176,214.007889 C1176.09857,207.884079 1179.16048,201.003189 1185.32115,198.631205 C1191.48182,196.265326 1198.4072,199.308914 1200.78731,205.432724" id="Fill-78" fill="#D60F3D"></path>
                        <path d="M1125.39468,306.945398 C1128.3276,309.296013 1128.78827,313.563752 1126.42658,316.479125 C1124.06181,319.391445 1119.77146,319.855463 1116.83854,317.504848 C1113.90562,315.154233 1113.44188,310.886494 1115.80664,307.974173 C1118.16833,305.058801 1122.46176,304.597836 1125.39468,306.945398" id="Fill-80" fill="#D60F3D"></path>
                        <polygon id="Fill-82" fill="#D60F3D" points="1225.67414 296.958338 1199.71703 306.937766 1204.45577 280.76657"></polygon>
                        <polygon id="Fill-84" fill="#D60F3D" points="1038.9715 295.315655 1014.44553 274.770671 1018.79731 269.632899 1043.32328 290.180935"></polygon>
                        <path d="M686.143647,87.195273 L708.946718,78.4308379 L700.129531,55.7641951 L677.326459,64.5316831 L686.143647,87.195273 Z M719.486804,83.064907 L681.484757,97.6784045 L666.783302,59.8945611 L704.788421,45.2841164 L719.486804,83.064907 Z" id="Fill-86" fill="#D60F3D"></path>
                        <path d="M681.399072,153.330278 C675.373534,155.647313 672.369978,162.403041 674.697887,168.39253 C677.025797,174.378965 683.822187,177.364552 689.847725,175.047517 C695.873264,172.730482 698.879891,165.977807 696.551982,159.991371 C694.221001,154.001883 687.424611,151.013244 681.399072,153.330278 M692.789859,182.606117 C682.575312,186.535002 671.049396,181.470496 667.099934,171.314008 C663.147402,161.15752 668.242391,149.700563 678.456939,145.768625 C688.674557,141.842793 700.200473,146.913405 704.149935,157.069893 C708.102467,167.22638 703.004407,178.680285 692.789859,182.606117" id="Fill-88" fill="#D60F3D"></path>
                        <path d="M805.182435,66.6518155 C802.003825,67.8729141 798.53653,67.8240702 795.38556,66.5144419 C792.907166,65.4765081 790.035668,66.6426573 788.994558,69.1153819 L781.40889,65.9496838 C784.212823,59.3282767 791.90598,56.193106 798.567241,58.9741581 C799.771121,59.480914 801.143912,59.3954371 802.307866,58.9924745 C803.511746,58.5009824 804.457651,57.5698947 804.961315,56.3793235 C805.46805,55.1795942 805.474192,53.8638604 804.979741,52.6610783 C804.48222,51.4582962 803.55167,50.5241558 802.350862,50.0265581 C795.680388,47.245506 792.538631,39.5922706 795.33028,32.9678107 C796.684644,29.7593741 799.218319,27.268333 802.458351,25.9495465 C805.756735,24.7223424 809.263955,24.6521292 812.491703,25.9953377 C813.692511,26.4929354 815.071444,26.4837771 816.226185,26.0106014 C817.436207,25.522162 818.379041,24.5910743 818.882705,23.3943977 L826.468373,26.5600958 C823.673653,33.1876084 815.980496,36.3166736 809.313093,33.5356215 C808.106142,33.0258129 806.797845,33.1143425 805.569397,33.5142523 C804.362446,34.0087972 803.422683,34.9368322 802.919019,36.130456 C801.874838,38.5970752 803.048006,41.4544459 805.529472,42.4862742 C808.75722,43.8294827 811.266325,46.3479986 812.589978,49.5655934 C813.916703,52.7892937 813.898276,56.3304796 812.546983,59.5419689 C811.189547,62.7504055 808.662015,65.2414466 805.41584,66.5602331 C805.339062,66.5907606 805.259213,66.621288 805.182435,66.6518155" id="Fill-90" fill="#D60F3D"></path>
                        <path d="M621.659018,135.302895 C620.34765,133.66357 619.757994,131.621282 619.997542,129.545415 C620.234018,127.475652 621.272057,125.613477 622.915107,124.313007 C624.177337,123.314759 624.392316,121.480058 623.384988,120.222327 C622.899751,119.611778 622.205678,119.227131 621.425613,119.141655 C620.648619,119.056178 619.886981,119.263764 619.275828,119.758309 C617.629708,121.058779 615.565915,121.635748 613.483695,121.40374 C611.395333,121.168678 609.528091,120.13685 608.216723,118.497525 C605.52335,115.133398 606.085365,110.20016 609.478953,107.513743 C610.093178,107.031409 610.480139,106.341489 610.569201,105.572196 C610.658264,104.796799 610.440214,104.033612 609.948835,103.426116 L613.809234,100.370316 C615.117531,102.009641 615.710257,104.051929 615.47071,106.124744 C615.234234,108.200611 614.193124,110.056681 612.550074,111.357151 C611.287843,112.355399 611.079007,114.193152 612.080193,115.444779 C612.568501,116.058381 613.268716,116.443027 614.04571,116.531556 C614.816561,116.617033 615.587412,116.409446 616.201637,115.914902 C617.841615,114.629695 619.896195,114.03441 621.981486,114.269471 C624.069848,114.504533 625.943232,115.536361 627.248458,117.172633 C629.944902,120.545918 629.382887,125.469998 625.989298,128.156415 C625.375074,128.638749 624.988113,129.331722 624.89905,130.101014 C624.809988,130.876412 625.03418,131.636546 625.516346,132.247095 L621.659018,135.302895 Z" id="Fill-92" fill="#D60F3D"></path>
                        <polygon id="Fill-94" fill="#D60F3D" points="878.151649 186.042899 861.420184 192.471983 854.949332 175.843673 871.680798 169.411536"></polygon>
                        <path d="M774.498254,130.023169 C776.878373,136.146979 773.816465,143.030922 767.655797,145.396801 C761.501271,147.765732 754.575894,144.719091 752.192704,138.601387 C749.809515,132.477578 752.871422,125.593634 759.03209,123.224703 C765.192758,120.858824 772.118136,123.902413 774.498254,130.023169" id="Fill-96" fill="#D60F3D"></path>
                        <path d="M699.105926,231.538896 C702.038846,233.889511 702.499514,238.154198 700.137823,241.069571 C697.77306,243.984944 693.482704,244.445908 690.549784,242.095293 C687.616863,239.744679 687.153124,235.479992 689.517887,232.564619 C691.879579,229.649246 696.173006,229.188281 699.105926,231.538896" id="Fill-98" fill="#D60F3D"></path>
                        <polygon id="Fill-100" fill="#D60F3D" points="799.388152 221.549088 773.427968 231.528517 778.166708 205.360374"></polygon>
                        <polygon id="Fill-102" fill="#D60F3D" points="864.247457 111.736607 820.526983 128.548082 816.964483 119.395948 860.688028 102.587526"></polygon>
                        <path d="M1026.70207,20.5880078 C1020.67653,22.9019897 1017.67297,29.6577177 1020.00088,35.650259 C1022.33186,41.6366949 1029.12825,44.622281 1035.15379,42.3052464 C1041.17626,39.9882118 1044.18288,33.2355365 1041.85497,27.2491007 C1039.52399,21.2565593 1032.7276,18.2709732 1026.70207,20.5880078 M1038.09285,49.8638467 C1027.8783,53.7896787 1016.35239,48.7251723 1012.40293,38.5717374 C1008.45347,28.4152498 1013.54538,16.9552395 1023.763,13.0263547 C1033.97755,9.10052275 1045.50347,14.1711347 1049.45293,24.3276223 C1053.40546,34.4810571 1048.31047,45.9380147 1038.09285,49.8638467" id="Fill-104" fill="#D60F3D"></path>
                        <path d="M947.92659,165.568129 L972.019532,156.309148 L952.327506,141.286583 L947.92659,165.568129 Z M988.493024,158.662816 L937.340437,178.331662 L946.676644,126.764668 L988.493024,158.662816 Z" id="Fill-106" fill="#D60F3D"></path>
                        <g id="Group-110" transform="translate(870.640028, 0.000000)">
                            <mask id="mask-6" fill="white">
                                <use xlink:href="#path-5"></use>
                            </mask>
                            <g id="Clip-109"></g>
                            <polygon id="Fill-108" fill="#EBC800" mask="url(#mask-6)" points="35.5144066 25.14759 10.2912922 34.8431128 0.537412841 9.77090588 25.7605272 0.0753830154"></polygon>
                        </g>
                        <polygon id="Fill-111" fill="#D60F3D" points="1223.45464 53.2991023 1206.72318 59.7281865 1200.25232 43.0998763 1216.98686 36.6677394"></polygon>
                        <path d="M1044.40892,98.7950992 C1047.34184,101.145714 1047.80251,105.410401 1045.44082,108.325774 C1043.07912,111.241147 1038.7857,111.702111 1035.85278,109.351497 C1032.91986,107.000882 1032.45612,102.736195 1034.82088,99.820822 C1037.18257,96.9054491 1041.476,96.4444844 1044.40892,98.7950992" id="Fill-113" fill="#D60F3D"></path>
                        <polygon id="Fill-115" fill="#D60F3D" points="1144.69114 88.8052915 1118.73096 98.7877726 1123.47277 72.6165769"></polygon>
                        <polygon id="Fill-117" fill="#D60F3D" points="957.98881 87.1656614 933.459769 66.6176247 937.811547 61.4829051 962.340588 82.0309418"></polygon>
                    </g>
                </g>
            </g>
        </g>
    </g>
</svg>