<?xml version="1.0" encoding="UTF-8"?>
<svg width="22px" height="25px" viewBox="0 0 22 25" version="1.1" xmlns="http://www.w3.org/2000/svg" xmlns:xlink="http://www.w3.org/1999/xlink">
    <!-- Generator: Sketch 44.1 (41455) - http://www.bohemiancoding.com/sketch -->
    <title>user copy</title>
    <desc>Created with Sketch.</desc>
    <defs></defs>
    <g id="Page-1" stroke="none" stroke-width="1" fill="none" fill-rule="evenodd">
        <g id="Profile-Pagge" transform="translate(-252.000000, -814.000000)">
            <g id="user-copy" transform="translate(250.000000, 814.000000)">
                <rect id="cont" fill="#181818" opacity="0" x="0" y="0" width="26" height="26"></rect>
                <path d="M17.1363636,6.5 L17.1363636,8.27272727 C17.1363636,10.5571778 15.2844506,12.4090909 13,12.4090909 C10.7155494,12.4090909 8.86363636,10.5571778 8.86363636,8.27272727 L8.86363636,5.90909091" id="Oval-26" stroke="#000000" stroke-width="1.2" stroke-linecap="round" stroke-linejoin="round"></path>
                <path d="M9.53316971,14.8513515 C5.81328113,15.3863342 2.95454545,18.5865931 2.95454545,22.4545455 L2.95454545,23.0350027 C2.95454545,23.6934752 3.49192874,24.2272727 4.15115643,24.2272727 L21.8488436,24.2272727 C22.5097136,24.2272727 23.0454545,23.6857637 23.0454545,23.0350027 L23.0454545,22.4545455 C23.0454545,18.5865931 20.1867189,15.3863342 16.4668303,14.8513515 L13,18.3181818 L9.53316971,14.8513515 Z" id="Oval-28" stroke="#000000" stroke-width="1.2" stroke-linecap="round" stroke-linejoin="round"></path>
                <path d="M8.86363636,6.5 L8.86363636,5.35868011 C8.86363636,4.0309132 9.93480336,2.95454545 11.2272727,2.95454545 L11.2272727,2.95454545 L11.2272727,1.18181818 L14.5273496,1.84183355 C15.9682682,2.13001729 17.1363636,3.56004411 17.1363636,5.03002625 L17.1363636,6.5" id="Path-187" stroke="#000000" stroke-width="1.2" stroke-linecap="round" stroke-linejoin="round" transform="translate(13.000000, 3.840909) scale(-1, 1) translate(-13.000000, -3.840909) "></path>
                <path d="M17.1363636,7.68181818 C17.1363636,6.37641786 16.0781276,5.31818182 14.7727273,5.31818182 L11.2272727,5.31818182" id="Oval-43" stroke="#000000" stroke-width="1.2" stroke-linecap="round" stroke-linejoin="round"></path>
                <path d="M9.33439209,4.3703298 C9.76550504,4.94579528 10.4529011,5.31818182 11.2272727,5.31818182" id="Oval-43" stroke="#000000" stroke-width="1.2" stroke-linecap="round" stroke-linejoin="round"></path>
            </g>
        </g>
    </g>
</svg>