<?xml version="1.0" encoding="UTF-8"?>
<svg width="85px" height="114px" viewBox="0 0 85 114" version="1.1" xmlns="http://www.w3.org/2000/svg" xmlns:xlink="http://www.w3.org/1999/xlink">
    <!-- Generator: Sketch 42 (36781) - http://www.bohemiancoding.com/sketch -->
    <title>ico-trashrobot</title>
    <desc>Created with Sketch.</desc>
    <defs></defs>
    <g id="exportables" stroke="none" stroke-width="1" fill="none" fill-rule="evenodd">
        <g id="Artboard" transform="translate(-515.000000, -236.000000)" fill="#00D461">
            <g id="ico-trashrobot" transform="translate(515.000000, 236.000000)">
                <g id="Page-1">
                    <g>
                        <path d="M28.6257486,24.9852775 C27.7031541,24.9852775 26.8182351,25.2053605 25.9953432,25.6390808 C24.6573973,26.3449121 23.6736946,27.5300457 23.2252622,28.9776214 C22.7772892,30.4242763 22.9178838,31.9588724 23.6217757,33.2996296 C24.6041,35.1698754 26.5260189,36.3315273 28.6358568,36.3315273 L28.6363162,36.3315273 C29.5589108,36.3315273 30.4442892,36.1109838 31.2671811,35.6772636 C34.0289919,34.2209398 35.0926405,30.7843286 33.6393703,28.0167147 C32.6570459,26.1469294 30.7365054,24.9852775 28.6257486,24.9852775 M28.6363162,38.1851978 L28.6353973,38.1851978 C25.8368297,38.1851978 23.2882081,36.6436954 21.9851811,34.1633867 C21.0511,32.3838446 20.8641,30.3473854 21.4586405,28.4278741 C22.0531811,26.5079025 23.3585054,24.9350911 25.1338568,23.9990474 C26.2094514,23.4313435 27.4173703,23.131607 28.6257486,23.131607 C31.4252351,23.131607 33.9738568,24.672649 35.2764243,27.1529577 C37.2052351,30.8253064 35.7928568,35.3844334 32.1286676,37.317297 C31.053073,37.8854612 29.8451541,38.1851978 28.6363162,38.1851978" id="Fill-1"></path>
                        <path d="M29.948027,33.1659222 C28.565973,33.8947748 26.8558649,33.3634445 26.1285405,31.9775657 C25.4016757,30.593989 25.9318919,28.8798272 27.3139459,28.1514351 C28.6950811,27.4216617 30.4056486,27.9539128 31.1334324,29.3388708 C31.8607568,30.7233683 31.3296216,32.4370697 29.948027,33.1659222" id="Fill-3"></path>
                        <path d="M58.2698432,24.9852775 C57.3467892,24.9852775 56.4623297,25.2053605 55.6394378,25.6390808 C52.8785459,27.0954046 51.8135189,30.5320158 53.2663297,33.2996296 C54.2481946,35.1698754 56.1696541,36.3315273 58.2799514,36.3315273 L58.2804108,36.3315273 C59.2025459,36.3315273 60.0879243,36.1109838 60.9108162,35.6772636 C63.672627,34.2209398 64.7367351,30.7843286 63.2834649,28.0167147 C62.3006811,26.1469294 60.3806,24.9852775 58.2698432,24.9852775 M58.2804108,38.1851978 L58.2799514,38.1851978 C55.4804649,38.1851978 52.9323027,36.6436954 51.6297351,34.1633867 C49.7013838,30.491038 51.1137622,25.9314505 54.7774919,23.9990474 C55.8535459,23.4313435 57.0610054,23.131607 58.2698432,23.131607 C61.0693297,23.131607 63.6179514,24.672649 64.9200595,27.1529577 C66.8493297,30.8253064 65.4369514,35.3844334 61.7727622,37.317297 C60.6967081,37.8854612 59.4892486,38.1851978 58.2804108,38.1851978" id="Fill-5"></path>
                        <path d="M59.5921676,33.1659222 C58.2101135,33.8947748 56.5000054,33.3634445 55.7726811,31.9775657 C55.0458162,30.593989 55.5760324,28.8798272 56.9580865,28.1514351 C58.3392216,27.4216617 60.0497892,27.9539128 60.777573,29.3388708 C61.5048973,30.7233683 60.9737622,32.4370697 59.5921676,33.1659222" id="Fill-7"></path>
                        <g id="Group-11" transform="translate(0.918919, 35.842234)">
                            <path d="M0.0272918919,2.62732239 C1.24623784,12.0361045 2.46472432,21.4462678 3.68367027,30.8545894 C4.29337297,35.5596711 4.90261622,40.2638319 5.51231892,44.9684532 C5.62626486,45.8464834 5.73975135,46.7240532 5.8536973,47.6030042 C5.91021081,48.0413287 5.96764324,48.480574 6.0236973,48.9193589 C6.07837297,49.3392664 6.13488649,49.727865 6.38529189,50.0980465 C6.79880541,50.7067282 7.24953514,50.9433866 7.98467027,50.9387823 C8.70923784,50.9332572 9.29321081,50.5801114 9.94656216,50.3964019 C11.5955622,49.9313727 13.2298595,49.7085271 14.9422649,49.7085271 C21.3030216,49.7085271 27.1781297,52.9701768 30.5620486,58.3640541 C32.7472378,61.8494703 33.5889676,65.1981403 33.3459135,69.3023676 C33.2397784,71.1058517 32.8896703,72.8057403 32.2739946,74.5051685 C32.0396703,75.1488425 31.969373,75.6746476 32.3282108,76.3137174 C33.113427,77.710186 34.2606973,77.293041 35.4470216,77.293041 L37.6115351,77.293041 L41.9414811,77.293041 L50.5990757,77.293041 L56.0340216,77.293041 C60.5068595,77.293041 64.6043189,77.5904755 68.7026973,74.7487332 C75.0335892,70.3590426 74.8148865,64.5494017 75.6382378,58.1983011 C76.4381568,52.025385 77.2371568,45.8520085 78.0375351,39.6795528 C79.6364541,27.3346414 81.2367514,14.9892695 82.8361297,2.64389769 C83.0121027,1.28334222 81.7513459,0.180624673 80.4304,0.539756066 C54.4167243,7.61050068 28.4076432,7.45441665 2.42475135,0.520418222 C1.1061027,0.169114052 -0.148221622,1.27045032 0.0272918919,2.62732239" id="Fill-9"></path>
                        </g>
                        <g id="Group-14" transform="translate(0.000000, 0.389519)">
                            <path d="M42.3481486,20.807152 L1.91939189,20.807152 C0.746391892,20.807152 -0.151391892,19.762448 0.0213648649,18.5994148 C0.950851351,12.3592767 5.75587838,7.60907336 11.5450676,7.60907336 L26.1958514,7.60907336 C26.8616081,7.60907336 27.4662568,7.28723638 27.9289324,6.81852387 C29.5907973,4.89072497 31.2540405,2.9633865 32.9159054,1.0355876 C33.4135,0.436574854 34.1150946,0.0705370889 34.8993919,0.0705370889 L42.3481486,0.0705370889 L49.7964459,0.0705370889 C50.5812027,0.0705370889 51.2818784,0.436574854 51.779473,1.0355876 C53.4427162,2.9633865 55.1045811,4.89072497 56.7678243,6.81852387 C57.2291216,7.28723638 57.8351486,7.60907336 58.5013649,7.60907336 L73.1516892,7.60907336 C78.9395,7.60907336 83.744527,12.3592767 84.674473,18.5994148 C84.8486081,19.762448 83.9494459,20.807152 82.7764459,20.807152 L42.3481486,20.807152 Z" id="Fill-12"></path>
                        </g>
                    </g>
                </g>
            </g>
        </g>
    </g>
</svg>