<?xml version="1.0" encoding="UTF-8"?>
<svg width="31px" height="26px" viewBox="0 0 31 26" version="1.1" xmlns="http://www.w3.org/2000/svg" xmlns:xlink="http://www.w3.org/1999/xlink">
    <!-- Generator: Sketch 42 (36781) - http://www.bohemiancoding.com/sketch -->
    <title>ico-cart</title>
    <desc>Created with Sketch.</desc>
    <defs></defs>
    <g id="exportables" stroke="none" stroke-width="1" fill="none" fill-rule="evenodd">
        <g id="Artboard" transform="translate(-622.000000, -18.000000)" fill="#4A4A4A">
            <g id="ico-cart" transform="translate(622.000000, 18.000000)">
                <path d="M27.7078,16.5250526 L30.8374222,2.92397368 L6.57682222,2.92397368 L5.68057778,-3.55271368e-15 L1.01507778,-3.55271368e-15 C0.454321878,-3.55271368e-15 0,0.451578947 0,1.00818421 C0,1.56478947 0.454321878,2.01636842 1.01507778,2.01636842 L4.17432222,2.01636842 L8.70135556,16.8356842 L6.76213333,19.4955526 L6.14764444,20.2902632 C5.63201111,20.8691053 5.31891111,21.6292632 5.31891111,22.4616053 C5.31891111,24.2727105 6.80243333,25.7458158 8.62592222,25.7458158 C10.4494111,25.7458158 11.9329333,24.2624474 11.9329333,22.451 C11.9329333,22.0021579 11.8413111,21.5765789 11.6763222,21.1735789 L21.0992889,21.1735789 C20.9343,21.5769211 20.8426743,22.0014737 20.8426743,22.4506579 C20.8426743,24.2617632 22.3261966,25.7403421 24.1500299,25.7403421 C25.9731743,25.7403421 27.4566966,24.2689474 27.4566966,22.4578421 C27.4566966,20.6467368 25.9731743,19.1746579 24.1500299,19.1746579 C24.1155854,19.1746579 24.0814854,19.1671282 24.047041,19.1678158 C24.0301598,19.1671316 9.49633333,19.1565263 9.49633333,19.1565263 L10.3684667,17.9690789 L27.7078,16.5250526 Z M24.1496889,21.1927368 C24.8533889,21.1927368 25.4258556,21.7613158 25.4258556,22.4602368 C25.4258556,23.1598421 24.8533889,23.7284211 24.1496889,23.7284211 C23.4456444,23.7284211 22.8728333,23.1598421 22.8728333,22.4602368 C22.8728333,21.7613158 23.4456444,21.1927368 24.1496889,21.1927368 Z M9.90208889,22.4602368 C9.90208889,23.1598421 9.32962222,23.7284211 8.62557778,23.7284211 C7.92153333,23.7284211 7.34872222,23.1598421 7.34872222,22.4602368 C7.34872222,21.7613158 7.92153333,21.1927368 8.62557778,21.1927368 C9.32962222,21.1927368 9.90208889,21.7613158 9.90208889,22.4602368 Z M7.19234444,4.94034211 L28.2909444,4.94034211 L26.0589444,14.6397105 L10.5520556,15.9438158 L7.19234444,4.94034211 Z" id="Fill-1"></path>
            </g>
        </g>
    </g>
</svg>