<?xml version="1.0" encoding="UTF-8"?>
<svg width="18px" height="20px" viewBox="0 0 18 20" version="1.1" xmlns="http://www.w3.org/2000/svg" xmlns:xlink="http://www.w3.org/1999/xlink">
    <!-- Generator: Sketch 44.1 (41455) - http://www.bohemiancoding.com/sketch -->
    <title>cup</title>
    <desc>Created with Sketch.</desc>
    <defs></defs>
    <g id="Page-1" stroke="none" stroke-width="1" fill="none" fill-rule="evenodd">
        <g id="Project-page" transform="translate(-657.000000, -443.000000)">
            <g id="cup" transform="translate(655.000000, 442.000000)">
                <rect id="cont" fill="#181818" opacity="0" x="0" y="0" width="22" height="22"></rect>
                <path d="M11,14 C8.23857625,14 6,11.7614237 6,9 L6,3.50001041 C6,2.39543516 5.10529494,1.5 4,1.50000001 L18,1.5 C16.9023297,1.5 16.0124922,2.39549605 16.0124922,3.50009625 L16.0124922,4 L16.0124922,9.00000918 C16,11.7614237 13.7614237,14 11,14 Z" id="Oval-41-Copy-3" stroke="#000000" stroke-width="0.98" stroke-linecap="round" stroke-linejoin="round"></path>
                <path d="M5.5,4.5 C4.11928813,4.5 3,5.61928813 3,7 C3,8.38071187 4.11928813,9.5 5.5,9.5 L5.5,9.5" id="Oval-46" stroke="#000000" stroke-width="0.98" stroke-linecap="round" stroke-linejoin="round"></path>
                <path d="M19,4.5 C17.6192881,4.5 16.5,5.61928813 16.5,7 C16.5,8.38071187 17.6192881,9.5 19,9.5 L19,9.5" id="Oval-46-Copy" stroke="#000000" stroke-width="0.98" stroke-linecap="round" stroke-linejoin="round" transform="translate(17.750000, 7.000000) scale(-1, 1) translate(-17.750000, -7.000000) "></path>
                <path d="M11,12 L11,12 C9.34314575,12 8,10.6568542 8,9" id="Oval-41-Copy-4" stroke="#000000" stroke-width="0.98" stroke-linecap="round" stroke-linejoin="round"></path>
                <path d="M11,14 L11,20.5" id="Path-131-Copy-2" stroke="#000000" stroke-width="0.98"></path>
                <path d="M7,20.5 L15,20.5" id="Path-222-Copy" stroke="#000000" stroke-width="0.98" stroke-linecap="round"></path>
                <path d="" id="Path-231" stroke="#979797" stroke-width="0.5"></path>
            </g>
        </g>
    </g>
</svg>