<?xml version="1.0" encoding="UTF-8"?>
<svg width="19px" height="17px" viewBox="0 0 19 17" version="1.1" xmlns="http://www.w3.org/2000/svg" xmlns:xlink="http://www.w3.org/1999/xlink">
    <!-- Generator: Sketch 44.1 (41455) - http://www.bohemiancoding.com/sketch -->
    <title>heart</title>
    <desc>Created with Sketch.</desc>
    <defs></defs>
    <g id="Page-1" stroke="none" stroke-width="1" fill="none" fill-rule="evenodd">
        <g id="Project-page" transform="translate(-711.000000, -444.000000)">
            <g id="Group-2" transform="translate(680.000000, 442.000000)">
                <g id="heart" transform="translate(31.000000, 0.692146)">
                    <rect id="cont" fill="#181818" opacity="0" x="0" y="0" width="18.6666667" height="19.3800842"></rect>
                    <path d="M10.5759106,3.9328057 C12.2326803,2.21271624 14.9188347,2.21271624 16.5756045,3.9328057 C18.2323742,5.65289517 18.2323742,8.4417112 16.5756045,10.1618007 L9.54545445,17.4606345 L2.51530443,10.1618007 C0.858534704,8.4417112 0.858534704,5.65289517 2.51530443,3.9328057 C4.17207415,2.21271624 6.85822861,2.21271624 8.51499833,3.9328057 C9.00111822,4.43750451 9.34460359,5.03421205 9.54545445,5.66893498 C9.74630531,5.03421205 10.0897907,4.43750451 10.5759106,3.9328057 Z" id="Oval-26" stroke="#EC204F" stroke-width="1.3" stroke-linecap="round" stroke-linejoin="round"></path>
                    <path d="M5.51515152,4.40456458 C4.10933579,4.40456458 2.96969697,5.58775902 2.96969697,7.04730333" id="Oval-42" stroke="#EC204F" stroke-width="1.3" stroke-linecap="round" stroke-linejoin="round"></path>
                </g>
            </g>
        </g>
    </g>
</svg>