<?xml version="1.0" encoding="UTF-8"?>
<svg width="18px" height="17px" viewBox="0 0 18 17" version="1.1" xmlns="http://www.w3.org/2000/svg" xmlns:xlink="http://www.w3.org/1999/xlink">
    <!-- Generator: Sketch 44.1 (41455) - http://www.bohemiancoding.com/sketch -->
    <title>chat</title>
    <desc>Created with Sketch.</desc>
    <defs></defs>
    <g id="Page-1" stroke="none" stroke-width="1" fill="none" fill-rule="evenodd" opacity="0.329483696">
        <g id="Project-page" transform="translate(-764.000000, -444.000000)">
            <g id="Group-2" transform="translate(680.000000, 442.000000)">
                <g id="chat" transform="translate(83.666667, 0.692146)">
                    <rect id="cont" fill="#181818" opacity="0" x="0" y="0" width="18" height="18.6879383"></rect>
                    <path d="M8.59090909,14.4406796 L15.4740687,14.4406796 C16.1823097,14.4406796 16.7727273,13.8607425 16.7727273,13.1453539 L16.7727273,3.84368093 C16.7727273,3.12194674 16.191298,2.54835522 15.4740687,2.54835522 L2.52593131,2.54835522 C1.81769033,2.54835522 1.22727273,3.1282923 1.22727273,3.84368093 L1.22727273,13.1453539 C1.22727273,13.8670881 1.80870198,14.4406796 2.52593131,14.4406796 L3.68181818,14.4406796 L6.13636364,16.9890348 L8.59090909,14.4406796 Z" id="Rectangle-34-Copy-5" stroke="#000000" stroke-width="1.3" stroke-linejoin="round"></path>
                    <path d="M3.68181818,5.94616218 L14.3181818,5.94616218" id="Path-147" stroke="#000000" stroke-width="1.3" stroke-linecap="round" stroke-linejoin="round"></path>
                    <path d="M3.68181818,8.4945174 L14.3181818,8.4945174" id="Path-147-Copy" stroke="#000000" stroke-width="1.3" stroke-linecap="round" stroke-linejoin="round"></path>
                    <path d="M3.68181818,11.0428726 L14.3181818,11.0428726" id="Path-147-Copy-2" stroke="#000000" stroke-width="1.3" stroke-linecap="round" stroke-linejoin="round"></path>
                </g>
            </g>
        </g>
    </g>
</svg>