<?xml version="1.0" encoding="UTF-8"?>
<svg width="151px" height="39px" viewBox="0 0 151 39" version="1.1" xmlns="http://www.w3.org/2000/svg" xmlns:xlink="http://www.w3.org/1999/xlink">
    <!-- Generator: Sketch 42 (36781) - http://www.bohemiancoding.com/sketch -->
    <title>logo-junkbot</title>
    <desc>Created with Sketch.</desc>
    <defs></defs>
    <g id="exportables" stroke="none" stroke-width="1" fill="none" fill-rule="evenodd">
        <g id="Artboard" transform="translate(-851.000000, -144.000000)">
            <g id="logo-junkbot" transform="translate(851.000000, 144.000000)">
                <g id="Group-2-Copy">
                    <path d="M23.7487431,8.03393097 C23.4544609,8.03393097 23.1719231,8.10606372 22.9091831,8.24825841 C22.4823564,8.47915221 22.1682764,8.86777168 22.0249942,9.34163894 C21.8820476,9.81550619 21.927012,10.3183646 22.1514987,10.7577186 C22.4652431,11.3703292 23.0783031,11.7510106 23.7520987,11.7510106 L23.7520987,11.7510106 C24.0463809,11.7510106 24.3289187,11.6785327 24.5916587,11.5363381 C25.4731631,11.0593646 25.8127453,9.93354159 25.3490076,9.02687788 C25.0352631,8.41461239 24.4222031,8.03393097 23.7487431,8.03393097 M23.7520987,12.357754 L23.7517631,12.357754 C22.8585142,12.357754 22.0451276,11.8528248 21.6293742,11.0403823 C21.3310653,10.4574531 21.271672,9.79065664 21.4612609,9.16182478 C21.6511853,8.53264779 22.0676098,8.0173646 22.6343631,7.71088673 C22.9776364,7.52486018 23.3631898,7.42649735 23.7487431,7.42649735 C24.6423276,7.42649735 25.4553787,7.93142655 25.871132,8.74421416 C26.4868764,9.94700177 26.0362253,11.4403912 24.8668142,12.0737097 C24.5235409,12.2597363 24.1379876,12.357754 23.7520987,12.357754" id="Fill-1" fill="#3CB775"></path>
                    <path d="M24.1706371,10.7137487 C23.7297171,10.9522354 23.1837682,10.7782885 22.9518993,10.3244389 C22.7196949,9.87127965 22.8888149,9.30974867 23.3300704,9.07091681 C23.7709904,8.83208496 24.3169393,9.00637699 24.5491438,9.45988142 C24.7810127,9.91373097 24.6115571,10.4752619 24.1706371,10.7137487" id="Fill-3" fill="#3CB775"></path>
                    <path d="M33.2098327,8.03393097 C32.9152149,8.03393097 32.6330127,8.10606372 32.3702727,8.24825841 C31.4891038,8.72523186 31.149186,9.85105487 31.6129238,10.7577186 C31.9263327,11.3703292 32.5393927,11.7510106 33.2131882,11.7510106 L33.2131882,11.7510106 C33.5074704,11.7510106 33.7900082,11.6785327 34.0527482,11.5363381 C34.9342527,11.0593646 35.2738349,9.93354159 34.8100971,9.02687788 C34.4963527,8.41461239 33.8832927,8.03393097 33.2098327,8.03393097 M33.2131882,12.357754 L33.2131882,12.357754 C32.3196038,12.357754 31.5062171,11.8528248 31.0907993,11.0403823 C30.4750549,9.83759469 30.925706,8.34386018 32.0951171,7.71088673 C32.438726,7.52486018 32.8239438,7.42649735 33.2098327,7.42649735 C34.1030816,7.42649735 34.9164682,7.93142655 35.3322216,8.74421416 C35.947966,9.94700177 35.4969793,11.4403912 34.3279038,12.0737097 C33.9842949,12.2597363 33.5990771,12.357754 33.2131882,12.357754" id="Fill-5" fill="#3CB775"></path>
                    <path d="M33.6317602,10.7137487 C33.1908402,10.9522354 32.6448913,10.7782885 32.4130224,10.3244389 C32.180818,9.87127965 32.349938,9.30974867 32.7911936,9.07091681 C33.2321136,8.83208496 33.7780624,9.00637699 34.0102669,9.45988142 C34.2421358,9.91373097 34.0726802,10.4752619 33.6317602,10.7137487" id="Fill-7" fill="#3CB775"></path>
                    <path d="M14.9147062,12.4512159 C15.3036151,15.5332513 15.692524,18.6156319 16.0817684,21.6976673 C16.2760551,23.2390301 16.4706773,24.7800478 16.6652996,26.3214106 C16.7015396,26.6089062 16.7377796,26.8964018 16.7743551,27.1842425 C16.7921396,27.3278177 16.8102596,27.4717381 16.8283796,27.6153133 C16.8458284,27.7526761 16.8639484,27.8803752 16.9438107,28.0015168 C17.075684,28.2010035 17.2196373,28.2783133 17.4541907,28.2769327 C17.6853884,28.2752071 17.8719573,28.1592425 18.0803373,28.0991894 C18.606824,27.9466407 19.1282773,27.8741628 19.6748973,27.8741628 C21.7050084,27.8741628 23.5800929,28.9423487 24.6599107,30.7090832 C25.3575307,31.8507823 25.6259751,32.9479593 25.5484618,34.2922513 C25.5145707,34.8831186 25.4028307,35.4398177 25.2061951,35.9965168 C25.1317018,36.2073929 25.1092196,36.3796142 25.223644,36.5891097 C25.474304,37.0467558 25.8403951,36.9097381 26.2192373,36.9097381 L26.9101462,36.9097381 L28.2916284,36.9097381 L31.0549284,36.9097381 L32.7894151,36.9097381 C34.2168684,36.9097381 35.524864,37.0070655 36.8328596,36.0762425 C38.8532396,34.6384195 38.783444,32.7350124 39.0465196,30.6548973 C39.3015418,28.6327646 39.5568996,26.6102867 39.8119218,24.5884991 C40.3223018,20.5445788 40.8330173,16.5003133 41.3433973,12.4567381 C41.3997707,12.0108265 40.997104,11.6494726 40.5756462,11.767508 C32.2733307,14.0833487 23.9723573,14.032269 15.6797729,11.7609504 C15.2589862,11.6460212 14.8586684,12.006685 14.9147062,12.4512159" id="Fill-9" fill="#3CB775"></path>
                    <path d="M41.0311629,6.79293717 L28.1280451,6.79293717 L15.2252629,6.79293717 C14.8507829,6.79293717 14.5642184,6.45091062 14.6195851,6.06953894 C14.9162162,4.0253177 16.4497051,2.46980442 18.297274,2.46980442 L22.9732407,2.46980442 C23.1856473,2.46980442 23.3785918,2.36419381 23.5262362,2.21060973 C24.0567496,1.57901681 24.5875984,0.947769027 25.1181118,0.316176106 C25.2768296,0.120140708 25.5006451,3.45132743e-05 25.7509696,3.45132743e-05 L28.1280451,3.45132743e-05 L30.5054562,3.45132743e-05 C30.7557807,3.45132743e-05 30.9795962,0.120140708 31.138314,0.316176106 C31.6691629,0.947769027 32.1996762,1.57901681 32.7305251,2.21060973 C32.877834,2.36419381 33.071114,2.46980442 33.2835207,2.46980442 L37.9594873,2.46980442 C39.8067207,2.46980442 41.3402096,4.0253177 41.6368407,6.06953894 C41.6925429,6.45091062 41.4056429,6.79293717 41.0311629,6.79293717" id="Fill-11" fill="#3CB775"></path>
                    <polygon id="Fill-13" fill="#020302" points="87.9053882 25.1061982 87.9053882 9.12068496 83.917646 9.12068496 83.917646 16.5058354 74.9291193 9.04303009 74.9291193 25.0143929 78.9161904 25.0143929 78.9161904 17.6161274"></polygon>
                    <path d="M51.7461564,25.0148761 C50.5391631,25.0148761 49.6502764,24.8505929 49.2177453,24.7101239 L48.946952,24.622115 C49.0123853,23.5318407 49.0781542,22.4422566 49.1435876,21.3519823 C49.2895542,21.3695841 49.4355209,21.387531 49.5814876,21.4061681 C51.1079298,21.5939204 51.541132,21.2656991 51.541132,20.0235664 L51.541132,9.12047788 L55.6412853,9.12047788 L55.6412853,20.1640354 C55.6412853,23.467646 54.6389809,25.0148761 51.7461564,25.0148761" id="Fill-15" fill="#020302"></path>
                    <path d="M71.7009071,9.1205469 L71.7009071,18.8526 C71.7009071,22.6245558 69.809716,25.0146 65.276696,25.0146 C60.9258827,25.0146 58.8300027,22.4844319 58.8300027,18.6186 L58.8300027,9.1205469 L62.9304916,9.1205469 L62.9304916,19.3447593 C62.9304916,20.914423 64.2056027,21.5701752 65.3223316,21.5701752 C66.4159071,21.5701752 67.7135004,20.9375469 67.7135004,19.3447593 L67.7135004,9.1205469 L71.7009071,9.1205469 Z" id="Fill-17" fill="#020302"></path>
                    <path d="M99.8095907,9.26111947 C99.8371062,9.21418142 99.8646218,9.1675885 99.8924729,9.12065044 L104.543273,9.12065044 C104.476497,9.21418142 104.409386,9.30805752 104.342275,9.4015885 C102.816504,11.5334735 99.8095907,15.8448717 99.8095907,15.8448717 C99.8095907,15.8448717 103.226553,22.1014381 104.684206,24.6788894 C104.745948,24.7876062 104.807691,24.8970133 104.869433,25.0060752 L100.24682,25.0060752 C100.199842,24.9125442 100.152864,24.818323 100.105551,24.724792 C99.3995418,23.3187212 97.2583618,19.1954204 97.2583618,19.1954204 C96.6355707,20.1013938 96.0127796,21.0073673 95.3899884,21.9136858 L95.3899884,25.0060752 L91.2898351,25.0060752 L91.2898351,9.12065044 L95.3899884,9.12065044 L95.3899884,16.3601549 C95.3899884,16.3601549 98.5562907,11.3933496 99.8095907,9.26111947" id="Fill-19" fill="#020302"></path>
                    <path d="M113.977786,21.7256575 L110.697731,21.7256575 L110.697731,18.2815779 L113.977786,18.2815779 C114.889491,18.2815779 115.549864,19.007392 115.549864,20.0155248 C115.549864,21.1168434 114.934455,21.7256575 113.977786,21.7256575 L113.977786,21.7256575 Z M110.697731,12.3998257 L113.749944,12.3998257 C114.683795,12.3998257 115.208604,12.9157991 115.208604,13.9004628 C115.208604,14.8374982 114.683795,15.4000646 113.749944,15.4000646 L110.697731,15.4000646 L110.697731,12.3998257 Z M116.620622,16.8054451 C118.397053,16.2901619 119.354058,15.0014363 119.354058,13.2909584 C119.354058,10.6669142 117.668898,9.12037434 114.865666,9.12037434 L106.620731,9.12037434 L106.620731,25.0061442 L115.436111,25.0061442 C118.146393,25.0061442 119.786924,23.2718522 119.786924,20.6940558 C119.786924,18.8441442 118.579931,17.0159761 116.620622,16.8054451 L116.620622,16.8054451 Z" id="Fill-21" fill="#020302"></path>
                    <polygon id="Fill-23" fill="#020302" points="146.848473 12.4943575 146.848473 25.0061097 142.656378 25.0061097 142.656378 12.4943575 138.487435 12.5433664 138.487435 9.12068496 150.902991 9.12068496 150.902991 12.5433664"></polygon>
                    <path d="M143.696432,32.6350965 C143.801125,32.5084327 143.904812,32.3814239 144.009505,32.2547602 C144.474921,32.6875566 144.92121,32.9039549 145.54031,32.9039549 C146.139948,32.9039549 146.535903,32.5760788 146.535903,32.1236097 L146.535903,32.1101496 C146.535903,31.6835655 146.312423,31.440592 145.374545,31.237654 C144.347074,31.0077956 143.875283,30.6664593 143.875283,29.9119991 L143.875283,29.8988841 C143.875283,29.1772115 144.494048,28.6453619 145.342668,28.6453619 C145.993645,28.6453619 146.459061,28.8358752 146.912061,29.209654 C146.814079,29.3432204 146.716432,29.4764416 146.61845,29.610008 C146.204039,29.2621142 145.789292,29.1116363 145.329581,29.1116363 C144.749405,29.1116363 144.378952,29.4395124 144.378952,29.8526363 L144.378952,29.8660965 C144.378952,30.2988929 144.609143,30.5418664 145.591314,30.7586097 C146.586572,30.9815655 147.045948,31.3556894 147.045948,32.0576894 L147.045948,32.0708044 C147.045948,32.8580522 146.408056,33.3698841 145.521183,33.3698841 C144.812825,33.3698841 144.23265,33.1269106 143.696432,32.6350965" id="Fill-25" fill="#020302"></path>
                    <polygon id="Fill-27" fill="#020302" points="140.62234 29.190154 139.122743 29.190154 139.122743 28.7107646 142.631983 28.7107646 142.631983 29.190154 141.132385 29.190154 141.132385 33.3041363 140.62234 33.3041363"></polygon>
                    <path d="M137.649855,31.0209796 C137.649855,32.0639708 136.922371,32.9040239 135.901946,32.9040239 C134.881186,32.9040239 134.140951,32.0508558 134.140951,31.0075195 L134.140951,30.9947496 C134.140951,29.9514133 134.868435,29.1117053 135.889195,29.1117053 C136.90962,29.1117053 137.649855,29.9638381 137.649855,31.0075195 L137.649855,31.0209796 Z M135.901946,28.6326611 C134.542611,28.6326611 133.617484,29.7415726 133.617484,31.0075195 L133.617484,31.0209796 C133.617484,32.2872717 134.52986,33.3834133 135.889195,33.3834133 C137.24786,33.3834133 138.172986,32.2745018 138.172986,31.0075195 L138.172986,30.9947496 C138.172986,29.7281124 137.260611,28.6326611 135.901946,28.6326611 L135.901946,28.6326611 Z" id="Fill-29" fill="#020302"></path>
                    <path d="M131.793706,32.0183097 C131.793706,32.5297965 131.372584,32.8383451 130.696104,32.8383451 L129.197177,32.8383451 L129.197177,31.2179469 L130.606846,31.2179469 C131.385335,31.2179469 131.793706,31.506823 131.793706,32.0048496 L131.793706,32.0183097 Z M129.197177,29.1775221 L130.556177,29.1775221 C131.194068,29.1775221 131.545059,29.4726106 131.545059,29.9250796 L131.545059,29.9385398 C131.545059,30.4755664 131.123937,30.7585752 130.517924,30.7585752 L129.197177,30.7585752 L129.197177,29.1775221 Z M131.347082,30.9290708 C131.698073,30.7716903 132.055104,30.4634867 132.055104,29.8660619 L132.055104,29.8529469 C132.055104,29.5578584 131.953095,29.3152301 131.768204,29.1181593 C131.512846,28.8617257 131.111186,28.7109027 130.60047,28.7109027 L128.699213,28.7109027 L128.699213,33.3042743 L130.683353,33.3042743 C131.659484,33.3042743 132.304086,32.8383451 132.304086,32.0514425 L132.304086,32.0379823 C132.304086,31.4074248 131.876588,31.0926637 131.347082,30.9290708 L131.347082,30.9290708 Z" id="Fill-31" fill="#020302"></path>
                    <path d="M126.601118,31.0209796 C126.601118,32.0639708 125.873634,32.9040239 124.853209,32.9040239 C123.832449,32.9040239 123.092214,32.0508558 123.092214,31.0075195 L123.092214,30.9947496 C123.092214,29.9514133 123.819698,29.1117053 124.840458,29.1117053 C125.860882,29.1117053 126.601118,29.9638381 126.601118,31.0075195 L126.601118,31.0209796 Z M124.853209,28.6326611 C123.494209,28.6326611 122.568747,29.7415726 122.568747,31.0075195 L122.568747,31.0209796 C122.568747,32.2872717 123.481458,33.3834133 124.840458,33.3834133 C126.199122,33.3834133 127.124249,32.2745018 127.124249,31.0075195 L127.124249,30.9947496 C127.124249,29.7281124 126.211874,28.6326611 124.853209,28.6326611 L124.853209,28.6326611 Z" id="Fill-33" fill="#020302"></path>
                    <path d="M118.148339,31.0533531 L118.148339,29.1903265 L119.52613,29.1903265 C120.247239,29.1903265 120.668362,29.532008 120.668362,30.0959549 L120.668362,30.1090699 C120.668362,30.699592 120.189859,31.0533531 119.519755,31.0533531 L118.148339,31.0533531 Z M119.966379,31.427477 C120.668362,31.2963265 121.178742,30.8500699 121.178742,30.0890522 L121.178742,30.0759372 C121.178742,29.7149283 121.050895,29.3932646 120.834462,29.1703088 C120.553602,28.8814327 120.113353,28.7109372 119.564719,28.7109372 L117.644335,28.7109372 L117.644335,33.3039637 L118.148339,33.3039637 L118.148339,31.5199726 L119.424122,31.5199726 C119.855646,32.1146363 120.287506,32.7093 120.719366,33.3039637 L121.33813,33.3039637 C120.881439,32.6785832 120.423742,32.0528575 119.966379,31.427477 L119.966379,31.427477 Z" id="Fill-35" fill="#020302"></path>
                    <polygon id="Fill-37" fill="#020302" points="109.670629 28.7109027 110.142756 28.7109027 112.956389 32.3920885 112.956389 28.7109027 113.447307 28.7109027 113.447307 33.3042743 113.045647 33.3042743 110.161882 29.5378407 110.161882 33.3042743 109.670629 33.3042743"></polygon>
                    <polygon id="Fill-39" fill="#020302" points="101.754269 28.7109027 102.302903 28.7109027 103.578685 32.5370442 104.803798 28.6981327 105.218209 28.6981327 106.443323 32.5370442 107.718769 28.7109027 108.248612 28.7109027 106.653716 33.3374071 106.226218 33.3374071 105.00144 29.6099735 103.770287 33.3374071 103.349165 33.3374071"></polygon>
                    <path d="M100.229706,31.0209796 C100.229706,32.0639708 99.5022218,32.9040239 98.4817973,32.9040239 C97.4610373,32.9040239 96.7211373,32.0508558 96.7211373,31.0075195 L96.7211373,30.9947496 C96.7211373,29.9514133 97.4486218,29.1117053 98.4690462,29.1117053 C99.4898062,29.1117053 100.229706,29.9638381 100.229706,31.0075195 L100.229706,31.0209796 Z M98.4817973,28.6326611 C97.1227973,28.6326611 96.1976707,29.7415726 96.1976707,31.0075195 L96.1976707,31.0209796 C96.1976707,32.2872717 97.1100462,33.3834133 98.4690462,33.3834133 C99.8277107,33.3834133 100.752837,32.2745018 100.752837,31.0075195 L100.752837,30.9947496 C100.752837,29.7281124 99.8407973,28.6326611 98.4817973,28.6326611 L98.4817973,28.6326611 Z" id="Fill-41" fill="#020302"></path>
                    <path d="M89.3531427,31.0533531 L89.3531427,29.1903265 L90.7312693,29.1903265 C91.4520427,29.1903265 91.8731649,29.532008 91.8731649,30.0959549 L91.8731649,30.1090699 C91.8731649,30.699592 91.3946627,31.0533531 90.7248938,31.0533531 L89.3531427,31.0533531 Z M91.1711827,31.427477 C91.8731649,31.2963265 92.3835449,30.8500699 92.3835449,30.0890522 L92.3835449,30.0759372 C92.3835449,29.7149283 92.2560338,29.3932646 92.0392649,29.1703088 C91.7584049,28.8814327 91.318156,28.7109372 90.7695227,28.7109372 L88.8491382,28.7109372 L88.8491382,33.3039637 L89.3531427,33.3039637 L89.3531427,31.5199726 L90.6292604,31.5199726 C91.0607849,32.1146363 91.4926449,32.7093 91.9241693,33.3039637 L92.5429338,33.3039637 C92.0855716,32.6785832 91.6285449,32.0528575 91.1711827,31.427477 L91.1711827,31.427477 Z" id="Fill-43" fill="#020302"></path>
                    <path d="M83.4269967,31.3816088 L83.4269967,28.7109717 L83.9306656,28.7109717 L83.9306656,31.3491664 C83.9306656,32.3400425 84.4474211,32.8974319 85.2960411,32.8974319 C86.1191589,32.8974319 86.64229,32.3859451 86.64229,31.3816088 L86.64229,28.7109717 L87.1462944,28.7109717 L87.1462944,31.3422637 C87.1462944,32.6810336 86.4000189,33.3768212 85.28329,33.3768212 C84.1796478,33.3768212 83.4269967,32.6810336 83.4269967,31.3816088" id="Fill-45" fill="#020302"></path>
                    <path d="M81.3985969,31.0209796 C81.3985969,32.0639708 80.671448,32.9040239 79.650688,32.9040239 C78.629928,32.9040239 77.8896924,32.0508558 77.8896924,31.0075195 L77.8896924,30.9947496 C77.8896924,29.9514133 78.6171769,29.1117053 79.6379369,29.1117053 C80.6583613,29.1117053 81.3985969,29.9638381 81.3985969,31.0075195 L81.3985969,31.0209796 Z M79.650688,28.6326611 C78.291688,28.6326611 77.3668969,29.7415726 77.3668969,31.0075195 L77.3668969,31.0209796 C77.3668969,32.2872717 78.2789369,33.3834133 79.6379369,33.3834133 C80.9966013,33.3834133 81.921728,32.2745018 81.921728,31.0075195 L81.921728,30.9947496 C81.921728,29.7281124 81.009688,28.6326611 79.650688,28.6326611 L79.650688,28.6326611 Z" id="Fill-47" fill="#020302"></path>
                    <polygon id="Fill-49" fill="#020302" points="74.2669004 31.4867708 72.409936 28.7108681 73.022996 28.7108681 74.5282982 31.0077265 76.0466871 28.7108681 76.6335738 28.7108681 74.7769449 31.4805584 74.7769449 33.3042398 74.2669004 33.3042398"></polygon>
                    <polygon id="Fill-51" fill="#020302" points="65.6612427 28.7109027 68.8892871 28.7109027 68.8892871 29.1837345 66.1649116 29.1837345 66.1649116 30.7520177 68.6020516 30.7520177 68.6020516 31.2241593 66.1649116 31.2241593 66.1649116 32.8321327 68.9211649 32.8321327 68.9211649 33.3042743 65.6612427 33.3042743"></polygon>
                    <polygon id="Fill-53" fill="#020302" points="60.5641873 28.7109027 61.0678562 28.7109027 61.0678562 31.4540177 63.6328429 28.7109027 64.2834851 28.7109027 62.3698118 30.718885 64.3663673 33.3042743 63.7348518 33.3042743 62.0188207 31.0802389 61.0678562 32.0704248 61.0678562 33.3042743 60.5641873 33.3042743"></polygon>
                    <path d="M55.8754024,31.6178867 L56.896498,29.2816832 L57.9105469,31.6178867 L55.8754024,31.6178867 Z M57.1384336,28.678046 L56.6666424,28.678046 L54.631498,33.3045504 L55.147918,33.3045504 L55.6777602,32.0900283 L58.1085247,32.0900283 L58.6316558,33.3045504 L59.1739136,33.3045504 L57.1384336,28.678046 Z" id="Fill-55" fill="#020302"></path>
                    <polygon id="Fill-57" fill="#020302" points="48.9668504 28.7109027 49.4772304 28.7109027 51.1040038 31.2179469 52.7307771 28.7109027 53.2411571 28.7109027 53.2411571 33.3042743 52.7371527 33.3042743 52.7371527 29.5837434 51.1103793 32.0441947 51.0848771 32.0441947 49.4581038 29.5903009 49.4581038 33.3042743 48.9668504 33.3042743"></polygon>
                    <path d="M129.53592,21.2096496 C127.183005,21.2096496 125.87568,19.4177204 125.87568,17.1098177 C125.87568,14.801915 127.183005,12.9872071 129.53592,12.9872071 C131.845214,12.9872071 133.194818,14.801915 133.194818,17.1098177 C133.194818,19.4177204 131.845214,21.2096496 129.53592,21.2096496 M129.53592,9.1558885 C125.135445,9.1558885 121.802707,12.7180035 121.802707,17.1098177 C121.802707,21.5005965 125.135445,25.0409681 129.53592,25.0409681 C133.936396,25.0409681 137.268798,21.5005965 137.268798,17.1098177 C137.268798,12.7180035 133.936396,9.1558885 129.53592,9.1558885" id="Fill-59" fill="#020302"></path>
                    <path d="M12.7589631,19.1041327 L5.18849422,19.1041327 C4.85528756,19.1041327 4.58550089,18.8263009 4.58550089,18.4835841 C4.58550089,18.1405221 4.85528756,17.8626903 5.18849422,17.8626903 L12.7589631,17.8626903 C13.0921698,17.8626903 13.362292,18.1405221 13.362292,18.4835841 C13.362292,18.8263009 13.0921698,19.1041327 12.7589631,19.1041327" id="Fill-61" fill="#3CB775"></path>
                    <path d="M13.1725353,22.9366593 L0.603295333,22.9366593 C0.269753111,22.9366593 -3.3555556e-05,22.6588274 -3.3555556e-05,22.3161106 C-3.3555556e-05,21.9730487 0.269753111,21.6948717 0.603295333,21.6948717 L13.1725353,21.6948717 C13.505742,21.6948717 13.7758642,21.9730487 13.7758642,22.3161106 C13.7758642,22.6588274 13.505742,22.9366593 13.1725353,22.9366593" id="Fill-63" fill="#3CB775"></path>
                    <path d="M13.5857384,26.7698416 L6.20049622,26.7698416 C5.86762511,26.7698416 5.59750289,26.4920097 5.59750289,26.1489478 C5.59750289,25.806231 5.86762511,25.5283991 6.20049622,25.5283991 L13.5857384,25.5283991 C13.9192807,25.5283991 14.1894029,25.806231 14.1894029,26.1489478 C14.1894029,26.4920097 13.9192807,26.7698416 13.5857384,26.7698416" id="Fill-66" fill="#3CB775"></path>
                    <path d="M19.6758704,36.2225788 C18.4678704,36.2225788 17.4880482,35.2151363 17.4880482,33.9719681 C17.4880482,32.7298354 18.4678704,31.7223929 19.6758704,31.7223929 C20.884206,31.7223929 21.8630216,32.7298354 21.8630216,33.9723133 C21.8630216,35.2151363 20.884206,36.2225788 19.6758704,36.2225788 M19.676206,29.1635788 C17.0930993,29.1635788 15.0005749,31.3165168 15.0005749,33.9723133 C15.0005749,36.6284549 17.0930993,38.7807027 19.676206,38.7807027 C22.2579704,38.7807027 24.351166,36.6284549 24.351166,33.9723133 C24.351166,31.3165168 22.2579704,29.1635788 19.676206,29.1635788" id="Fill-68" fill="#3CB775"></path>
                </g>
            </g>
        </g>
    </g>
</svg>