<?xml version="1.0" encoding="UTF-8"?>
<svg width="227px" height="62px" viewBox="0 0 227 62" version="1.1" xmlns="http://www.w3.org/2000/svg" xmlns:xlink="http://www.w3.org/1999/xlink">
    <!-- Generator: Sketch 42 (36781) - http://www.bohemiancoding.com/sketch -->
    <title>logo-junkbotrobots</title>
    <desc>Created with Sketch.</desc>
    <defs>
        <polygon id="path-1" points="18.3513554 22.1129576 18.3513554 0.0494121212 0.641415702 0.0494121212 0.641415702 22.1129576 18.3513554 22.1129576"></polygon>
        <polygon id="path-3" points="0 0.268854545 0 2.2284303 22.3364248 2.2284303 22.3364248 0.268854545 0 0.268854545"></polygon>
        <polygon id="path-5" points="0.871511157 15.969697 16.0326723 15.969697 16.0326723 0.786554545 0.871511157 0.786554545"></polygon>
    </defs>
    <g id="exportables" stroke="none" stroke-width="1" fill="none" fill-rule="evenodd">
        <g id="Artboard" transform="translate(-194.000000, -226.000000)">
            <g id="logo-junkbotrobots" transform="translate(194.000000, 226.000000)">
                <g id="Page-1">
                    <path d="M38.5067041,12.6832273 C38.0292537,12.6832273 37.5715017,12.7968939 37.1456421,13.0214091 C36.453386,13.3868333 35.944043,13.9993182 35.7123529,14.7480152 C35.4797248,15.4957727 35.5528901,16.2895606 35.9168405,16.9837727 C36.4252455,17.9504091 37.420481,18.5516212 38.5123322,18.5516212 L38.5123322,18.5516212 C38.9897826,18.5516212 39.4475347,18.4370152 39.8733942,18.2125 C41.3029314,17.4591061 41.8535471,15.6817727 41.1012579,14.2510758 C40.5928529,13.2844394 39.5985554,12.6832273 38.5067041,12.6832273 M38.5123322,19.509803 L38.5123322,19.509803 C37.0630967,19.509803 35.7442455,18.7122576 35.0698116,17.4299848 C34.5867331,16.5093788 34.4901174,15.4563182 34.7977868,14.4633788 C35.1054562,13.4704394 35.7808281,12.6578636 36.6991463,12.1731364 C37.2563281,11.8800455 37.8810471,11.7241061 38.5067041,11.7241061 C39.9550017,11.7241061 41.2738529,12.5216515 41.9482868,13.8048636 C42.9463364,15.7033788 42.2156215,18.0612576 40.3189521,19.0607727 C39.7627083,19.354803 39.1379893,19.509803 38.5123322,19.509803" id="Fill-1" fill="#FEFEFE"></path>
                    <path d="M39.1907058,16.9141636 C38.4759372,17.2908606 37.5904496,17.0156182 37.214305,16.2998 C36.8381603,15.5839818 37.1120612,14.6971939 37.8277678,14.320497 C38.5425364,13.9438 39.428024,14.2190424 39.8041686,14.9348606 C40.1803132,15.6506788 39.9054744,16.5374667 39.1907058,16.9141636" id="Fill-3" fill="#FEFEFE"></path>
                    <path d="M53.8470264,12.6832273 C53.369576,12.6832273 52.911824,12.7968939 52.4859645,13.0214091 C51.0573653,13.774803 50.5058116,15.5521364 51.2581008,16.9837727 C51.7655678,17.9504091 52.7598653,18.5516212 53.8526545,18.5516212 L53.8526545,18.5516212 C54.330105,18.5516212 54.787857,18.4370152 55.2137165,18.2125 C56.6432537,17.4591061 57.1938694,15.6817727 56.4415802,14.2510758 C55.9331752,13.2844394 54.9388777,12.6832273 53.8470264,12.6832273 M53.8526545,19.509803 L53.8526545,19.509803 C52.403419,19.509803 51.0845678,18.7122576 50.4110719,17.4299848 C49.4130223,15.5305303 50.1437372,13.1726515 52.0394686,12.1731364 C52.5966504,11.8800455 53.2213694,11.7241061 53.8470264,11.7241061 C55.295324,11.7241061 56.6141752,12.5216515 57.2886091,13.8048636 C58.2866587,15.7033788 57.5559438,18.0612576 55.6592744,19.0607727 C55.1030306,19.354803 54.4783116,19.509803 53.8526545,19.509803" id="Fill-5" fill="#FEFEFE"></path>
                    <path d="M54.5313095,16.9141636 C53.8165409,17.2908606 52.9310533,17.0156182 52.5549087,16.2998 C52.178764,15.5839818 52.4526649,14.6971939 53.1683715,14.320497 C53.8831401,13.9438 54.7676897,14.2190424 55.1447723,14.9348606 C55.5209169,15.6506788 55.2460781,16.5374667 54.5313095,16.9141636" id="Fill-7" fill="#FEFEFE"></path>
                    <path d="M24.1829103,19.6571 C24.8141955,24.5231606 25.4436045,29.3892212 26.0748897,34.2552818 C26.3910012,36.6883121 26.7061748,39.1213424 27.0213483,41.5543727 C27.0804434,42.0081 27.1386004,42.4618273 27.1976955,42.9164939 C27.226774,43.1428879 27.2567905,43.3702212 27.285869,43.5966152 C27.3140095,43.8145545 27.343088,44.0155848 27.4734723,44.2072212 C27.6873401,44.5219182 27.9199682,44.6440394 28.3008029,44.6412212 C28.6760095,44.638403 28.9780508,44.4561606 29.3157368,44.3612818 C30.1693318,44.120797 31.0154227,44.0052515 31.9009103,44.0052515 C35.1924103,44.0052515 38.2334599,45.692403 39.9837988,48.4814636 C41.1150467,50.2841606 41.5502864,52.0154636 41.4245921,54.1384939 C41.3701872,55.0713121 41.18915,55.9505848 40.8702244,56.8289182 C40.7492202,57.162403 40.7126376,57.4338879 40.8983649,57.7645545 C41.304526,58.4860091 41.8982905,58.2708879 42.5126913,58.2708879 L43.6326831,58.2708879 L45.8726665,58.2708879 L50.3526335,58.2708879 L53.165745,58.2708879 C55.4798318,58.2708879 57.6006872,58.4249485 59.7215426,56.954797 C62.9970963,54.6852212 62.8845343,51.6801 63.3103938,48.3959788 C63.7240591,45.2029788 64.1377244,42.0109182 64.5523277,38.8188576 C65.3796583,32.4347364 66.2079269,26.0496758 67.0352574,19.6655545 C67.126245,18.9619485 66.4733855,18.3917364 65.7905095,18.5777364 C52.3290343,22.2338576 38.8694351,22.1530697 25.4239062,18.567403 C24.7410302,18.3851606 24.0919227,18.9553727 24.1829103,19.6571" id="Fill-9" fill="#FEFEFE"></path>
                    <path d="M66.5287285,10.7241212 L45.6081459,10.7241212 L24.6866252,10.7241212 C24.0797285,10.7241212 23.6144723,10.1839697 23.7045219,9.58181818 C24.1857244,6.355 26.6724062,3.89848485 29.667493,3.89848485 L37.2485426,3.89848485 C37.5937326,3.89848485 37.9070302,3.73221212 38.1462244,3.48984848 C39.0063855,2.49221212 39.8665467,1.49645455 40.7267079,0.498818182 C40.9846624,0.189757576 41.3476748,0 41.7528979,0 L45.6081459,0 L49.4624558,0 C49.8676789,0 50.2306913,0.189757576 50.4886459,0.498818182 C51.348807,1.49645455 52.2089682,2.49221212 53.0700674,3.48984848 C53.3083236,3.73221212 53.6216211,3.89848485 53.9668112,3.89848485 L61.5478607,3.89848485 C64.5438855,3.89848485 67.0296293,6.355 67.5108318,9.58181818 C67.6008814,10.1839697 67.1356252,10.7241212 66.5287285,10.7241212" id="Fill-11" fill="#FEFEFE"></path>
                    <polygon id="Fill-13" fill="#FEFEFE" points="136.729792 35.5671455 136.729792 13.3655091 131.04166 13.3655091 131.04166 23.6227515 118.219912 13.2574788 118.219912 35.4403273 123.907106 35.4403273 123.907106 25.164297"></polygon>
                    <path d="M85.1509831,35.4406091 C83.4297227,35.4406091 82.1615244,35.2123364 81.5443095,35.0178818 C81.4158012,34.9765485 81.287293,34.9361545 81.1578467,34.8948212 C81.2516483,33.3814576 81.34545,31.8671545 81.4383136,30.3528515 C81.6465533,30.3782152 81.854793,30.4026394 82.0630326,30.4289424 C84.241107,30.6891545 84.8583219,30.2335485 84.8583219,28.5088212 L84.8583219,13.3648515 L90.706855,13.3648515 L90.706855,28.7042152 C90.706855,33.2912758 89.2773178,35.4406091 85.1509831,35.4406091" id="Fill-15" fill="#FEFEFE"></path>
                    <path d="M113.615095,13.3652273 L113.615095,26.8821667 C113.615095,32.1202273 110.917359,35.4400455 104.451611,35.4400455 C98.2456938,35.4400455 95.2552971,31.9257727 95.2552971,26.5571364 L95.2552971,13.3652273 L101.104768,13.3652273 L101.104768,27.5651061 C101.104768,29.7454394 102.923582,30.6566515 104.516334,30.6566515 C106.076256,30.6566515 107.9279,29.7773788 107.9279,27.5651061 L107.9279,13.3652273 L113.615095,13.3652273 Z" id="Fill-17" fill="#FEFEFE"></path>
                    <path d="M153.710236,13.5606212 C153.749633,13.495803 153.789029,13.4300455 153.828426,13.3652273 L160.462079,13.3652273 C160.367339,13.495803 160.271662,13.6254394 160.175984,13.7560152 C157.999786,16.7169848 153.710236,22.7046818 153.710236,22.7046818 C153.710236,22.7046818 158.58417,31.3940758 160.663752,34.9731667 C160.751926,35.1253485 160.8401,35.2765909 160.927335,35.4287727 L154.334017,35.4287727 C154.267418,35.298197 154.199881,35.1676212 154.132343,35.0370455 C153.124914,33.0849848 150.070732,27.3584394 150.070732,27.3584394 C149.18243,28.6162879 148.294129,29.8750758 147.405827,31.1338636 L147.405827,35.4287727 L141.557294,35.4287727 L141.557294,13.3652273 L147.405827,13.3652273 L147.405827,23.4205 C147.405827,23.4205 151.922376,16.5215909 153.710236,13.5606212" id="Fill-19" fill="#FEFEFE"></path>
                    <path d="M173.920177,30.8720545 L169.241351,30.8720545 L169.241351,26.0896 L173.920177,26.0896 C175.220268,26.0896 176.162975,27.0966303 176.162975,28.4972667 C176.162975,30.0266 175.284991,30.8720545 173.920177,30.8720545 L173.920177,30.8720545 Z M169.241351,17.9196909 L173.595624,17.9196909 C174.926669,17.9196909 175.676144,18.6364485 175.676144,20.0042061 C175.676144,21.3052667 174.926669,22.0868424 173.595624,22.0868424 L169.241351,22.0868424 L169.241351,17.9196909 Z M177.690066,24.038903 C180.223648,23.3230848 181.5894,21.5335394 181.5894,19.1578121 C181.5894,15.5129636 179.185264,13.3645697 175.1865,13.3645697 L163.425648,13.3645697 L163.425648,35.4290545 L176.000698,35.4290545 C179.866264,35.4290545 182.206615,33.0204485 182.206615,29.4394788 C182.206615,26.8702364 180.485355,24.3319939 177.690066,24.038903 L177.690066,24.038903 Z" id="Fill-21" fill="#FEFEFE"></path>
                    <g id="Group-25" transform="translate(208.239669, 13.315627)">
                        <mask id="mask-2" fill="white">
                            <use xlink:href="#path-1"></use>
                        </mask>
                        <g id="Clip-24"></g>
                        <polygon id="Fill-23" fill="#FEFEFE" mask="url(#mask-2)" points="12.5682959 4.73510909 12.5682959 22.1129576 6.5884405 22.1129576 6.5884405 4.73510909 0.641415702 4.80368485 0.641415702 0.0494121212 18.3521058 0.0494121212 18.3521058 4.80368485"></polygon>
                    </g>
                    <path d="M216.312146,46.0243848 C216.46129,45.8487182 216.609497,45.6721121 216.758642,45.4964455 C217.422757,46.0976576 218.059671,46.3973242 218.942344,46.3973242 C219.797815,46.3973242 220.361563,45.9426576 220.361563,45.314203 L220.361563,45.2954152 C220.361563,44.7026576 220.043576,44.3654152 218.705964,44.083597 C217.239844,43.764203 216.567286,43.2898091 216.567286,42.2423848 L216.567286,42.2245364 C216.567286,41.2212636 217.44996,40.4829 218.660001,40.4829 C219.588638,40.4829 220.252753,40.7478091 220.899047,41.2672939 C220.759282,41.4523545 220.620456,41.6374152 220.479753,41.8224758 C219.888803,41.3396273 219.297852,41.1310818 218.641241,41.1310818 C217.81391,41.1310818 217.285807,41.5857485 217.285807,42.1597182 L217.285807,42.1785061 C217.285807,42.7797182 217.613175,43.1169606 219.014571,43.4175667 C220.434729,43.7275667 221.090402,44.2470515 221.090402,45.2221424 L221.090402,45.2409303 C221.090402,46.3343848 220.180526,47.0445667 218.915142,47.0445667 C217.904898,47.0445667 217.076629,46.7073242 216.312146,46.0243848" id="Fill-26" fill="#FEFEFE"></path>
                    <polygon id="Fill-28" fill="#FEFEFE" points="211.926825 41.2393 209.787209 41.2393 209.787209 40.5742091 214.793403 40.5742091 214.793403 41.2393 212.654726 41.2393 212.654726 46.9536333 211.926825 46.9536333"></polygon>
                    <path d="M207.686709,43.7822394 C207.686709,45.2307848 206.649262,46.3975121 205.193461,46.3975121 C203.737659,46.3975121 202.681452,45.2129364 202.681452,43.7634515 L202.681452,43.745603 C202.681452,42.2970576 203.718899,41.1303303 205.175638,41.1303303 C206.630502,41.1303303 207.686709,42.3149061 207.686709,43.7634515 L207.686709,43.7822394 Z M205.193461,40.4652394 C203.254581,40.4652394 201.934791,42.0049061 201.934791,43.7634515 L201.934791,43.7822394 C201.934791,45.5407848 203.236758,47.0635424 205.175638,47.0635424 C207.113581,47.0635424 208.432432,45.5238758 208.432432,43.7634515 L208.432432,43.745603 C208.432432,41.9861182 207.131403,40.4652394 205.193461,40.4652394 L205.193461,40.4652394 Z" id="Fill-30" fill="#FEFEFE"></path>
                    <path d="M199.333202,45.1674697 C199.333202,45.8785909 198.732872,46.3060152 197.768591,46.3060152 L195.629913,46.3060152 L195.629913,44.0552273 L197.640083,44.0552273 C198.750694,44.0552273 199.333202,44.4572879 199.333202,45.1486818 L199.333202,45.1674697 Z M195.629913,41.2220152 L197.567855,41.2220152 C198.477731,41.2220152 198.978632,41.6315909 198.978632,42.2600455 L198.978632,42.2788333 C198.978632,43.0256515 198.378302,43.4173788 197.51345,43.4173788 L195.629913,43.4173788 L195.629913,41.2220152 Z M198.696289,43.6550455 C199.19719,43.4361667 199.706533,43.007803 199.706533,42.1783182 L199.706533,42.1595303 C199.706533,41.7499545 199.560202,41.4127121 199.29662,41.1393485 C198.932669,40.7833182 198.359541,40.5738333 197.63164,40.5738333 L194.919835,40.5738333 L194.919835,46.9532576 L197.749831,46.9532576 C199.141847,46.9532576 200.061103,46.3060152 200.061103,45.2135 L200.061103,45.1947121 C200.061103,44.319197 199.451393,43.8823788 198.696289,43.6550455 L198.696289,43.6550455 Z" id="Fill-32" fill="#FEFEFE"></path>
                    <path d="M191.926436,43.7822394 C191.926436,45.2307848 190.88899,46.3975121 189.433188,46.3975121 C187.977387,46.3975121 186.92118,45.2129364 186.92118,43.7634515 L186.92118,43.745603 C186.92118,42.2970576 187.959564,41.1303303 189.415366,41.1303303 C190.871168,41.1303303 191.926436,42.3149061 191.926436,43.7634515 L191.926436,43.7822394 Z M189.433188,40.4652394 C187.494308,40.4652394 186.175457,42.0049061 186.175457,43.7634515 L186.175457,43.7822394 C186.175457,45.5407848 187.476486,47.0635424 189.415366,47.0635424 C191.353308,47.0635424 192.673098,45.5238758 192.673098,43.7634515 L192.673098,43.745603 C192.673098,41.9861182 191.371131,40.4652394 189.433188,40.4652394 L189.433188,40.4652394 Z" id="Fill-34" fill="#FEFEFE"></path>
                    <path d="M179.86936,43.8277061 L179.86936,41.2396758 L181.834504,41.2396758 C182.863508,41.2396758 183.463839,41.7140697 183.463839,42.4975242 L183.463839,42.5153727 C183.463839,43.3354636 182.780963,43.8277061 181.825124,43.8277061 L179.86936,43.8277061 Z M182.462975,44.3471909 C183.463839,44.1649485 184.19174,43.5449485 184.19174,42.4881303 L184.19174,42.4702818 C184.19174,41.9686455 184.009764,41.5214939 183.701157,41.2124333 C183.299686,40.8113121 182.672153,40.5745848 181.889847,40.5745848 L179.149901,40.5745848 L179.149901,46.9530697 L179.86936,46.9530697 L179.86936,44.4749485 L181.689112,44.4749485 C182.30445,45.3016152 182.920727,46.1273424 183.537004,46.9530697 L184.419678,46.9530697 C183.767756,46.0850697 183.114897,45.2161303 182.462975,44.3471909 L182.462975,44.3471909 Z" id="Fill-36" fill="#FEFEFE"></path>
                    <polygon id="Fill-38" fill="#FEFEFE" points="167.776357 40.5742091 168.449852 40.5742091 172.463625 45.6863909 172.463625 40.5742091 173.163386 40.5742091 173.163386 46.9536333 172.590257 46.9536333 168.477055 41.7221485 168.477055 46.9536333 167.776357 46.9536333"></polygon>
                    <polygon id="Fill-40" fill="#FEFEFE" points="156.484045 40.5742091 157.26635 40.5742091 159.08704 45.8883606 160.833627 40.5563606 161.425516 40.5563606 163.17304 45.8883606 164.992793 40.5742091 165.747896 40.5742091 163.472268 46.9996636 162.863495 46.9996636 161.11597 41.8226636 159.360003 46.9996636 158.758735 46.9996636"></polygon>
                    <path d="M154.309535,43.7822394 C154.309535,45.2307848 153.272088,46.3975121 151.816287,46.3975121 C150.360485,46.3975121 149.305217,45.2129364 149.305217,43.7634515 L149.305217,43.745603 C149.305217,42.2970576 150.342663,41.1303303 151.798464,41.1303303 C153.254266,41.1303303 154.309535,42.3149061 154.309535,43.7634515 L154.309535,43.7822394 Z M151.816287,40.4652394 C149.877407,40.4652394 148.558555,42.0049061 148.558555,43.7634515 L148.558555,43.7822394 C148.558555,45.5407848 149.859584,47.0635424 151.798464,47.0635424 C153.736407,47.0635424 155.056196,45.5238758 155.056196,43.7634515 L155.056196,43.745603 C155.056196,41.9861182 153.755167,40.4652394 151.816287,40.4652394 L151.816287,40.4652394 Z" id="Fill-42" fill="#FEFEFE"></path>
                    <path d="M138.794741,43.8277061 L138.794741,41.2396758 L140.760824,41.2396758 C141.78889,41.2396758 142.389221,41.7140697 142.389221,42.4975242 L142.389221,42.5153727 C142.389221,43.3354636 141.707283,43.8277061 140.751444,43.8277061 L138.794741,43.8277061 Z M141.388357,44.3471909 C142.389221,44.1649485 143.117121,43.5449485 143.117121,42.4881303 L143.117121,42.4702818 C143.117121,41.9686455 142.936084,41.5214939 142.626539,41.2124333 C142.226006,40.8113121 141.597535,40.5745848 140.815229,40.5745848 L138.076221,40.5745848 L138.076221,46.9530697 L138.794741,46.9530697 L138.794741,44.4749485 L140.615431,44.4749485 C141.23077,45.3016152 141.847047,46.1273424 142.462386,46.9530697 L143.34506,46.9530697 C142.6922,46.0850697 142.040279,45.2161303 141.388357,44.3471909 L141.388357,44.3471909 Z" id="Fill-44" fill="#FEFEFE"></path>
                    <path d="M130.341618,44.2831242 L130.341618,40.574397 L131.060138,40.574397 L131.060138,44.2380333 C131.060138,45.6142455 131.797419,46.3883061 133.007461,46.3883061 C134.181857,46.3883061 134.927581,45.6781242 134.927581,44.2831242 L134.927581,40.574397 L135.647039,40.574397 L135.647039,44.2286394 C135.647039,46.0877 134.58239,47.0543364 132.989638,47.0543364 C131.415647,47.0543364 130.341618,46.0877 130.341618,44.2831242" id="Fill-46" fill="#FEFEFE"></path>
                    <path d="M127.448306,43.7822394 C127.448306,45.2307848 126.41086,46.3975121 124.955058,46.3975121 C123.499256,46.3975121 122.44305,45.2129364 122.44305,43.7634515 L122.44305,43.745603 C122.44305,42.2970576 123.480496,41.1303303 124.937236,41.1303303 C126.392099,41.1303303 127.448306,42.3149061 127.448306,43.7634515 L127.448306,43.7822394 Z M124.955058,40.4652394 C123.016178,40.4652394 121.697326,42.0049061 121.697326,43.7634515 L121.697326,43.7822394 C121.697326,45.5407848 122.998355,47.0635424 124.937236,47.0635424 C126.875178,47.0635424 128.194967,45.5238758 128.194967,43.7634515 L128.194967,43.745603 C128.194967,41.9861182 126.893938,40.4652394 124.955058,40.4652394 L124.955058,40.4652394 Z" id="Fill-48" fill="#FEFEFE"></path>
                    <polygon id="Fill-50" fill="#FEFEFE" points="117.275329 44.4294818 114.62637 40.5742091 115.500602 40.5742091 117.647721 43.7643909 119.81454 40.5742091 120.65125 40.5742091 118.00323 44.4210273 118.00323 46.9536333 117.275329 46.9536333"></polygon>
                    <polygon id="Fill-52" fill="#FEFEFE" points="104.999788 40.5742091 109.604511 40.5742091 109.604511 41.2308455 105.718309 41.2308455 105.718309 43.4093 109.194598 43.4093 109.194598 44.064997 105.718309 44.064997 105.718309 46.2979364 109.650474 46.2979364 109.650474 46.9536333 104.999788 46.9536333"></polygon>
                    <polygon id="Fill-54" fill="#FEFEFE" points="97.7295033 40.5742091 98.448024 40.5742091 98.448024 44.3843909 102.107226 40.5742091 103.034925 40.5742091 100.305297 43.3632697 103.153115 46.9536333 102.252619 46.9536333 99.8043959 43.8649061 98.448024 45.2401788 98.448024 46.9536333 97.7295033 46.9536333"></polygon>
                    <path d="M91.0413517,44.6115364 L92.4980913,41.3668697 L93.9445128,44.6115364 L91.0413517,44.6115364 Z M92.8432814,40.5289303 L92.1697855,40.5289303 L89.2666244,46.9534455 L90.0039054,46.9534455 L90.7590087,45.2672333 L94.2268558,45.2672333 L94.9725789,46.9534455 L95.7464426,46.9534455 L92.8432814,40.5289303 Z" id="Fill-56" fill="#FEFEFE"></path>
                    <polygon id="Fill-58" fill="#FEFEFE" points="81.1866438 40.5742091 81.9145446 40.5742091 84.2351975 44.0565424 86.5558504 40.5742091 87.2837512 40.5742091 87.2837512 46.9536333 86.5642926 46.9536333 86.5642926 41.7860273 84.2445777 45.2035424 84.207995 45.2035424 81.8873421 41.7954212 81.8873421 46.9536333 81.1866438 46.9536333"></polygon>
                    <path d="M196.112898,30.1555788 C192.756675,30.1555788 190.891898,27.6671242 190.891898,24.4609727 C190.891898,21.2557606 192.756675,18.7353667 196.112898,18.7353667 C199.407212,18.7353667 201.332022,21.2557606 201.332022,24.4609727 C201.332022,27.6671242 199.407212,30.1555788 196.112898,30.1555788 M196.112898,13.4146394 C189.835691,13.4146394 185.081824,18.3614879 185.081824,24.4609727 C185.081824,30.5595182 189.835691,35.4772455 196.112898,35.4772455 C202.390105,35.4772455 207.143034,30.5595182 207.143034,24.4609727 C207.143034,18.3614879 202.390105,13.4146394 196.112898,13.4146394" id="Fill-60" fill="#FEFEFE"></path>
                    <path d="M20.6875793,30.1605576 L8.41269504,30.1605576 C7.87239752,30.1605576 7.43528182,29.7218606 7.43528182,29.1807697 C7.43528182,28.6387394 7.87239752,28.2000424 8.41269504,28.2000424 L20.6875793,28.2000424 C21.2278769,28.2000424 21.6659306,28.6387394 21.6659306,29.1807697 C21.6659306,29.7218606 21.2278769,30.1605576 20.6875793,30.1605576" id="Fill-62" fill="#FEFEFE"></path>
                    <g id="Group-66" transform="translate(0.000000, 33.982294)">
                        <mask id="mask-4" fill="white">
                            <use xlink:href="#path-3"></use>
                        </mask>
                        <g id="Clip-65"></g>
                        <path d="M21.3580736,2.2284303 L0.97778843,2.2284303 C0.437490909,2.2284303 -0.000562809917,1.78973333 -0.000562809917,1.24864242 C-0.000562809917,0.706612121 0.437490909,0.268854545 0.97778843,0.268854545 L21.3580736,0.268854545 C21.8983711,0.268854545 22.3364248,0.706612121 22.3364248,1.24864242 C22.3364248,1.78973333 21.8983711,2.2284303 21.3580736,2.2284303" id="Fill-64" fill="#FEFEFE" mask="url(#mask-4)"></path>
                    </g>
                    <path d="M22.0281926,42.2626758 L10.0534736,42.2626758 C9.51411405,42.2626758 9.07606033,41.8239788 9.07606033,41.2819485 C9.07606033,40.7408576 9.51411405,40.3031 10.0534736,40.3031 L22.0281926,40.3031 C22.5694281,40.3031 23.0065438,40.7408576 23.0065438,41.2819485 C23.0065438,41.8239788 22.5694281,42.2626758 22.0281926,42.2626758" id="Fill-67" fill="#FEFEFE"></path>
                    <g id="Group-71" transform="translate(23.450413, 45.255021)">
                        <mask id="mask-6" fill="white">
                            <use xlink:href="#path-5"></use>
                        </mask>
                        <g id="Clip-70"></g>
                        <path d="M8.45256074,11.9305848 C6.49398223,11.9305848 4.90498223,10.3401909 4.90498223,8.37779697 C4.90498223,6.41634242 6.49398223,4.82688788 8.45256074,4.82688788 C10.4111393,4.82688788 11.9992012,6.41634242 11.9992012,8.37873636 C11.9992012,10.3401909 10.4111393,11.9305848 8.45256074,11.9305848 M8.45256074,0.786554545 C4.26431694,0.786554545 0.871511157,4.18528182 0.871511157,8.37873636 C0.871511157,12.5712515 4.26431694,15.9699788 8.45256074,15.9699788 C12.6389285,15.9699788 16.0326723,12.5712515 16.0326723,8.37873636 C16.0326723,4.18528182 12.6389285,0.786554545 8.45256074,0.786554545" id="Fill-69" fill="#FEFEFE" mask="url(#mask-6)"></path>
                    </g>
                </g>
            </g>
        </g>
    </g>
</svg>